Version 0.01.ufo
<glyph name="exclam" format="1">
  <advance width="591"/>
  <unicode hex="0021"/>
  <outline>
    <contour>
      <point x="411" y="356" type="line"/>
      <point x="245" y="357" type="line"/>
      <point x="245" y="407" type="line" smooth="yes"/>
      <point x="245" y="495"/>
      <point x="232" y="668"/>
      <point x="220" y="754" type="qcurve" smooth="yes"/>
      <point x="207" y="842"/>
      <point x="175" y="1018"/>
      <point x="161" y="1112" type="qcurve" smooth="yes"/>
      <point x="149" y="1194"/>
      <point x="137" y="1359"/>
      <point x="138" y="1443" type="qcurve" smooth="yes"/>
      <point x="138" y="1463"/>
      <point x="138" y="1503"/>
      <point x="139" y="1523" type="qcurve"/>
      <point x="304" y="1518" type="line"/>
      <point x="303" y="1504"/>
      <point x="303" y="1474"/>
      <point x="303" y="1460" type="qcurve" smooth="yes"/>
      <point x="303" y="1331"/>
      <point x="332" y="1083"/>
      <point x="354" y="953" type="qcurve" smooth="yes"/>
      <point x="383" y="816"/>
      <point x="411" y="532"/>
      <point x="411" y="391" type="qcurve" smooth="yes"/>
    </contour>
    <contour>
      <point x="460" y="115" type="qcurve" smooth="yes"/>
      <point x="460" y="90"/>
      <point x="441" y="46"/>
      <point x="425.0" y="30.0" type="qcurve" smooth="yes" name="inserted"/>
      <point x="409" y="14"/>
      <point x="366" y="-4"/>
      <point x="342" y="-4" type="qcurve" smooth="yes"/>
      <point x="318" y="-4"/>
      <point x="275" y="14"/>
      <point x="259.0" y="30.0" type="qcurve" smooth="yes" name="inserted"/>
      <point x="243" y="46"/>
      <point x="224" y="90"/>
      <point x="224" y="115" type="qcurve" smooth="yes"/>
      <point x="224" y="139"/>
      <point x="243" y="181"/>
      <point x="259.0" y="197.0" type="qcurve" smooth="yes" name="inserted"/>
      <point x="275" y="213"/>
      <point x="318" y="231"/>
      <point x="342" y="231" type="qcurve" smooth="yes"/>
      <point x="366" y="231"/>
      <point x="409" y="213"/>
      <point x="425.0" y="197.0" type="qcurve" smooth="yes" name="inserted"/>
      <point x="441" y="181"/>
      <point x="460" y="139"/>
    </contour>
  </outline>
</glyph>
<glyph name="quotesingle" format="1">
  <advance width="473"/>
  <unicode hex="0027"/>
  <outline>
    <contour>
      <point x="340" y="1638" type="line"/>
      <point x="299" y="1110" type="line"/>
      <point x="174" y="1110" type="line"/>
      <point x="133" y="1638" type="line"/>
    </contour>
  </outline>
</glyph>
<glyph name="parenright" format="1">
  <advance width="644"/>
  <unicode hex="0029"/>
  <outline>
    <contour>
      <point x="226" y="-443" type="qcurve"/>
      <point x="61" y="-443" type="line"/>
      <point x="216" y="-214"/>
      <point x="367" y="312"/>
      <point x="367" y="604" type="qcurve" smooth="yes"/>
      <point x="367.0" y="894.5" name="inserted"/>
      <point x="215.0" y="1411.0"/>
      <point x="63" y="1637" type="qcurve"/>
      <point x="226" y="1637" type="line"/>
      <point x="300" y="1539"/>
      <point x="414" y="1298"/>
      <point x="453.0" y="1164.5" type="qcurve" smooth="yes" name="inserted"/>
      <point x="492" y="1031"/>
      <point x="532" y="747"/>
      <point x="532" y="606" type="qcurve" smooth="yes"/>
      <point x="532.0" y="460.5" name="inserted"/>
      <point x="491.5" y="176.5"/>
      <point x="451" y="38" type="qcurve" smooth="yes"/>
      <point x="410.5" y="-101.5" name="inserted"/>
      <point x="298.0" y="-342.0"/>
    </contour>
  </outline>
</glyph>
<glyph name="asterisk" format="1">
  <advance width="1128"/>
  <unicode hex="002A"/>
  <outline>
    <contour>
      <point x="656" y="1637" type="line"/>
      <point x="616" y="1256" type="line"/>
      <point x="998" y="1364" type="line"/>
      <point x="1026" y="1180" type="line"/>
      <point x="661" y="1151" type="line"/>
      <point x="897" y="837" type="line"/>
      <point x="726" y="744" type="line"/>
      <point x="557" y="1091" type="line"/>
      <point x="404" y="744" type="line"/>
      <point x="227" y="837" type="line"/>
      <point x="460" y="1151" type="line"/>
      <point x="98" y="1180" type="line"/>
      <point x="126" y="1364" type="line"/>
      <point x="504" y="1256" type="line"/>
      <point x="462" y="1637" type="line"/>
    </contour>
  </outline>
</glyph>
<glyph name="hyphen" format="1">
  <advance width="659"/>
  <unicode hex="002D"/>
  <outline>
    <contour>
      <point x="82" y="571" type="line"/>
      <point x="82" y="723" type="line"/>
      <point x="578" y="723" type="line"/>
      <point x="578" y="571" type="line"/>
    </contour>
  </outline>
</glyph>
<glyph name="slash" format="1">
  <advance width="869"/>
  <unicode hex="002F"/>
  <outline>
    <contour>
      <point x="795" y="1637" type="line"/>
      <point x="234" y="-443" type="line"/>
      <point x="74" y="-443" type="line"/>
      <point x="636" y="1637" type="line"/>
    </contour>
  </outline>
</glyph>
<glyph name="zero" format="1">
  <advance width="1171"/>
  <unicode hex="0030"/>
  <outline>
    <contour>
      <point x="711" y="221" type="qcurve"/>
      <point x="758" y="250"/>
      <point x="823" y="335"/>
      <point x="844.0" y="383.0" type="qcurve" smooth="yes" name="inserted"/>
      <point x="865" y="431"/>
      <point x="888" y="532"/>
      <point x="893.5" y="578.0" type="qcurve" smooth="yes" name="inserted"/>
      <point x="899" y="624"/>
      <point x="901" y="702"/>
      <point x="901" y="726" type="qcurve" smooth="yes"/>
      <point x="901" y="739"/>
      <point x="898" y="782"/>
      <point x="898" y="807" type="qcurve" smooth="yes"/>
      <point x="897" y="838"/>
      <point x="886" y="929"/>
      <point x="873.5" y="979.5" type="qcurve" smooth="yes" name="inserted"/>
      <point x="861" y="1030"/>
      <point x="817" y="1129"/>
      <point x="783.0" y="1169.0" type="qcurve" smooth="yes" name="inserted"/>
      <point x="749" y="1209"/>
      <point x="652" y="1259"/>
      <point x="587" y="1259" type="qcurve" smooth="yes"/>
      <point x="551" y="1259"/>
      <point x="488" y="1242"/>
      <point x="462" y="1228" type="qcurve"/>
      <point x="416" y="1198"/>
      <point x="353" y="1113"/>
      <point x="332.0" y="1065.5" type="qcurve" smooth="yes" name="inserted"/>
      <point x="311" y="1018"/>
      <point x="289" y="918"/>
      <point x="283.5" y="872.0" type="qcurve" smooth="yes" name="inserted"/>
      <point x="278" y="826"/>
      <point x="276" y="750"/>
      <point x="276" y="726" type="qcurve" smooth="yes"/>
      <point x="276" y="686"/>
      <point x="282" y="577"/>
      <point x="293.0" y="517.5" type="qcurve" smooth="yes" name="inserted"/>
      <point x="304" y="458"/>
      <point x="345" y="342"/>
      <point x="379.5" y="296.0" type="qcurve" smooth="yes" name="inserted"/>
      <point x="414" y="250"/>
      <point x="516" y="193"/>
      <point x="587" y="193" type="qcurve" smooth="yes"/>
      <point x="623.0" y="193.0" name="inserted"/>
      <point x="685.0" y="207.0"/>
    </contour>
    <contour>
      <point x="1097" y="1032" type="qcurve" smooth="yes"/>
      <point x="1117" y="963"/>
      <point x="1135" y="811"/>
      <point x="1135" y="726" type="qcurve" smooth="yes"/>
      <point x="1135" y="560"/>
      <point x="1061" y="286"/>
      <point x="990.5" y="187.5" type="qcurve" smooth="yes" name="inserted"/>
      <point x="920" y="89"/>
      <point x="717" y="-20"/>
      <point x="587" y="-20" type="qcurve" smooth="yes"/>
      <point x="461" y="-20"/>
      <point x="258" y="84"/>
      <point x="187.5" y="181.0" type="qcurve" smooth="yes" name="inserted"/>
      <point x="117" y="278"/>
      <point x="41" y="554"/>
      <point x="41" y="726" type="qcurve" smooth="yes"/>
      <point x="41" y="882"/>
      <point x="109" y="1153"/>
      <point x="177.0" y="1253.5" type="qcurve" smooth="yes" name="inserted"/>
      <point x="245" y="1354"/>
      <point x="450" y="1469"/>
      <point x="587" y="1469" type="qcurve" smooth="yes"/>
      <point x="683" y="1469"/>
      <point x="846" y="1408"/>
      <point x="911.0" y="1351.0" type="qcurve" smooth="yes" name="inserted"/>
      <point x="976" y="1294"/>
      <point x="1070" y="1132"/>
    </contour>
  </outline>
</glyph>
<glyph name="one" format="1">
  <advance width="1171"/>
  <unicode hex="0031"/>
  <outline>
    <contour>
      <point x="539" y="1461" type="line"/>
      <point x="774" y="1461" type="line"/>
      <point x="774" y="2" type="line"/>
      <point x="535" y="2" type="line"/>
      <point x="535" y="1136" type="line"/>
      <point x="407" y="1011" type="line"/>
      <point x="236" y="1162" type="line"/>
    </contour>
  </outline>
</glyph>
<glyph name="four" format="1">
  <advance width="1171"/>
  <unicode hex="0034"/>
  <outline>
    <contour>
      <point x="329" y="585" type="line"/>
      <point x="729" y="585" type="line"/>
      <point x="729" y="1094" type="line"/>
    </contour>
    <contour>
      <point x="940" y="585" type="line"/>
      <point x="1147" y="585" type="line"/>
      <point x="1147" y="365" type="line"/>
      <point x="940" y="365" type="line"/>
      <point x="940" y="9" type="line"/>
      <point x="729" y="9" type="line"/>
      <point x="729" y="365" type="line"/>
      <point x="32" y="365" type="line"/>
      <point x="32" y="580" type="line"/>
      <point x="732" y="1471" type="line"/>
      <point x="940" y="1471" type="line"/>
    </contour>
  </outline>
</glyph>
<glyph name="six" format="1">
  <advance width="1281"/>
  <unicode hex="0036"/>
  <outline>
    <contour>
      <point x="950" y="476" type="qcurve"/>
      <point x="950" y="482"/>
      <point x="951" y="495"/>
      <point x="951" y="501" type="qcurve" smooth="yes"/>
      <point x="951.0" y="525.0" name="inserted"/>
      <point x="943.0" y="571.5"/>
      <point x="935" y="594" type="qcurve"/>
      <point x="894" y="682"/>
      <point x="757" y="783"/>
      <point x="654" y="790" type="qcurve"/>
      <point x="654" y="791" type="line"/>
      <point x="651" y="791"/>
      <point x="640" y="794"/>
      <point x="635" y="794" type="qcurve" smooth="yes"/>
      <point x="560" y="794"/>
      <point x="442" y="742"/>
      <point x="401.5" y="698.5" type="qcurve" smooth="yes" name="inserted"/>
      <point x="361" y="655"/>
      <point x="318" y="543"/>
      <point x="318" y="484" type="qcurve" smooth="yes"/>
      <point x="318" y="415"/>
      <point x="376" y="307"/>
      <point x="422.5" y="270.5" type="qcurve" smooth="yes" name="inserted"/>
      <point x="469" y="234"/>
      <point x="586" y="196"/>
      <point x="645" y="196" type="qcurve" smooth="yes"/>
      <point x="671" y="196"/>
      <point x="718" y="206"/>
      <point x="741" y="214" type="qcurve" smooth="yes"/>
      <point x="836" y="246"/>
      <point x="941" y="385"/>
    </contour>
    <contour>
      <point x="1045" y="830" type="qcurve" smooth="yes"/>
      <point x="1107" y="759"/>
      <point x="1181" y="592"/>
      <point x="1181" y="494" type="qcurve" smooth="yes"/>
      <point x="1181" y="382"/>
      <point x="1090" y="196"/>
      <point x="1014.0" y="129.5" type="qcurve" smooth="yes" name="inserted"/>
      <point x="938" y="63"/>
      <point x="741" y="-11"/>
      <point x="635" y="-11" type="qcurve" smooth="yes"/>
      <point x="602" y="-11" type="line"/>
      <point x="487" y="-4"/>
      <point x="300" y="82"/>
      <point x="228" y="155" type="qcurve" smooth="yes"/>
      <point x="156" y="228"/>
      <point x="89" y="410"/>
      <point x="89" y="504" type="qcurve" smooth="yes"/>
      <point x="89" y="523" type="line"/>
      <point x="89" y="529" type="line"/>
      <point x="91" y="555"/>
      <point x="99" y="644"/>
      <point x="117.0" y="705.5" type="qcurve" smooth="yes" name="inserted"/>
      <point x="135" y="767"/>
      <point x="211" y="925"/>
      <point x="280.0" y="1020.0" type="qcurve" smooth="yes" name="inserted"/>
      <point x="349" y="1115"/>
      <point x="562" y="1338"/>
      <point x="717" y="1465" type="qcurve"/>
      <point x="721" y="1469" type="line"/>
      <point x="872" y="1314" type="line"/>
      <point x="865" y="1307" type="line"/>
      <point x="760" y="1224"/>
      <point x="601" y="1067"/>
      <point x="541" y="995" type="qcurve"/>
      <point x="561" y="997"/>
      <point x="606" y="1001"/>
      <point x="630" y="1001" type="qcurve" smooth="yes"/>
      <point x="754" y="1001"/>
      <point x="968" y="911"/>
    </contour>
  </outline>
</glyph>
<glyph name="eight" format="1">
  <advance width="1171"/>
  <unicode hex="0038"/>
  <outline>
    <contour>
      <point x="586" y="1258" type="qcurve" smooth="yes"/>
      <point x="539" y="1258"/>
      <point x="451" y="1230"/>
      <point x="417.0" y="1203.5" type="qcurve" smooth="yes" name="inserted"/>
      <point x="383" y="1177"/>
      <point x="342" y="1102"/>
      <point x="342" y="1055" type="qcurve" smooth="yes"/>
      <point x="342" y="1016"/>
      <point x="377" y="943"/>
      <point x="408.5" y="915.0" type="qcurve" smooth="yes" name="inserted"/>
      <point x="440" y="887"/>
      <point x="530" y="853"/>
      <point x="586" y="853" type="qcurve" smooth="yes"/>
      <point x="635" y="853"/>
      <point x="723" y="882"/>
      <point x="756.0" y="909.0" type="qcurve" smooth="yes" name="inserted"/>
      <point x="789" y="936"/>
      <point x="828" y="1010"/>
      <point x="828" y="1055" type="qcurve" smooth="yes"/>
      <point x="828" y="1094"/>
      <point x="795" y="1167"/>
      <point x="763.5" y="1195.5" type="qcurve" smooth="yes" name="inserted"/>
      <point x="732" y="1224"/>
      <point x="643" y="1258"/>
    </contour>
    <contour>
      <point x="586" y="192" type="qcurve" smooth="yes"/>
      <point x="642" y="192"/>
      <point x="744" y="228"/>
      <point x="783.0" y="260.5" type="qcurve" smooth="yes" name="inserted"/>
      <point x="822" y="293"/>
      <point x="869" y="381"/>
      <point x="869" y="432" type="qcurve" smooth="yes"/>
      <point x="869" y="484"/>
      <point x="822" y="572"/>
      <point x="782.5" y="604.0" type="qcurve" smooth="yes" name="inserted"/>
      <point x="743" y="636"/>
      <point x="641" y="671"/>
      <point x="586" y="671" type="qcurve" smooth="yes"/>
      <point x="523" y="671"/>
      <point x="418" y="632"/>
      <point x="380.5" y="599.0" type="qcurve" smooth="yes" name="inserted"/>
      <point x="343" y="566"/>
      <point x="301" y="479"/>
      <point x="301" y="432" type="qcurve" smooth="yes"/>
      <point x="301" y="384"/>
      <point x="344" y="297"/>
      <point x="382.0" y="264.0" type="qcurve" smooth="yes" name="inserted"/>
      <point x="420" y="231"/>
      <point x="524" y="192"/>
    </contour>
    <contour>
      <point x="928" y="768" type="qcurve"/>
      <point x="1005" y="704"/>
      <point x="1099" y="537"/>
      <point x="1099" y="432" type="qcurve" smooth="yes"/>
      <point x="1099" y="331"/>
      <point x="1010" y="165"/>
      <point x="938.0" y="106.0" type="qcurve" smooth="yes" name="inserted"/>
      <point x="866" y="47"/>
      <point x="682" y="-18"/>
      <point x="586" y="-18" type="qcurve" smooth="yes"/>
      <point x="483" y="-18"/>
      <point x="297" y="51"/>
      <point x="226.0" y="111.0" type="qcurve" smooth="yes" name="inserted"/>
      <point x="155" y="171"/>
      <point x="71" y="336"/>
      <point x="71" y="432" type="qcurve" smooth="yes"/>
      <point x="71" y="532"/>
      <point x="164" y="703"/>
      <point x="242" y="768" type="qcurve"/>
      <point x="181" y="826"/>
      <point x="112" y="970"/>
      <point x="112" y="1055" type="qcurve" smooth="yes"/>
      <point x="112" y="1152"/>
      <point x="195" y="1306"/>
      <point x="262.5" y="1359.5" type="qcurve" smooth="yes" name="inserted"/>
      <point x="330" y="1413"/>
      <point x="500" y="1469"/>
      <point x="586" y="1469" type="qcurve" smooth="yes"/>
      <point x="689" y="1469"/>
      <point x="862" y="1402"/>
      <point x="925.0" y="1345.0" type="qcurve" smooth="yes" name="inserted"/>
      <point x="988" y="1288"/>
      <point x="1058" y="1138"/>
      <point x="1058" y="1055" type="qcurve" smooth="yes"/>
      <point x="1058" y="970"/>
      <point x="989" y="826"/>
    </contour>
  </outline>
</glyph>
<glyph name="colon" format="1">
  <advance width="588"/>
  <unicode hex="003A"/>
  <outline>
    <contour>
      <point x="292" y="1093" type="qcurve" smooth="yes"/>
      <point x="352" y="1093"/>
      <point x="415" y="1026"/>
      <point x="415" y="960" type="qcurve" smooth="yes"/>
      <point x="415" y="896"/>
      <point x="349" y="827"/>
      <point x="292" y="827" type="qcurve" smooth="yes"/>
      <point x="237" y="827"/>
      <point x="173" y="894"/>
      <point x="173" y="960" type="qcurve" smooth="yes"/>
      <point x="173" y="1026"/>
      <point x="234" y="1093"/>
    </contour>
    <contour>
      <point x="292" y="244" type="qcurve" smooth="yes"/>
      <point x="350" y="244"/>
      <point x="415" y="177"/>
      <point x="415" y="113" type="qcurve" smooth="yes"/>
      <point x="415" y="49"/>
      <point x="349" y="-21"/>
      <point x="292" y="-21" type="qcurve" smooth="yes"/>
      <point x="235" y="-21"/>
      <point x="173" y="47"/>
      <point x="173" y="113" type="qcurve" smooth="yes"/>
      <point x="173" y="179"/>
      <point x="235" y="244"/>
    </contour>
  </outline>
</glyph>
<glyph name="less" format="1">
  <advance width="1171"/>
  <unicode hex="003C"/>
  <outline>
    <contour>
      <point x="1067" y="238" type="line"/>
      <point x="102" y="662" type="line"/>
      <point x="102" y="764" type="line"/>
      <point x="1067" y="1245" type="line"/>
      <point x="1067" y="1085" type="line"/>
      <point x="295" y="721" type="line"/>
      <point x="1067" y="397" type="line"/>
    </contour>
  </outline>
</glyph>
<glyph name="equal" format="1">
  <advance width="1171"/>
  <unicode hex="003D"/>
  <outline>
    <contour>
      <point x="115" y="852" type="line"/>
      <point x="115" y="997" type="line"/>
      <point x="1053" y="997" type="line"/>
      <point x="1053" y="852" type="line"/>
    </contour>
    <contour>
      <point x="115" y="444" type="line"/>
      <point x="115" y="590" type="line"/>
      <point x="1053" y="590" type="line"/>
      <point x="1053" y="444" type="line"/>
    </contour>
  </outline>
</glyph>
<glyph name="greater" format="1">
  <advance width="1171"/>
  <unicode hex="003E"/>
  <outline>
    <contour>
      <point x="102" y="397" type="line"/>
      <point x="874" y="719" type="line"/>
      <point x="102" y="1085" type="line"/>
      <point x="102" y="1245" type="line"/>
      <point x="1067" y="764" type="line"/>
      <point x="1067" y="662" type="line"/>
      <point x="102" y="238" type="line"/>
    </contour>
  </outline>
</glyph>
<glyph name="bracketleft" format="1">
  <advance width="714"/>
  <unicode hex="005B"/>
  <outline>
    <contour>
      <point x="623" y="-443" type="line"/>
      <point x="164" y="-443" type="line"/>
      <point x="164" y="1637" type="line"/>
      <point x="623" y="1637" type="line"/>
      <point x="623" y="1502" type="line"/>
      <point x="320" y="1502" type="line"/>
      <point x="320" y="-307" type="line"/>
      <point x="623" y="-307" type="line"/>
    </contour>
  </outline>
</glyph>
<glyph name="backslash" format="1">
  <advance width="869"/>
  <unicode hex="005C"/>
  <outline>
    <contour>
      <point x="233" y="1637" type="line"/>
      <point x="795" y="-443" type="line"/>
      <point x="635" y="-443" type="line"/>
      <point x="74" y="1637" type="line"/>
    </contour>
  </outline>
</glyph>
<glyph name="bracketright" format="1">
  <advance width="714"/>
  <unicode hex="005D"/>
  <outline>
    <contour>
      <point x="91" y="-308" type="line"/>
      <point x="393" y="-308" type="line"/>
      <point x="393" y="1503" type="line"/>
      <point x="91" y="1503" type="line"/>
      <point x="91" y="1638" type="line"/>
      <point x="550" y="1638" type="line"/>
      <point x="550" y="-444" type="line"/>
      <point x="91" y="-444" type="line"/>
    </contour>
  </outline>
</glyph>
<glyph name="asciitilde" format="1">
  <advance width="1171"/>
  <unicode hex="007E"/>
  <outline>
    <contour>
      <point x="102" y="588" type="qcurve"/>
      <point x="102" y="748" type="line"/>
      <point x="152.0" y="802.0" name="inserted"/>
      <point x="275.0" y="856.0"/>
      <point x="348" y="856" type="qcurve" smooth="yes"/>
      <point x="383.5" y="856.0" name="inserted"/>
      <point x="449.0" y="848.0"/>
      <point x="479" y="840" type="qcurve" smooth="yes"/>
      <point x="510" y="832"/>
      <point x="580" y="808"/>
      <point x="618" y="791" type="qcurve" smooth="yes"/>
      <point x="685" y="762"/>
      <point x="784" y="735"/>
      <point x="831" y="735" type="qcurve" smooth="yes"/>
      <point x="886" y="735"/>
      <point x="1010" y="799"/>
      <point x="1067" y="856" type="qcurve"/>
      <point x="1067" y="698" type="line"/>
      <point x="1015.0" y="643.0" name="inserted"/>
      <point x="892.0" y="588.0"/>
      <point x="821" y="588" type="qcurve" smooth="yes"/>
      <point x="784.5" y="588.0" name="inserted"/>
      <point x="718.0" y="596.0"/>
      <point x="688" y="604" type="qcurve" smooth="yes"/>
      <point x="657.0" y="612.5" name="inserted"/>
      <point x="588.5" y="637.0"/>
      <point x="551" y="653" type="qcurve" smooth="yes"/>
      <point x="482" y="683"/>
      <point x="384" y="709"/>
      <point x="336" y="709" type="qcurve" smooth="yes"/>
      <point x="310" y="709"/>
      <point x="251" y="692"/>
      <point x="220.0" y="676.0" type="qcurve" smooth="yes" name="inserted"/>
      <point x="189" y="660"/>
      <point x="129" y="615"/>
    </contour>
  </outline>
</glyph>
<glyph name="multiply" format="1">
  <advance width="1171"/>
  <unicode hex="00D7"/>
  <outline>
    <contour>
      <point x="584" y="825" type="line"/>
      <point x="934" y="1176" type="line"/>
      <point x="1036" y="1071" type="line"/>
      <point x="688" y="723" type="line"/>
      <point x="1034" y="375" type="line"/>
      <point x="932" y="270" type="line"/>
      <point x="582" y="616" type="line"/>
      <point x="240" y="270" type="line"/>
      <point x="133" y="375" type="line"/>
      <point x="479" y="723" type="line"/>
      <point x="131" y="1069" type="line"/>
      <point x="238" y="1176" type="line"/>
    </contour>
  </outline>
</glyph>
<glyph name="uni0964" format="1">
  <advance width="588"/>
  <unicode hex="0964"/>
  <outline>
    <contour>
      <point x="219" y="1254" type="line"/>
      <point x="367" y="1254" type="line"/>
      <point x="367" y="0" type="line"/>
      <point x="219" y="0" type="line"/>
    </contour>
  </outline>
</glyph>
<glyph name="uni0965" format="1">
  <advance width="980"/>
  <unicode hex="0965"/>
  <outline>
    <contour>
      <point x="219" y="1254" type="line"/>
      <point x="367" y="1254" type="line"/>
      <point x="367" y="0" type="line"/>
      <point x="219" y="0" type="line"/>
    </contour>
    <contour>
      <point x="613" y="1254" type="line"/>
      <point x="761" y="1254" type="line"/>
      <point x="761" y="0" type="line"/>
      <point x="613" y="0" type="line"/>
    </contour>
  </outline>
</glyph>
<glyph name="uni0D82" format="1">
  <advance width="962"/>
  <unicode hex="0D82"/>
  <outline>
    <contour>
      <point x="486" y="955" type="qcurve" smooth="yes"/>
      <point x="577" y="956"/>
      <point x="728" y="893"/>
      <point x="782.0" y="837.0" type="qcurve" smooth="yes" name="inserted"/>
      <point x="836" y="781"/>
      <point x="895" y="630"/>
      <point x="893" y="545" type="qcurve"/>
      <point x="893.0" y="454.5" name="inserted"/>
      <point x="836.0" y="306.5"/>
      <point x="779" y="249" type="qcurve" smooth="yes"/>
      <point x="723.0" y="191.5" name="inserted"/>
      <point x="573.0" y="134.0"/>
      <point x="479" y="134" type="qcurve" smooth="yes"/>
      <point x="388" y="133"/>
      <point x="237" y="195"/>
      <point x="182.5" y="250.5" type="qcurve" smooth="yes" name="inserted"/>
      <point x="128" y="306"/>
      <point x="68" y="457"/>
      <point x="69" y="545" type="qcurve" smooth="yes"/>
      <point x="69.0" y="602.5" name="inserted"/>
      <point x="95.5" y="707.5"/>
      <point x="122" y="755" type="qcurve" smooth="yes"/>
      <point x="176" y="852"/>
      <point x="366" y="955"/>
    </contour>
    <contour>
      <point x="479" y="276" type="qcurve" smooth="yes"/>
      <point x="540.0" y="276.0" name="inserted"/>
      <point x="636.5" y="313.5"/>
      <point x="672" y="351" type="qcurve" smooth="yes"/>
      <point x="707.5" y="389.5" name="inserted"/>
      <point x="743.0" y="491.0"/>
      <point x="743" y="554" type="qcurve" smooth="yes"/>
      <point x="743.0" y="612.0" name="inserted"/>
      <point x="707.5" y="705.5"/>
      <point x="672" y="741" type="qcurve" smooth="yes"/>
      <point x="636.5" y="777.0" name="inserted"/>
      <point x="540.0" y="813.0"/>
      <point x="479" y="813" type="qcurve" smooth="yes"/>
      <point x="419.0" y="813.0" name="inserted"/>
      <point x="324.0" y="777.0"/>
      <point x="289" y="741" type="qcurve" smooth="yes"/>
      <point x="254.0" y="706.0" name="inserted"/>
      <point x="219.0" y="610.5"/>
      <point x="219" y="550" type="qcurve" smooth="yes"/>
      <point x="219.0" y="488.0" name="inserted"/>
      <point x="253.5" y="388.5"/>
      <point x="288" y="351" type="qcurve" smooth="yes"/>
      <point x="322.5" y="313.5" name="inserted"/>
      <point x="418.0" y="276.0"/>
    </contour>
  </outline>
</glyph>
<glyph name="uni0D83" format="1">
  <advance width="651"/>
  <unicode hex="0D83"/>
  <outline>
    <contour>
      <point x="327" y="615" type="qcurve" smooth="yes"/>
      <point x="265.0" y="615.0" name="inserted"/>
      <point x="168.0" y="648.5"/>
      <point x="133" y="682" type="qcurve" smooth="yes"/>
      <point x="97.5" y="716.0" name="inserted"/>
      <point x="62.0" y="806.0"/>
      <point x="62" y="862" type="qcurve" smooth="yes"/>
      <point x="62.0" y="917.5" name="inserted"/>
      <point x="98.0" y="1008.5"/>
      <point x="134" y="1044" type="qcurve" smooth="yes"/>
      <point x="170.5" y="1079.5" name="inserted"/>
      <point x="265.5" y="1115.0"/>
      <point x="324" y="1115" type="qcurve" smooth="yes"/>
      <point x="383.5" y="1115.0" name="inserted"/>
      <point x="479.5" y="1081.0"/>
      <point x="516" y="1047" type="qcurve" smooth="yes"/>
      <point x="552.5" y="1013.5" name="inserted"/>
      <point x="589.0" y="924.0"/>
      <point x="589" y="868" type="qcurve" smooth="yes"/>
      <point x="589.0" y="810.5" name="inserted"/>
      <point x="553.0" y="718.5"/>
      <point x="517" y="684" type="qcurve" smooth="yes"/>
      <point x="481.5" y="649.5" name="inserted"/>
      <point x="386.5" y="615.0"/>
    </contour>
    <contour>
      <point x="326" y="991" type="qcurve" smooth="yes"/>
      <point x="263" y="991"/>
      <point x="192" y="923"/>
      <point x="192" y="860" type="qcurve" smooth="yes"/>
      <point x="192" y="808"/>
      <point x="261" y="738"/>
      <point x="322" y="738" type="qcurve" smooth="yes"/>
      <point x="386" y="738"/>
      <point x="459" y="807"/>
      <point x="459" y="867" type="qcurve" smooth="yes"/>
      <point x="459" y="922"/>
      <point x="389" y="991"/>
    </contour>
    <contour>
      <point x="327" y="0" type="qcurve" smooth="yes"/>
      <point x="265.5" y="0.0" name="inserted"/>
      <point x="168.5" y="34.0"/>
      <point x="133" y="68" type="qcurve" smooth="yes"/>
      <point x="97.5" y="102.0" name="inserted"/>
      <point x="62.0" y="192.0"/>
      <point x="62" y="248" type="qcurve" smooth="yes"/>
      <point x="62.0" y="303.0" name="inserted"/>
      <point x="98.0" y="393.5"/>
      <point x="134" y="429" type="qcurve" smooth="yes"/>
      <point x="171.0" y="464.5" name="inserted"/>
      <point x="266.0" y="500.0"/>
      <point x="324" y="500" type="qcurve" smooth="yes"/>
      <point x="383.5" y="500.0" name="inserted"/>
      <point x="479.5" y="466.0"/>
      <point x="516" y="432" type="qcurve" smooth="yes"/>
      <point x="552.5" y="398.5" name="inserted"/>
      <point x="589.0" y="309.5"/>
      <point x="589" y="254" type="qcurve" smooth="yes"/>
      <point x="589.0" y="196.0" name="inserted"/>
      <point x="553.0" y="103.5"/>
      <point x="517" y="69" type="qcurve" smooth="yes"/>
      <point x="481.0" y="34.5" name="inserted"/>
      <point x="386.0" y="0.0"/>
    </contour>
    <contour>
      <point x="326" y="376" type="qcurve" smooth="yes"/>
      <point x="265" y="376"/>
      <point x="192" y="309"/>
      <point x="192" y="245" type="qcurve" smooth="yes"/>
      <point x="192" y="194"/>
      <point x="261" y="124"/>
      <point x="322" y="124" type="qcurve" smooth="yes"/>
      <point x="385" y="124"/>
      <point x="459" y="192"/>
      <point x="459" y="253" type="qcurve" smooth="yes"/>
      <point x="459" y="307"/>
      <point x="387" y="376"/>
    </contour>
  </outline>
</glyph>
<glyph name="uni0D89" format="1">
  <advance width="1961"/>
  <unicode hex="0D89"/>
  <outline>
    <contour>
      <point x="857" y="268" type="qcurve"/>
      <point x="874" y="263"/>
      <point x="906" y="261"/>
      <point x="923" y="261" type="qcurve" smooth="yes"/>
      <point x="980" y="261"/>
      <point x="1074" y="297"/>
      <point x="1108.0" y="327.5" type="qcurve" smooth="yes" name="inserted"/>
      <point x="1142" y="358"/>
      <point x="1180" y="437"/>
      <point x="1180" y="480" type="qcurve" smooth="yes"/>
      <point x="1180" y="543"/>
      <point x="1098" y="639"/>
      <point x="1018" y="665" type="qcurve"/>
      <point x="1013" y="555"/>
      <point x="932" y="348"/>
    </contour>
    <contour>
      <point x="518" y="679" type="qcurve"/>
      <point x="527" y="582"/>
      <point x="604" y="415"/>
      <point x="678" y="353" type="qcurve"/>
      <point x="713" y="382"/>
      <point x="768" y="458"/>
      <point x="787.0" y="501.5" type="qcurve" smooth="yes" name="inserted"/>
      <point x="806" y="545"/>
      <point x="827" y="640"/>
      <point x="828" y="688" type="qcurve"/>
      <point x="783" y="688"/>
      <point x="698" y="683"/>
      <point x="649" y="683" type="qcurve" smooth="yes"/>
      <point x="646" y="683" type="line" smooth="yes"/>
      <point x="614" y="682"/>
      <point x="549" y="681"/>
    </contour>
    <contour>
      <point x="497" y="265" type="qcurve"/>
      <point x="428" y="344"/>
      <point x="343" y="532"/>
      <point x="331" y="639" type="qcurve"/>
      <point x="263" y="610"/>
      <point x="192" y="514"/>
      <point x="192" y="464" type="qcurve" smooth="yes"/>
      <point x="192" y="419"/>
      <point x="232" y="344"/>
      <point x="265.5" y="317.0" type="qcurve" smooth="yes" name="inserted"/>
      <point x="299" y="290"/>
      <point x="389" y="261"/>
      <point x="439" y="261" type="qcurve" smooth="yes"/>
      <point x="454" y="261"/>
      <point x="482" y="262"/>
    </contour>
    <contour>
      <point x="1621" y="1227" type="qcurve" smooth="yes"/>
      <point x="1673" y="1172"/>
      <point x="1758" y="1048"/>
      <point x="1787.5" y="971.0" type="qcurve" smooth="yes" name="inserted"/>
      <point x="1817" y="894"/>
      <point x="1849" y="704"/>
      <point x="1849" y="584" type="qcurve" smooth="yes"/>
      <point x="1849" y="469"/>
      <point x="1767" y="245"/>
      <point x="1696.5" y="147.5" type="qcurve" smooth="yes" name="inserted"/>
      <point x="1626" y="50"/>
      <point x="1439" y="-106"/>
      <point x="1335" y="-153" type="qcurve"/>
      <point x="1349" y="-169"/>
      <point x="1371" y="-214"/>
      <point x="1379.0" y="-239.5" type="qcurve" smooth="yes" name="inserted"/>
      <point x="1387" y="-265"/>
      <point x="1395" y="-317"/>
      <point x="1395" y="-340" type="qcurve" smooth="yes"/>
      <point x="1395" y="-406"/>
      <point x="1345" y="-521"/>
      <point x="1302.0" y="-563.5" type="qcurve" smooth="yes" name="inserted"/>
      <point x="1259" y="-606"/>
      <point x="1143" y="-656"/>
      <point x="1078" y="-656" type="qcurve" smooth="yes"/>
      <point x="996" y="-656"/>
      <point x="857" y="-580"/>
      <point x="814" y="-514" type="qcurve" smooth="yes"/>
      <point x="761" y="-434" type="line"/>
      <point x="920" y="-331" type="line"/>
      <point x="970" y="-410" type="line" smooth="yes"/>
      <point x="987" y="-436"/>
      <point x="1046" y="-468"/>
      <point x="1075" y="-468" type="qcurve" smooth="yes"/>
      <point x="1103" y="-468"/>
      <point x="1151" y="-448"/>
      <point x="1168.5" y="-430.0" type="qcurve" smooth="yes" name="inserted"/>
      <point x="1186" y="-412"/>
      <point x="1206" y="-365"/>
      <point x="1206" y="-338" type="qcurve" smooth="yes"/>
      <point x="1206" y="-299"/>
      <point x="1160" y="-235"/>
      <point x="1122" y="-219" type="qcurve"/>
      <point x="1089" y="-224"/>
      <point x="1021" y="-233"/>
      <point x="986" y="-233" type="qcurve" smooth="yes"/>
      <point x="971" y="-233" type="line"/>
      <point x="931" y="-52" type="line"/>
      <point x="961" y="-52" type="line" smooth="yes"/>
      <point x="980" y="-52"/>
      <point x="1015" y="-50"/>
      <point x="1033.5" y="-47.0" type="qcurve" smooth="yes" name="inserted"/>
      <point x="1052" y="-44"/>
      <point x="1093" y="-35"/>
      <point x="1120" y="-27" type="qcurve"/>
      <point x="1241" y="0"/>
      <point x="1442" y="129"/>
      <point x="1513.0" y="219.5" type="qcurve" smooth="yes" name="inserted"/>
      <point x="1584" y="310"/>
      <point x="1663" y="529"/>
      <point x="1663" y="645" type="qcurve" smooth="yes"/>
      <point x="1663" y="731"/>
      <point x="1621" y="892"/>
      <point x="1582.0" y="962.0" type="qcurve" smooth="yes" name="inserted"/>
      <point x="1543" y="1032"/>
      <point x="1434" y="1148"/>
      <point x="1368.0" y="1189.5" type="qcurve" smooth="yes" name="inserted"/>
      <point x="1302" y="1231"/>
      <point x="1148" y="1277"/>
      <point x="1065" y="1277" type="qcurve" smooth="yes"/>
      <point x="975" y="1277"/>
      <point x="807" y="1218"/>
      <point x="736.5" y="1164.5" type="qcurve" smooth="yes" name="inserted"/>
      <point x="666" y="1111"/>
      <point x="563" y="961"/>
      <point x="538" y="870" type="qcurve"/>
      <point x="565" y="871"/>
      <point x="618" y="871"/>
      <point x="644" y="872" type="qcurve" smooth="yes"/>
      <point x="646" y="872" type="line" smooth="yes"/>
      <point x="678" y="872"/>
      <point x="749" y="875"/>
      <point x="787" y="875" type="qcurve"/>
      <point x="776" y="900"/>
      <point x="749" y="944"/>
      <point x="732" y="964" type="qcurve"/>
      <point x="675" y="1039" type="line"/>
      <point x="823" y="1155" type="line"/>
      <point x="883" y="1081" type="line" smooth="yes"/>
      <point x="919" y="1033"/>
      <point x="975" y="924"/>
      <point x="992" y="865" type="qcurve"/>
      <point x="998" y="865"/>
      <point x="1011" y="862"/>
      <point x="1018" y="861" type="qcurve"/>
      <point x="1103" y="843"/>
      <point x="1234" y="769"/>
      <point x="1278.5" y="718.5" type="qcurve" smooth="yes" name="inserted"/>
      <point x="1323" y="668"/>
      <point x="1369" y="545"/>
      <point x="1369" y="477" type="qcurve" smooth="yes"/>
      <point x="1369" y="388"/>
      <point x="1295" y="239"/>
      <point x="1233.0" y="185.0" type="qcurve" smooth="yes" name="inserted"/>
      <point x="1171" y="131"/>
      <point x="1009" y="71"/>
      <point x="921" y="71" type="qcurve" smooth="yes"/>
      <point x="860" y="71"/>
      <point x="738" y="100"/>
      <point x="678" y="129" type="qcurve"/>
      <point x="621" y="101"/>
      <point x="501" y="72"/>
      <point x="439" y="72" type="qcurve" smooth="yes"/>
      <point x="349" y="72"/>
      <point x="191" y="132"/>
      <point x="132.0" y="184.5" type="qcurve" smooth="yes" name="inserted"/>
      <point x="73" y="237"/>
      <point x="4" y="379"/>
      <point x="4" y="462" type="qcurve" smooth="yes"/>
      <point x="4" y="520"/>
      <point x="51" y="643"/>
      <point x="94.5" y="696.0" type="qcurve" smooth="yes" name="inserted"/>
      <point x="138" y="749"/>
      <point x="262" y="827"/>
      <point x="338" y="840" type="qcurve"/>
      <point x="360" y="975"/>
      <point x="494" y="1204"/>
      <point x="591.5" y="1287.5" type="qcurve" smooth="yes" name="inserted"/>
      <point x="689" y="1371"/>
      <point x="933" y="1465"/>
      <point x="1065" y="1465" type="qcurve" smooth="yes"/>
      <point x="1142" y="1465"/>
      <point x="1294" y="1432"/>
      <point x="1365.5" y="1401.5" type="qcurve" smooth="yes" name="inserted"/>
      <point x="1437" y="1371"/>
      <point x="1567" y="1282"/>
    </contour>
  </outline>
</glyph>
<glyph name="uni0D8F" format="1">
  <advance width="2167"/>
  <unicode hex="0D8F"/>
  <outline>
    <contour>
      <point x="1830" y="243" type="line"/>
      <point x="1887.0" y="324.0" name="inserted"/>
      <point x="1944.0" y="521.5"/>
      <point x="1944" y="638" type="qcurve" smooth="yes"/>
      <point x="1944.0" y="788.0" name="inserted"/>
      <point x="1846.0" y="1000.0"/>
      <point x="1748" y="1062" type="qcurve"/>
      <point x="1751.0" y="1050.5" name="inserted"/>
      <point x="1754.0" y="1026.5"/>
      <point x="1754" y="1014" type="qcurve" smooth="yes"/>
      <point x="1754.0" y="982.5" name="inserted"/>
      <point x="1749.0" y="932.5"/>
      <point x="1744" y="914" type="qcurve"/>
      <point x="1600" y="937" type="line"/>
      <point x="1604.5" y="955.5" name="inserted"/>
      <point x="1609.0" y="986.0"/>
      <point x="1609" y="998" type="qcurve" smooth="yes"/>
      <point x="1609.0" y="1058.5" name="inserted"/>
      <point x="1530.5" y="1119.0"/>
      <point x="1452" y="1119" type="qcurve" smooth="yes"/>
      <point x="1365" y="1119"/>
      <point x="1267" y="1020"/>
      <point x="1263" y="932" type="qcurve"/>
      <point x="1294" y="932" type="line" smooth="yes"/>
      <point x="1556.5" y="932.0" name="inserted"/>
      <point x="1819.0" y="723.0"/>
      <point x="1819" y="514" type="qcurve" smooth="yes"/>
      <point x="1819" y="384"/>
      <point x="1724" y="184"/>
      <point x="1631.0" y="116.0" type="qcurve" smooth="yes" name="inserted"/>
      <point x="1538" y="48"/>
      <point x="1262" y="-22"/>
      <point x="1082" y="-22" type="qcurve" smooth="yes"/>
      <point x="902" y="-22"/>
      <point x="628" y="48"/>
      <point x="535.0" y="116.0" type="qcurve" smooth="yes" name="inserted"/>
      <point x="442" y="184"/>
      <point x="348" y="384"/>
      <point x="348" y="514" type="qcurve" smooth="yes"/>
      <point x="348" y="722"/>
      <point x="611" y="932"/>
      <point x="874" y="932" type="qcurve" smooth="yes"/>
      <point x="905" y="932" type="line"/>
      <point x="900" y="1023"/>
      <point x="801" y="1119"/>
      <point x="716" y="1119" type="qcurve" smooth="yes"/>
      <point x="637.0" y="1119.0" name="inserted"/>
      <point x="558.0" y="1058.5"/>
      <point x="558" y="998" type="qcurve" smooth="yes"/>
      <point x="558.0" y="986.0" name="inserted"/>
      <point x="563.0" y="955.5"/>
      <point x="568" y="937" type="qcurve"/>
      <point x="423" y="914" type="line"/>
      <point x="418.0" y="932.0" name="inserted"/>
      <point x="413.0" y="982.0"/>
      <point x="413" y="1014" type="qcurve" smooth="yes"/>
      <point x="413.0" y="1028.0" name="inserted"/>
      <point x="415.5" y="1052.0"/>
      <point x="418" y="1062" type="qcurve"/>
      <point x="321.0" y="1000.5" name="inserted"/>
      <point x="224.0" y="788.5"/>
      <point x="224" y="638" type="qcurve" smooth="yes"/>
      <point x="224.0" y="521.0" name="inserted"/>
      <point x="280.5" y="323.5"/>
      <point x="337" y="243" type="qcurve"/>
      <point x="203" y="170" type="line"/>
      <point x="140" y="275"/>
      <point x="74" y="518"/>
      <point x="74" y="646" type="qcurve" smooth="yes"/>
      <point x="74.0" y="739.5" name="inserted"/>
      <point x="111.0" y="901.5"/>
      <point x="148" y="970" type="qcurve" smooth="yes"/>
      <point x="223" y="1109"/>
      <point x="499" y="1254"/>
      <point x="679" y="1254" type="qcurve" smooth="yes"/>
      <point x="704" y="1254" type="line" smooth="yes"/>
      <point x="871" y="1254"/>
      <point x="1050" y="1066"/>
      <point x="1050" y="880" type="qcurve" smooth="yes"/>
      <point x="1050" y="797" type="line"/>
      <point x="875" y="797" type="line" smooth="yes"/>
      <point x="678" y="797"/>
      <point x="498" y="659"/>
      <point x="498" y="510" type="qcurve" smooth="yes"/>
      <point x="498.0" y="419.0" name="inserted"/>
      <point x="572.5" y="277.0"/>
      <point x="647" y="226" type="qcurve" smooth="yes"/>
      <point x="722.0" y="175.0" name="inserted"/>
      <point x="940.0" y="124.0"/>
      <point x="1083" y="124" type="qcurve" smooth="yes"/>
      <point x="1236" y="124"/>
      <point x="1457" y="181"/>
      <point x="1529.0" y="232.5" type="qcurve" smooth="yes" name="inserted"/>
      <point x="1601" y="284"/>
      <point x="1669" y="425"/>
      <point x="1669" y="509" type="qcurve" smooth="yes"/>
      <point x="1669" y="658"/>
      <point x="1491" y="797"/>
      <point x="1294" y="797" type="qcurve" smooth="yes"/>
      <point x="1117" y="797" type="line"/>
      <point x="1117" y="880" type="line" smooth="yes"/>
      <point x="1117" y="1062"/>
      <point x="1295" y="1254"/>
      <point x="1463" y="1254" type="qcurve" smooth="yes"/>
      <point x="1488" y="1254" type="line" smooth="yes"/>
      <point x="1578.0" y="1254.0" name="inserted"/>
      <point x="1738.0" y="1217.0"/>
      <point x="1808" y="1180" type="qcurve" smooth="yes"/>
      <point x="1948" y="1105"/>
      <point x="2094" y="831"/>
      <point x="2094" y="645" type="qcurve" smooth="yes"/>
      <point x="2094.0" y="517.0" name="inserted"/>
      <point x="2029.5" y="279.5"/>
      <point x="1965" y="170" type="qcurve"/>
    </contour>
  </outline>
</glyph>
<glyph name="uni0D91" format="1">
  <advance width="2397"/>
  <unicode hex="0D91"/>
  <outline>
    <contour>
      <point x="2088" y="967" type="qcurve" smooth="yes"/>
      <point x="2089" y="968"/>
      <point x="2094" y="978"/>
      <point x="2097.0" y="990.0" type="qcurve" smooth="yes" name="inserted"/>
      <point x="2100" y="1002"/>
      <point x="2105" y="1045"/>
      <point x="2106" y="1078" type="qcurve" smooth="yes"/>
      <point x="2106" y="1103"/>
      <point x="2106" y="1152"/>
      <point x="2105" y="1176" type="qcurve" smooth="yes"/>
      <point x="2105" y="1204" type="line"/>
      <point x="2105" y="1207" type="line"/>
      <point x="2097" y="1199"/>
      <point x="2079" y="1187"/>
      <point x="2071" y="1179" type="qcurve"/>
      <point x="2056" y="1167"/>
      <point x="2029" y="1145"/>
      <point x="2016" y="1134" type="qcurve"/>
      <point x="2001" y="1119"/>
      <point x="1977" y="1093"/>
      <point x="1969" y="1080" type="qcurve" smooth="yes"/>
      <point x="1961.0" y="1066.5" name="inserted"/>
      <point x="1951.0" y="1042.5"/>
      <point x="1949" y="1032" type="qcurve"/>
      <point x="1947" y="1015"/>
      <point x="1957" y="982"/>
      <point x="1969" y="969" type="qcurve" smooth="yes"/>
      <point x="1980" y="956"/>
      <point x="2011" y="941"/>
      <point x="2027" y="941" type="qcurve" smooth="yes"/>
      <point x="2045.5" y="941.0" name="inserted"/>
      <point x="2076.0" y="954.0"/>
    </contour>
    <contour>
      <point x="671" y="288" type="qcurve" smooth="yes"/>
      <point x="690" y="316"/>
      <point x="708" y="384"/>
      <point x="706" y="419" type="qcurve" smooth="yes"/>
      <point x="704" y="455"/>
      <point x="674" y="522"/>
      <point x="648" y="549" type="qcurve" smooth="yes"/>
      <point x="622" y="575"/>
      <point x="545" y="605"/>
      <point x="509" y="604" type="qcurve" smooth="yes"/>
      <point x="464" y="602"/>
      <point x="391" y="572"/>
      <point x="364.5" y="548.5" type="qcurve" smooth="yes" name="inserted"/>
      <point x="338" y="525"/>
      <point x="304" y="466"/>
      <point x="298" y="436" type="qcurve" smooth="yes"/>
      <point x="294" y="410"/>
      <point x="296" y="358"/>
      <point x="304" y="334" type="qcurve" smooth="yes"/>
      <point x="312.5" y="308.0" name="inserted"/>
      <point x="341.5" y="264.5"/>
      <point x="362" y="247" type="qcurve" smooth="yes"/>
      <point x="381.5" y="229.5" name="inserted"/>
      <point x="428.0" y="206.0"/>
      <point x="455" y="200" type="qcurve" smooth="yes"/>
      <point x="482" y="195"/>
      <point x="536" y="198"/>
      <point x="562" y="206" type="qcurve" smooth="yes"/>
      <point x="594" y="217"/>
      <point x="651" y="259"/>
    </contour>
    <contour>
      <point x="2302" y="1073" type="line" smooth="yes"/>
      <point x="2302" y="999"/>
      <point x="2297" y="852"/>
      <point x="2287.0" y="779.0" type="qcurve" smooth="yes" name="inserted"/>
      <point x="2277" y="706"/>
      <point x="2239" y="563"/>
      <point x="2207" y="494" type="qcurve" smooth="yes"/>
      <point x="2174" y="421"/>
      <point x="2076" y="289"/>
      <point x="2014.5" y="232.5" type="qcurve" smooth="yes" name="inserted"/>
      <point x="1953" y="176"/>
      <point x="1809" y="84"/>
      <point x="1730" y="52" type="qcurve" smooth="yes"/>
      <point x="1640" y="16"/>
      <point x="1452" y="-20"/>
      <point x="1356" y="-20" type="qcurve" smooth="yes"/>
      <point x="1320" y="-20"/>
      <point x="1248" y="-16"/>
      <point x="1212" y="-11" type="qcurve" smooth="yes"/>
      <point x="1124" y="5" type="line"/>
      <point x="1125" y="651" type="line"/>
      <point x="1093" y="648"/>
      <point x="1024" y="644"/>
      <point x="986" y="644" type="qcurve" smooth="yes"/>
      <point x="953" y="645"/>
      <point x="874" y="648"/>
      <point x="836" y="649" type="qcurve"/>
      <point x="871" y="602"/>
      <point x="911" y="490"/>
      <point x="916" y="433" type="qcurve" smooth="yes"/>
      <point x="920" y="362"/>
      <point x="883" y="227"/>
      <point x="843" y="169" type="qcurve" smooth="yes"/>
      <point x="804" y="112"/>
      <point x="692" y="29"/>
      <point x="625" y="6" type="qcurve" smooth="yes"/>
      <point x="594" y="-3"/>
      <point x="529" y="-13"/>
      <point x="496" y="-13" type="qcurve" smooth="yes"/>
      <point x="475" y="-13"/>
      <point x="434" y="-10"/>
      <point x="414" y="-5" type="qcurve" smooth="yes"/>
      <point x="361" y="6"/>
      <point x="264" y="54"/>
      <point x="223" y="89" type="qcurve" smooth="yes"/>
      <point x="181.5" y="125.5" name="inserted"/>
      <point x="122.0" y="214.5"/>
      <point x="104" y="267" type="qcurve" smooth="yes"/>
      <point x="87" y="319"/>
      <point x="81" y="427"/>
      <point x="94" y="481" type="qcurve" smooth="yes"/>
      <point x="111" y="553"/>
      <point x="192" y="691"/>
      <point x="257" y="740" type="qcurve" smooth="yes"/>
      <point x="316" y="785"/>
      <point x="462" y="836"/>
      <point x="540" y="850" type="qcurve" smooth="yes"/>
      <point x="621" y="866"/>
      <point x="781" y="862"/>
      <point x="858" y="859" type="qcurve" smooth="yes"/>
      <point x="892" y="857"/>
      <point x="956" y="855"/>
      <point x="988" y="853" type="qcurve"/>
      <point x="1045" y="853"/>
      <point x="1137" y="862"/>
      <point x="1175" y="873" type="qcurve" smooth="yes"/>
      <point x="1220" y="884"/>
      <point x="1294" y="921"/>
      <point x="1322" y="945" type="qcurve" smooth="yes"/>
      <point x="1345" y="965"/>
      <point x="1383" y="1022"/>
      <point x="1395.5" y="1054.0" type="qcurve" smooth="yes" name="inserted"/>
      <point x="1408" y="1086"/>
      <point x="1421" y="1152"/>
      <point x="1418" y="1182" type="qcurve"/>
      <point x="1618" y="1180" type="line"/>
      <point x="1622" y="1126"/>
      <point x="1605" y="1017"/>
      <point x="1584.5" y="966.0" type="qcurve" smooth="yes" name="inserted"/>
      <point x="1564" y="915"/>
      <point x="1502" y="824"/>
      <point x="1461" y="788" type="qcurve" smooth="yes"/>
      <point x="1430" y="762"/>
      <point x="1359" y="714"/>
      <point x="1318" y="697" type="qcurve"/>
      <point x="1318" y="175" type="line"/>
      <point x="1403" y="172"/>
      <point x="1576" y="201"/>
      <point x="1656" y="233" type="qcurve" smooth="yes"/>
      <point x="1784" y="284"/>
      <point x="1978" y="463"/>
      <point x="2031" y="576" type="qcurve" smooth="yes"/>
      <point x="2051" y="618"/>
      <point x="2077" y="705"/>
      <point x="2085" y="751" type="qcurve"/>
      <point x="2070" y="748"/>
      <point x="2039" y="746"/>
      <point x="2023" y="746" type="qcurve" smooth="yes"/>
      <point x="1965" y="747"/>
      <point x="1857" y="798"/>
      <point x="1819" y="842" type="qcurve" smooth="yes"/>
      <point x="1781" y="887"/>
      <point x="1748" y="1001"/>
      <point x="1757" y="1059" type="qcurve" smooth="yes"/>
      <point x="1760.5" y="1090.5" name="inserted"/>
      <point x="1785.0" y="1154.5"/>
      <point x="1806" y="1187" type="qcurve" smooth="yes"/>
      <point x="1821.0" y="1209.5" name="inserted"/>
      <point x="1860.0" y="1254.5"/>
      <point x="1884" y="1277" type="qcurve" smooth="yes"/>
      <point x="1900" y="1291"/>
      <point x="1932" y="1317"/>
      <point x="1948" y="1330" type="qcurve" smooth="yes"/>
      <point x="1968" y="1347"/>
      <point x="2007" y="1380"/>
      <point x="2023" y="1397" type="qcurve" smooth="yes"/>
      <point x="2044" y="1419"/>
      <point x="2073" y="1487"/>
      <point x="2083.0" y="1522.0" type="qcurve" smooth="yes" name="inserted"/>
      <point x="2093" y="1557"/>
      <point x="2102" y="1618"/>
      <point x="2102" y="1633" type="qcurve"/>
      <point x="2298" y="1633" type="line"/>
    </contour>
  </outline>
</glyph>
<glyph name="uni0D9C" format="1">
  <advance width="2143"/>
  <unicode hex="0D9C"/>
  <outline>
    <contour>
      <point x="663" y="-7" type="qcurve" smooth="yes"/>
      <point x="591" y="-7"/>
      <point x="449" y="34"/>
      <point x="385.0" y="71.5" type="qcurve" smooth="yes" name="inserted"/>
      <point x="321" y="109"/>
      <point x="211" y="215"/>
      <point x="171.0" y="280.0" type="qcurve" smooth="yes" name="inserted"/>
      <point x="131" y="345"/>
      <point x="85" y="495"/>
      <point x="85" y="577" type="qcurve" smooth="yes"/>
      <point x="85" y="713"/>
      <point x="168" y="957"/>
      <point x="250.5" y="1049.0" type="qcurve" smooth="yes" name="inserted"/>
      <point x="333" y="1141"/>
      <point x="580" y="1250"/>
      <point x="744" y="1250" type="qcurve" smooth="yes"/>
      <point x="769" y="1250" type="line"/>
      <point x="761" y="1032" type="line"/>
      <point x="746" y="1032" type="line" smooth="yes"/>
      <point x="642" y="1028"/>
      <point x="476" y="962"/>
      <point x="417.0" y="904.0" type="qcurve" smooth="yes" name="inserted"/>
      <point x="358" y="846"/>
      <point x="295" y="683"/>
      <point x="295" y="583" type="qcurve" smooth="yes"/>
      <point x="295" y="504"/>
      <point x="345" y="371"/>
      <point x="390.0" y="322.5" type="qcurve" smooth="yes" name="inserted"/>
      <point x="435" y="274"/>
      <point x="557" y="219"/>
      <point x="629" y="219" type="qcurve" smooth="yes"/>
      <point x="711" y="219"/>
      <point x="823" y="273"/>
      <point x="861.5" y="319.0" type="qcurve" smooth="yes" name="inserted"/>
      <point x="900" y="365"/>
      <point x="950" y="486"/>
      <point x="968.0" y="553.0" type="qcurve" smooth="yes" name="inserted"/>
      <point x="986" y="620"/>
      <point x="1017" y="758"/>
      <point x="1038" y="821" type="qcurve" smooth="yes"/>
      <point x="1064" y="900"/>
      <point x="1139" y="1057"/>
      <point x="1197.0" y="1119.0" type="qcurve" smooth="yes" name="inserted"/>
      <point x="1255" y="1181"/>
      <point x="1422" y="1259"/>
      <point x="1539" y="1259" type="qcurve" smooth="yes"/>
      <point x="1647" y="1259"/>
      <point x="1822" y="1189"/>
      <point x="1883.5" y="1117.0" type="qcurve" smooth="yes" name="inserted"/>
      <point x="1945" y="1045"/>
      <point x="2012" y="828"/>
      <point x="2012" y="681" type="qcurve" smooth="yes"/>
      <point x="2012" y="577"/>
      <point x="1992" y="415"/>
      <point x="1973.5" y="351.0" type="qcurve" smooth="yes" name="inserted"/>
      <point x="1955" y="287"/>
      <point x="1899" y="187"/>
      <point x="1863.5" y="146.5" type="qcurve" smooth="yes" name="inserted"/>
      <point x="1828" y="106"/>
      <point x="1741" y="37"/>
      <point x="1691" y="4" type="qcurve"/>
      <point x="1543" y="175" type="line"/>
      <point x="1601" y="214"/>
      <point x="1688" y="294"/>
      <point x="1716.5" y="350.0" type="qcurve" smooth="yes" name="inserted"/>
      <point x="1745" y="406"/>
      <point x="1773" y="564"/>
      <point x="1773" y="680" type="qcurve" smooth="yes"/>
      <point x="1773" y="755"/>
      <point x="1749" y="879"/>
      <point x="1720.5" y="923.5" type="qcurve" smooth="yes" name="inserted"/>
      <point x="1692" y="968"/>
      <point x="1596" y="1018"/>
      <point x="1524" y="1018" type="qcurve" smooth="yes"/>
      <point x="1480" y="1018"/>
      <point x="1399" y="954"/>
      <point x="1363.5" y="905.0" type="qcurve" smooth="yes" name="inserted"/>
      <point x="1328" y="856"/>
      <point x="1272" y="738"/>
      <point x="1253" y="683" type="qcurve" smooth="yes"/>
      <point x="1225" y="600"/>
      <point x="1178" y="434"/>
      <point x="1149.5" y="357.5" type="qcurve" smooth="yes" name="inserted"/>
      <point x="1121" y="281"/>
      <point x="1045" y="148"/>
      <point x="989.0" y="98.5" type="qcurve" smooth="yes" name="inserted"/>
      <point x="933" y="49"/>
      <point x="774" y="-7"/>
    </contour>
  </outline>
</glyph>
<glyph name="uni0DA0" format="1">
  <advance width="965"/>
  <unicode hex="0DA0"/>
  <outline>
    <contour>
      <point x="479" y="276" type="qcurve" smooth="yes"/>
      <point x="540" y="276" name="inserted"/>
      <point x="637" y="314"/>
      <point x="672" y="351" type="qcurve" smooth="yes"/>
      <point x="708" y="390" name="inserted"/>
      <point x="743" y="491"/>
      <point x="743" y="554" type="qcurve" smooth="yes"/>
      <point x="743" y="612" name="inserted"/>
      <point x="708" y="706"/>
      <point x="672" y="741" type="qcurve" smooth="yes"/>
      <point x="637" y="777" name="inserted"/>
      <point x="540" y="813"/>
      <point x="479" y="813" type="qcurve" smooth="yes"/>
      <point x="419" y="813" name="inserted"/>
      <point x="324" y="777"/>
      <point x="289" y="741" type="qcurve" smooth="yes"/>
      <point x="254" y="706" name="inserted"/>
      <point x="219" y="611"/>
      <point x="219" y="550" type="qcurve" smooth="yes"/>
      <point x="219" y="488" name="inserted"/>
      <point x="254" y="389"/>
      <point x="288" y="351" type="qcurve" smooth="yes"/>
      <point x="323" y="314" name="inserted"/>
      <point x="418" y="276"/>
    </contour>
    <contour>
      <point x="486" y="955" type="qcurve" smooth="yes"/>
      <point x="577" y="956"/>
      <point x="728" y="893"/>
      <point x="782" y="837" type="qcurve" smooth="yes" name="inserted"/>
      <point x="836" y="781"/>
      <point x="895" y="630"/>
      <point x="893" y="545" type="qcurve"/>
      <point x="893" y="455" name="inserted"/>
      <point x="836" y="307"/>
      <point x="779" y="249" type="qcurve" smooth="yes"/>
      <point x="723" y="192" name="inserted"/>
      <point x="573" y="134"/>
      <point x="479" y="134" type="qcurve" smooth="yes"/>
      <point x="388" y="133"/>
      <point x="237" y="195"/>
      <point x="183" y="251" type="qcurve" smooth="yes" name="inserted"/>
      <point x="128" y="306"/>
      <point x="68" y="457"/>
      <point x="69" y="545" type="qcurve" smooth="yes"/>
      <point x="69" y="603" name="inserted"/>
      <point x="96" y="708"/>
      <point x="122" y="755" type="qcurve" smooth="yes"/>
      <point x="176" y="852"/>
      <point x="366" y="955"/>
    </contour>
  </outline>
</glyph>
<glyph name="uni0DA2" format="1">
  <advance width="1738"/>
  <unicode hex="0DA2"/>
  <outline>
    <contour>
      <point x="1294" y="1029" type="qcurve" smooth="yes"/>
      <point x="1313" y="1029"/>
      <point x="1346" y="1044"/>
      <point x="1358.5" y="1056.0" type="qcurve" smooth="yes" name="inserted"/>
      <point x="1371" y="1068"/>
      <point x="1385" y="1101"/>
      <point x="1385" y="1119" type="qcurve" smooth="yes"/>
      <point x="1385" y="1159"/>
      <point x="1332" y="1213"/>
      <point x="1294" y="1213" type="qcurve" smooth="yes"/>
      <point x="1255" y="1213"/>
      <point x="1200" y="1159"/>
      <point x="1200" y="1119" type="qcurve" smooth="yes"/>
      <point x="1200" y="1101"/>
      <point x="1215" y="1068"/>
      <point x="1227.5" y="1056.0" type="qcurve" smooth="yes" name="inserted"/>
      <point x="1240" y="1044"/>
      <point x="1274" y="1029"/>
    </contour>
    <contour>
      <point x="1284" y="292" type="qcurve" smooth="yes"/>
      <point x="1258" y="290"/>
      <point x="1199" y="272"/>
      <point x="1167" y="255" type="qcurve"/>
      <point x="1172" y="241"/>
      <point x="1184" y="218"/>
      <point x="1193" y="210" type="qcurve"/>
      <point x="1210" y="187"/>
      <point x="1259" y="154"/>
      <point x="1288" y="149" type="qcurve"/>
      <point x="1311" y="143"/>
      <point x="1357" y="148"/>
      <point x="1374" y="156" type="qcurve"/>
      <point x="1382" y="162"/>
      <point x="1396" y="174"/>
      <point x="1400" y="181" type="qcurve"/>
      <point x="1406" y="188"/>
      <point x="1411" y="200"/>
      <point x="1413" y="205" type="qcurve"/>
      <point x="1413.0" y="215.0" name="inserted"/>
      <point x="1409.0" y="232.0"/>
      <point x="1405" y="239" type="qcurve" smooth="yes"/>
      <point x="1401" y="246"/>
      <point x="1391" y="262"/>
      <point x="1381" y="269" type="qcurve" smooth="yes"/>
      <point x="1363" y="281"/>
      <point x="1313" y="294"/>
    </contour>
    <contour>
      <point x="1769" y="1433" type="line"/>
      <point x="1722" y="1435"/>
      <point x="1632" y="1426"/>
      <point x="1584" y="1418" type="qcurve" smooth="yes"/>
      <point x="1530" y="1408"/>
      <point x="1442" y="1377"/>
      <point x="1403" y="1357" type="qcurve"/>
      <point x="1407" y="1355"/>
      <point x="1414" y="1352"/>
      <point x="1416" y="1348" type="qcurve"/>
      <point x="1458" y="1321"/>
      <point x="1525" y="1246"/>
      <point x="1546" y="1203" type="qcurve" smooth="yes"/>
      <point x="1581" y="1132"/>
      <point x="1587" y="972"/>
      <point x="1558" y="894" type="qcurve" smooth="yes"/>
      <point x="1533" y="825"/>
      <point x="1440" y="707"/>
      <point x="1375" y="663" type="qcurve" smooth="yes"/>
      <point x="1321" y="626"/>
      <point x="1193" y="572"/>
      <point x="1118" y="558" type="qcurve" smooth="yes"/>
      <point x="1064.5" y="548.0" name="inserted"/>
      <point x="936.5" y="538.5"/>
      <point x="862" y="539" type="qcurve" smooth="yes"/>
      <point x="842" y="539"/>
      <point x="801" y="540"/>
      <point x="780" y="542" type="qcurve"/>
      <point x="699" y="544"/>
      <point x="544" y="539"/>
      <point x="473" y="517" type="qcurve" smooth="yes"/>
      <point x="433" y="505"/>
      <point x="367" y="464"/>
      <point x="341" y="438" type="qcurve"/>
      <point x="318" y="412"/>
      <point x="292" y="348"/>
      <point x="294" y="318" type="qcurve" smooth="yes"/>
      <point x="295" y="300"/>
      <point x="304" y="267"/>
      <point x="315" y="250" type="qcurve" smooth="yes"/>
      <point x="324" y="235"/>
      <point x="351" y="206"/>
      <point x="369" y="194" type="qcurve"/>
      <point x="401" y="168"/>
      <point x="488" y="148"/>
      <point x="536" y="150" type="qcurve" smooth="yes"/>
      <point x="579.0" y="153.0" name="inserted"/>
      <point x="675.5" y="180.0"/>
      <point x="729" y="204" type="qcurve"/>
      <point x="778" y="230"/>
      <point x="874" y="292"/>
      <point x="919" y="325" type="qcurve" smooth="yes"/>
      <point x="929" y="333" type="line"/>
      <point x="961" y="356"/>
      <point x="1033" y="403"/>
      <point x="1071" y="423" type="qcurve" smooth="yes"/>
      <point x="1125" y="453"/>
      <point x="1224" y="484"/>
      <point x="1272" y="487" type="qcurve" smooth="yes"/>
      <point x="1336" y="492"/>
      <point x="1453" y="459"/>
      <point x="1500" y="423" type="qcurve" smooth="yes"/>
      <point x="1527" y="403"/>
      <point x="1569" y="353"/>
      <point x="1582" y="323" type="qcurve"/>
      <point x="1598" y="291"/>
      <point x="1610" y="223"/>
      <point x="1608" y="190" type="qcurve"/>
      <point x="1604.0" y="156.0" name="inserted"/>
      <point x="1581.0" y="94.5"/>
      <point x="1562" y="67" type="qcurve" smooth="yes"/>
      <point x="1543" y="41"/>
      <point x="1496" y="0"/>
      <point x="1467" y="-16" type="qcurve" smooth="yes"/>
      <point x="1435" y="-32"/>
      <point x="1361" y="-52"/>
      <point x="1320" y="-52" type="qcurve" smooth="yes"/>
      <point x="1300.0" y="-52.0" name="inserted"/>
      <point x="1262.0" y="-47.0"/>
      <point x="1244" y="-42" type="qcurve" smooth="yes"/>
      <point x="1184" y="-28"/>
      <point x="1079" y="37"/>
      <point x="1041" y="85" type="qcurve" smooth="yes"/>
      <point x="1030" y="99"/>
      <point x="1009" y="128"/>
      <point x="1001" y="144" type="qcurve"/>
      <point x="959" y="115"/>
      <point x="865" y="55"/>
      <point x="814" y="29" type="qcurve" smooth="yes"/>
      <point x="743" y="-5"/>
      <point x="610" y="-41"/>
      <point x="547" y="-46" type="qcurve" smooth="yes"/>
      <point x="466" y="-50"/>
      <point x="316" y="-10"/>
      <point x="256" y="32" type="qcurve" smooth="yes"/>
      <point x="223" y="56"/>
      <point x="167" y="114"/>
      <point x="148" y="149" type="qcurve" smooth="yes"/>
      <point x="125" y="187"/>
      <point x="99" y="265"/>
      <point x="98" y="307" type="qcurve" smooth="yes"/>
      <point x="94" y="379"/>
      <point x="146" y="514"/>
      <point x="197" y="569" type="qcurve" smooth="yes"/>
      <point x="238.0" y="616.0" name="inserted"/>
      <point x="348.5" y="683.5"/>
      <point x="418" y="704" type="qcurve" smooth="yes"/>
      <point x="464" y="719"/>
      <point x="557" y="734"/>
      <point x="603.5" y="736.5" type="qcurve" smooth="yes" name="inserted"/>
      <point x="650" y="739"/>
      <point x="741" y="737"/>
      <point x="785" y="736" type="qcurve" smooth="yes"/>
      <point x="807" y="736"/>
      <point x="844" y="735"/>
      <point x="864" y="735" type="qcurve" smooth="yes"/>
      <point x="930" y="734"/>
      <point x="1035" y="741"/>
      <point x="1082" y="751" type="qcurve" smooth="yes"/>
      <point x="1135" y="762"/>
      <point x="1225" y="799"/>
      <point x="1263" y="825" type="qcurve" smooth="yes"/>
      <point x="1279" y="836"/>
      <point x="1310" y="862"/>
      <point x="1324" y="879" type="qcurve"/>
      <point x="1317" y="877"/>
      <point x="1306" y="877"/>
      <point x="1300" y="877" type="qcurve" smooth="yes"/>
      <point x="1280" y="877" type="line"/>
      <point x="1232" y="882"/>
      <point x="1145" y="928"/>
      <point x="1113" y="966" type="qcurve" smooth="yes"/>
      <point x="1091" y="992"/>
      <point x="1061" y="1057"/>
      <point x="1056" y="1094" type="qcurve" smooth="yes"/>
      <point x="1053.0" y="1120.0" name="inserted"/>
      <point x="1053.5" y="1172.0"/>
      <point x="1057" y="1198" type="qcurve"/>
      <point x="1042" y="1191"/>
      <point x="1013" y="1170"/>
      <point x="1000" y="1159" type="qcurve" smooth="yes"/>
      <point x="962" y="1124"/>
      <point x="915" y="1028"/>
      <point x="913" y="977" type="qcurve"/>
      <point x="913" y="947" type="line"/>
      <point x="716" y="951" type="line"/>
      <point x="716" y="978" type="line" smooth="yes"/>
      <point x="714" y="1027"/>
      <point x="678" y="1114"/>
      <point x="645" y="1148" type="qcurve" smooth="yes"/>
      <point x="608" y="1186"/>
      <point x="506" y="1225"/>
      <point x="455" y="1223" type="qcurve" smooth="yes"/>
      <point x="426" y="1221"/>
      <point x="372" y="1204"/>
      <point x="350" y="1190" type="qcurve"/>
      <point x="334" y="1175"/>
      <point x="312" y="1138"/>
      <point x="310" y="1118" type="qcurve" smooth="yes"/>
      <point x="309" y="1102"/>
      <point x="320" y="1070"/>
      <point x="331" y="1059" type="qcurve"/>
      <point x="344" y="1048"/>
      <point x="378" y="1033"/>
      <point x="395" y="1033" type="qcurve" smooth="yes"/>
      <point x="415" y="1034"/>
      <point x="450" y="1051"/>
      <point x="462" y="1065" type="qcurve"/>
      <point x="609" y="938" type="line"/>
      <point x="570" y="892"/>
      <point x="461" y="840"/>
      <point x="401" y="838" type="qcurve" smooth="yes"/>
      <point x="341" y="837"/>
      <point x="233" y="880"/>
      <point x="194" y="922" type="qcurve" smooth="yes"/>
      <point x="152" y="964"/>
      <point x="111" y="1074"/>
      <point x="114" y="1133" type="qcurve" smooth="yes"/>
      <point x="118" y="1193"/>
      <point x="182" y="1307"/>
      <point x="236" y="1345" type="qcurve" smooth="yes"/>
      <point x="280" y="1378"/>
      <point x="386" y="1416"/>
      <point x="449" y="1418" type="qcurve" smooth="yes"/>
      <point x="541" y="1421"/>
      <point x="716" y="1351"/>
      <point x="782" y="1284" type="qcurve" smooth="yes"/>
      <point x="817" y="1249" type="line"/>
      <point x="828" y="1263"/>
      <point x="853" y="1292"/>
      <point x="867" y="1303" type="qcurve"/>
      <point x="931" y="1359"/>
      <point x="1088" y="1420"/>
      <point x="1172" y="1421" type="qcurve"/>
      <point x="1191" y="1441"/>
      <point x="1234" y="1480"/>
      <point x="1260" y="1497" type="qcurve" smooth="yes"/>
      <point x="1319" y="1539"/>
      <point x="1462" y="1595"/>
      <point x="1550" y="1611" type="qcurve" smooth="yes"/>
      <point x="1605" y="1622"/>
      <point x="1715" y="1631"/>
      <point x="1772" y="1629" type="qcurve"/>
    </contour>
  </outline>
</glyph>
<glyph name="uni0DA6" format="1">
  <advance width="2013"/>
  <unicode hex="0DA6"/>
  <outline>
    <contour>
      <point x="522" y="1350" type="qcurve" smooth="yes"/>
      <point x="536" y="1346"/>
      <point x="539" y="1315"/>
      <point x="535.0" y="1297.5" type="qcurve" smooth="yes" name="inserted"/>
      <point x="531" y="1280"/>
      <point x="520" y="1250"/>
      <point x="520" y="1246" type="qcurve" smooth="yes"/>
      <point x="520" y="1245"/>
      <point x="478" y="1237"/>
      <point x="447.0" y="1227.0" type="qcurve" smooth="yes" name="inserted"/>
      <point x="416" y="1217"/>
      <point x="343" y="1182"/>
      <point x="311.0" y="1155.5" type="qcurve" smooth="yes" name="inserted"/>
      <point x="279" y="1129"/>
      <point x="237" y="1055"/>
      <point x="236" y="1006" type="qcurve"/>
      <point x="236" y="933"/>
      <point x="237" y="779"/>
      <point x="238.0" y="716.0" type="qcurve" smooth="yes" name="inserted"/>
      <point x="239" y="653"/>
      <point x="241" y="572"/>
      <point x="242" y="572" type="qcurve"/>
      <point x="90" y="507" type="line"/>
      <point x="86.0" y="544.5" name="inserted"/>
      <point x="79.5" y="619.5"/>
      <point x="77" y="657" type="qcurve" smooth="yes"/>
      <point x="72" y="721"/>
      <point x="64" y="869"/>
      <point x="64" y="933" type="qcurve" smooth="yes"/>
      <point x="64" y="1058"/>
      <point x="119" y="1221"/>
      <point x="162.5" y="1269.5" type="qcurve" smooth="yes" name="inserted"/>
      <point x="206" y="1318"/>
      <point x="312" y="1361"/>
      <point x="363.0" y="1365.5" type="qcurve" smooth="yes" name="inserted"/>
      <point x="414" y="1370"/>
      <point x="499" y="1357"/>
    </contour>
    <contour>
      <point x="1464" y="1029" type="qcurve" smooth="yes"/>
      <point x="1483" y="1029"/>
      <point x="1516" y="1044"/>
      <point x="1528.5" y="1056.0" type="qcurve" smooth="yes" name="inserted"/>
      <point x="1541" y="1068"/>
      <point x="1555" y="1101"/>
      <point x="1555" y="1119" type="qcurve" smooth="yes"/>
      <point x="1555" y="1159"/>
      <point x="1502" y="1213"/>
      <point x="1464" y="1213" type="qcurve" smooth="yes"/>
      <point x="1425" y="1213"/>
      <point x="1370" y="1159"/>
      <point x="1370" y="1119" type="qcurve" smooth="yes"/>
      <point x="1370" y="1101"/>
      <point x="1385" y="1068"/>
      <point x="1397.5" y="1056.0" type="qcurve" smooth="yes" name="inserted"/>
      <point x="1410" y="1044"/>
      <point x="1444" y="1029"/>
    </contour>
    <contour>
      <point x="1454" y="292" type="qcurve" smooth="yes"/>
      <point x="1428" y="290"/>
      <point x="1369" y="272"/>
      <point x="1337" y="255" type="qcurve"/>
      <point x="1342" y="241"/>
      <point x="1354" y="218"/>
      <point x="1363" y="210" type="qcurve"/>
      <point x="1380" y="187"/>
      <point x="1429" y="154"/>
      <point x="1458" y="149" type="qcurve"/>
      <point x="1481" y="143"/>
      <point x="1527" y="148"/>
      <point x="1544" y="156" type="qcurve"/>
      <point x="1552" y="162"/>
      <point x="1566" y="174"/>
      <point x="1570" y="181" type="qcurve"/>
      <point x="1576" y="188"/>
      <point x="1581" y="200"/>
      <point x="1583" y="205" type="qcurve"/>
      <point x="1583.0" y="215.0" name="inserted"/>
      <point x="1579.0" y="232.0"/>
      <point x="1575" y="239" type="qcurve" smooth="yes"/>
      <point x="1571" y="246"/>
      <point x="1561" y="262"/>
      <point x="1551" y="269" type="qcurve" smooth="yes"/>
      <point x="1533" y="281"/>
      <point x="1483" y="294"/>
    </contour>
    <contour>
      <point x="1939" y="1433" type="line"/>
      <point x="1892" y="1435"/>
      <point x="1802" y="1426"/>
      <point x="1754" y="1418" type="qcurve" smooth="yes"/>
      <point x="1700" y="1408"/>
      <point x="1612" y="1377"/>
      <point x="1573" y="1357" type="qcurve"/>
      <point x="1577" y="1355"/>
      <point x="1584" y="1352"/>
      <point x="1586" y="1348" type="qcurve"/>
      <point x="1628" y="1321"/>
      <point x="1695" y="1246"/>
      <point x="1716" y="1203" type="qcurve" smooth="yes"/>
      <point x="1751" y="1132"/>
      <point x="1757" y="972"/>
      <point x="1728" y="894" type="qcurve" smooth="yes"/>
      <point x="1703" y="825"/>
      <point x="1610" y="707"/>
      <point x="1545" y="663" type="qcurve" smooth="yes"/>
      <point x="1491" y="626"/>
      <point x="1363" y="572"/>
      <point x="1288" y="558" type="qcurve" smooth="yes"/>
      <point x="1234.5" y="548.0" name="inserted"/>
      <point x="1106.5" y="538.5"/>
      <point x="1032" y="539" type="qcurve" smooth="yes"/>
      <point x="1012" y="539"/>
      <point x="971" y="540"/>
      <point x="950" y="542" type="qcurve"/>
      <point x="869" y="544"/>
      <point x="714" y="539"/>
      <point x="643" y="517" type="qcurve" smooth="yes"/>
      <point x="603" y="505"/>
      <point x="537" y="464"/>
      <point x="511" y="438" type="qcurve"/>
      <point x="488" y="412"/>
      <point x="462" y="348"/>
      <point x="464" y="318" type="qcurve" smooth="yes"/>
      <point x="465" y="300"/>
      <point x="474" y="267"/>
      <point x="485" y="250" type="qcurve" smooth="yes"/>
      <point x="494" y="235"/>
      <point x="521" y="206"/>
      <point x="539" y="194" type="qcurve"/>
      <point x="571" y="168"/>
      <point x="658" y="148"/>
      <point x="706" y="150" type="qcurve" smooth="yes"/>
      <point x="749.0" y="153.0" name="inserted"/>
      <point x="845.5" y="180.0"/>
      <point x="899" y="204" type="qcurve"/>
      <point x="948" y="230"/>
      <point x="1044" y="292"/>
      <point x="1089" y="325" type="qcurve" smooth="yes"/>
      <point x="1099" y="333" type="line"/>
      <point x="1131" y="356"/>
      <point x="1203" y="403"/>
      <point x="1241" y="423" type="qcurve" smooth="yes"/>
      <point x="1295" y="453"/>
      <point x="1394" y="484"/>
      <point x="1442" y="487" type="qcurve" smooth="yes"/>
      <point x="1506" y="492"/>
      <point x="1623" y="459"/>
      <point x="1670" y="423" type="qcurve" smooth="yes"/>
      <point x="1697" y="403"/>
      <point x="1739" y="353"/>
      <point x="1752" y="323" type="qcurve"/>
      <point x="1768" y="291"/>
      <point x="1780" y="223"/>
      <point x="1778" y="190" type="qcurve"/>
      <point x="1774.0" y="156.0" name="inserted"/>
      <point x="1751.0" y="94.5"/>
      <point x="1732" y="67" type="qcurve" smooth="yes"/>
      <point x="1713" y="41"/>
      <point x="1666" y="0"/>
      <point x="1637" y="-16" type="qcurve" smooth="yes"/>
      <point x="1605" y="-32"/>
      <point x="1531" y="-52"/>
      <point x="1490" y="-52" type="qcurve" smooth="yes"/>
      <point x="1470.0" y="-52.0" name="inserted"/>
      <point x="1432.0" y="-47.0"/>
      <point x="1414" y="-42" type="qcurve" smooth="yes"/>
      <point x="1354" y="-28"/>
      <point x="1249" y="37"/>
      <point x="1211" y="85" type="qcurve" smooth="yes"/>
      <point x="1200" y="99"/>
      <point x="1179" y="128"/>
      <point x="1171" y="144" type="qcurve"/>
      <point x="1129" y="115"/>
      <point x="1035" y="55"/>
      <point x="984" y="29" type="qcurve" smooth="yes"/>
      <point x="913" y="-5"/>
      <point x="780" y="-41"/>
      <point x="717" y="-46" type="qcurve" smooth="yes"/>
      <point x="636" y="-50"/>
      <point x="486" y="-10"/>
      <point x="426" y="32" type="qcurve" smooth="yes"/>
      <point x="393" y="56"/>
      <point x="337" y="114"/>
      <point x="318" y="149" type="qcurve" smooth="yes"/>
      <point x="295" y="187"/>
      <point x="269" y="265"/>
      <point x="268" y="307" type="qcurve" smooth="yes"/>
      <point x="264" y="379"/>
      <point x="316" y="514"/>
      <point x="367" y="569" type="qcurve" smooth="yes"/>
      <point x="408.0" y="616.0" name="inserted"/>
      <point x="518.5" y="683.5"/>
      <point x="588" y="704" type="qcurve" smooth="yes"/>
      <point x="634" y="719"/>
      <point x="727" y="734"/>
      <point x="773.5" y="736.5" type="qcurve" smooth="yes" name="inserted"/>
      <point x="820" y="739"/>
      <point x="911" y="737"/>
      <point x="955" y="736" type="qcurve" smooth="yes"/>
      <point x="977" y="736"/>
      <point x="1014" y="735"/>
      <point x="1034" y="735" type="qcurve" smooth="yes"/>
      <point x="1100" y="734"/>
      <point x="1205" y="741"/>
      <point x="1252" y="751" type="qcurve" smooth="yes"/>
      <point x="1305" y="762"/>
      <point x="1395" y="799"/>
      <point x="1433" y="825" type="qcurve" smooth="yes"/>
      <point x="1449" y="836"/>
      <point x="1480" y="862"/>
      <point x="1494" y="879" type="qcurve"/>
      <point x="1487" y="877"/>
      <point x="1476" y="877"/>
      <point x="1470" y="877" type="qcurve" smooth="yes"/>
      <point x="1450" y="877" type="line"/>
      <point x="1402" y="882"/>
      <point x="1315" y="928"/>
      <point x="1283" y="966" type="qcurve" smooth="yes"/>
      <point x="1261" y="992"/>
      <point x="1231" y="1057"/>
      <point x="1226" y="1094" type="qcurve" smooth="yes"/>
      <point x="1223.0" y="1120.0" name="inserted"/>
      <point x="1223.5" y="1172.0"/>
      <point x="1227" y="1198" type="qcurve"/>
      <point x="1212" y="1191"/>
      <point x="1183" y="1170"/>
      <point x="1170" y="1159" type="qcurve" smooth="yes"/>
      <point x="1132" y="1124"/>
      <point x="1085" y="1028"/>
      <point x="1083" y="977" type="qcurve"/>
      <point x="1083" y="947" type="line"/>
      <point x="886" y="951" type="line"/>
      <point x="886" y="978" type="line" smooth="yes"/>
      <point x="884" y="1027"/>
      <point x="848" y="1114"/>
      <point x="815" y="1148" type="qcurve" smooth="yes"/>
      <point x="778" y="1186"/>
      <point x="676" y="1225"/>
      <point x="625" y="1223" type="qcurve" smooth="yes"/>
      <point x="596" y="1221"/>
      <point x="542" y="1204"/>
      <point x="520" y="1190" type="qcurve"/>
      <point x="504" y="1175"/>
      <point x="482" y="1138"/>
      <point x="480" y="1118" type="qcurve" smooth="yes"/>
      <point x="479" y="1102"/>
      <point x="490" y="1070"/>
      <point x="501" y="1059" type="qcurve"/>
      <point x="514" y="1048"/>
      <point x="548" y="1033"/>
      <point x="565" y="1033" type="qcurve" smooth="yes"/>
      <point x="585" y="1034"/>
      <point x="620" y="1051"/>
      <point x="632" y="1065" type="qcurve"/>
      <point x="779" y="938" type="line"/>
      <point x="740" y="892"/>
      <point x="631" y="840"/>
      <point x="571" y="838" type="qcurve" smooth="yes"/>
      <point x="511" y="837"/>
      <point x="403" y="880"/>
      <point x="364" y="922" type="qcurve" smooth="yes"/>
      <point x="322" y="964"/>
      <point x="281" y="1074"/>
      <point x="284" y="1133" type="qcurve" smooth="yes"/>
      <point x="288" y="1193"/>
      <point x="352" y="1307"/>
      <point x="406" y="1345" type="qcurve" smooth="yes"/>
      <point x="450" y="1378"/>
      <point x="556" y="1416"/>
      <point x="619" y="1418" type="qcurve" smooth="yes"/>
      <point x="711" y="1421"/>
      <point x="886" y="1351"/>
      <point x="952" y="1284" type="qcurve" smooth="yes"/>
      <point x="987" y="1249" type="line"/>
      <point x="998" y="1263"/>
      <point x="1023" y="1292"/>
      <point x="1037" y="1303" type="qcurve"/>
      <point x="1101" y="1359"/>
      <point x="1258" y="1420"/>
      <point x="1342" y="1421" type="qcurve"/>
      <point x="1361" y="1441"/>
      <point x="1404" y="1480"/>
      <point x="1430" y="1497" type="qcurve" smooth="yes"/>
      <point x="1489" y="1539"/>
      <point x="1632" y="1595"/>
      <point x="1720" y="1611" type="qcurve" smooth="yes"/>
      <point x="1775" y="1622"/>
      <point x="1885" y="1631"/>
      <point x="1942" y="1629" type="qcurve"/>
    </contour>
  </outline>
</glyph>
<glyph name="uni0DA7" format="1">
  <advance width="1880"/>
  <unicode hex="0DA7"/>
  <outline>
    <contour>
      <point x="1609" y="952" type="qcurve" smooth="yes"/>
      <point x="1693" y="751"/>
      <point x="1774" y="321"/>
      <point x="1769" y="104" type="qcurve" smooth="yes"/>
      <point x="1768" y="-5" type="line"/>
      <point x="75" y="0" type="line"/>
      <point x="73" y="767" type="line"/>
      <point x="293" y="767" type="line"/>
      <point x="295" y="219" type="line"/>
      <point x="1549" y="215" type="line"/>
      <point x="1541" y="384"/>
      <point x="1471" y="712"/>
      <point x="1407" y="867" type="qcurve" smooth="yes"/>
      <point x="1331" y="1050"/>
      <point x="1104" y="1380"/>
      <point x="960" y="1517" type="qcurve"/>
      <point x="1110" y="1675" type="line"/>
      <point x="1271" y="1523"/>
      <point x="1524" y="1156"/>
    </contour>
  </outline>
</glyph>
<glyph name="uni0DA9" format="1">
  <advance width="1931"/>
  <unicode hex="0DA9"/>
  <outline>
    <contour>
      <point x="1810" y="1046" type="qcurve" smooth="yes"/>
      <point x="1847" y="921"/>
      <point x="1864" y="650"/>
      <point x="1841" y="511" type="qcurve" smooth="yes"/>
      <point x="1827.0" y="418.0" name="inserted"/>
      <point x="1774.0" y="263.0"/>
      <point x="1735" y="201" type="qcurve" smooth="yes"/>
      <point x="1681" y="116"/>
      <point x="1536" y="5"/>
      <point x="1451" y="-18" type="qcurve" smooth="yes"/>
      <point x="1381" y="-37"/>
      <point x="1235" y="-25"/>
      <point x="1168" y="4" type="qcurve" smooth="yes"/>
      <point x="1129" y="20"/>
      <point x="1062" y="63"/>
      <point x="1030" y="92" type="qcurve"/>
      <point x="981" y="45"/>
      <point x="859" y="-17"/>
      <point x="790" y="-30" type="qcurve"/>
      <point x="773" y="-32"/>
      <point x="737" y="-35"/>
      <point x="719" y="-35" type="qcurve" smooth="yes"/>
      <point x="670" y="-35"/>
      <point x="576" y="-15"/>
      <point x="531" y="5" type="qcurve" smooth="yes"/>
      <point x="472" y="32"/>
      <point x="371" y="120"/>
      <point x="336" y="178" type="qcurve" smooth="yes"/>
      <point x="300" y="234"/>
      <point x="264" y="363"/>
      <point x="266" y="429" type="qcurve" smooth="yes"/>
      <point x="266" y="458"/>
      <point x="276" y="515"/>
      <point x="284" y="542" type="qcurve"/>
      <point x="61" y="544" type="line"/>
      <point x="62" y="751" type="line"/>
      <point x="811" y="750" type="line" smooth="yes"/>
      <point x="837" y="750"/>
      <point x="882" y="752"/>
      <point x="902" y="758" type="qcurve" smooth="yes"/>
      <point x="915" y="762"/>
      <point x="938" y="775"/>
      <point x="946" y="784" type="qcurve"/>
      <point x="952" y="792"/>
      <point x="958" y="814"/>
      <point x="956" y="824" type="qcurve"/>
      <point x="956" y="835"/>
      <point x="946" y="856"/>
      <point x="937" y="864" type="qcurve"/>
      <point x="925" y="880"/>
      <point x="882" y="895"/>
      <point x="859" y="894" type="qcurve" smooth="yes"/>
      <point x="827" y="894"/>
      <point x="769" y="866"/>
      <point x="749" y="843" type="qcurve"/>
      <point x="589" y="977" type="line"/>
      <point x="638" y="1035"/>
      <point x="778" y="1101"/>
      <point x="855" y="1103" type="qcurve" smooth="yes"/>
      <point x="921" y="1104"/>
      <point x="1044" y="1055"/>
      <point x="1089" y="1009" type="qcurve" smooth="yes"/>
      <point x="1122" y="974"/>
      <point x="1162" y="887"/>
      <point x="1164" y="838" type="qcurve" smooth="yes"/>
      <point x="1168" y="790"/>
      <point x="1140" y="694"/>
      <point x="1108" y="655" type="qcurve" smooth="yes"/>
      <point x="1081" y="621"/>
      <point x="1002" y="569"/>
      <point x="956" y="558" type="qcurve"/>
      <point x="921" y="546"/>
      <point x="852" y="542"/>
      <point x="817" y="542" type="qcurve" smooth="yes"/>
      <point x="811" y="542" type="line"/>
      <point x="510" y="542" type="line"/>
      <point x="493" y="515"/>
      <point x="475" y="456"/>
      <point x="474" y="424" type="qcurve"/>
      <point x="474" y="388"/>
      <point x="493" y="317"/>
      <point x="511" y="288" type="qcurve" smooth="yes"/>
      <point x="530" y="258"/>
      <point x="585" y="210"/>
      <point x="619" y="196" type="qcurve"/>
      <point x="651" y="180"/>
      <point x="722" y="172"/>
      <point x="758" y="178" type="qcurve" smooth="yes"/>
      <point x="814" y="186"/>
      <point x="908" y="255"/>
      <point x="934" y="306" type="qcurve"/>
      <point x="1116" y="314" type="line"/>
      <point x="1119" y="309"/>
      <point x="1123" y="301"/>
      <point x="1126" y="297" type="qcurve" smooth="yes"/>
      <point x="1149" y="263"/>
      <point x="1213" y="210"/>
      <point x="1248" y="196" type="qcurve" smooth="yes"/>
      <point x="1285" y="180"/>
      <point x="1362" y="174"/>
      <point x="1397" y="183" type="qcurve" smooth="yes"/>
      <point x="1443" y="195"/>
      <point x="1526" y="261"/>
      <point x="1557" y="310" type="qcurve" smooth="yes"/>
      <point x="1586" y="355"/>
      <point x="1623" y="471"/>
      <point x="1636" y="544" type="qcurve" smooth="yes"/>
      <point x="1655" y="659"/>
      <point x="1640" y="883"/>
      <point x="1611" y="985" type="qcurve" smooth="yes"/>
      <point x="1593" y="1044"/>
      <point x="1554" y="1140"/>
      <point x="1530.0" y="1180.0" type="qcurve" smooth="yes" name="inserted"/>
      <point x="1506" y="1220"/>
      <point x="1447" y="1287"/>
      <point x="1410" y="1318" type="qcurve" smooth="yes"/>
      <point x="1356" y="1364"/>
      <point x="1253" y="1425"/>
      <point x="1196.5" y="1444.0" type="qcurve" smooth="yes" name="inserted"/>
      <point x="1140" y="1463"/>
      <point x="1008" y="1479"/>
      <point x="925" y="1479" type="qcurve" smooth="yes"/>
      <point x="874" y="1479"/>
      <point x="765" y="1453"/>
      <point x="710.5" y="1430.5" type="qcurve" smooth="yes" name="inserted"/>
      <point x="656" y="1408"/>
      <point x="552" y="1348"/>
      <point x="506.0" y="1313.5" type="qcurve" smooth="yes" name="inserted"/>
      <point x="460" y="1279"/>
      <point x="383" y="1204"/>
      <point x="357" y="1168" type="qcurve"/>
      <point x="188" y="1287" type="line"/>
      <point x="223" y="1336"/>
      <point x="320" y="1434"/>
      <point x="378.0" y="1478.5" type="qcurve" smooth="yes" name="inserted"/>
      <point x="436" y="1523"/>
      <point x="569" y="1600"/>
      <point x="639.0" y="1628.0" type="qcurve" smooth="yes" name="inserted"/>
      <point x="709" y="1656"/>
      <point x="854" y="1688"/>
      <point x="925" y="1688" type="qcurve" smooth="yes"/>
      <point x="1028" y="1688"/>
      <point x="1195" y="1666"/>
      <point x="1268.0" y="1641.0" type="qcurve" smooth="yes" name="inserted"/>
      <point x="1341" y="1616"/>
      <point x="1475" y="1536"/>
      <point x="1544" y="1478" type="qcurve" smooth="yes"/>
      <point x="1604" y="1427"/>
      <point x="1690" y="1320"/>
      <point x="1721.0" y="1265.5" type="qcurve" smooth="yes" name="inserted"/>
      <point x="1752" y="1211"/>
      <point x="1793" y="1100"/>
    </contour>
  </outline>
</glyph>
<glyph name="uni0DAD" format="1">
  <advance width="2258"/>
  <unicode hex="0DAD"/>
  <outline>
    <contour>
      <point x="981" y="148" type="line"/>
      <point x="1000" y="148"/>
      <point x="1047" y="158"/>
      <point x="1067.5" y="174.0" type="qcurve" smooth="yes" name="inserted"/>
      <point x="1088" y="190"/>
      <point x="1115" y="250"/>
      <point x="1115" y="299" type="qcurve" smooth="yes"/>
      <point x="1115" y="323"/>
      <point x="1115" y="403"/>
      <point x="1115.5" y="451.5" type="qcurve" smooth="yes" name="inserted"/>
      <point x="1116" y="500"/>
      <point x="1116" y="606"/>
      <point x="1116" y="656" type="qcurve"/>
      <point x="846" y="655" type="line" smooth="yes"/>
      <point x="790" y="655"/>
      <point x="660" y="650"/>
      <point x="595.5" y="641.0" type="qcurve" smooth="yes" name="inserted"/>
      <point x="531" y="632"/>
      <point x="412" y="597"/>
      <point x="366.0" y="567.5" type="qcurve" smooth="yes" name="inserted"/>
      <point x="320" y="538"/>
      <point x="265" y="450"/>
      <point x="265" y="388" type="qcurve" smooth="yes"/>
      <point x="265" y="334"/>
      <point x="314" y="245"/>
      <point x="355.5" y="213.5" type="qcurve" smooth="yes" name="inserted"/>
      <point x="397" y="182"/>
      <point x="503" y="147"/>
      <point x="560" y="147" type="qcurve" smooth="yes"/>
      <point x="981" y="147" type="line"/>
    </contour>
    <contour>
      <point x="2060" y="352" type="qcurve" smooth="yes"/>
      <point x="2060" y="233"/>
      <point x="1980" y="21"/>
      <point x="1903.5" y="-67.5" type="qcurve" smooth="yes" name="inserted"/>
      <point x="1827" y="-156"/>
      <point x="1606" y="-294"/>
      <point x="1464" y="-339" type="qcurve" smooth="yes"/>
      <point x="1376" y="-368"/>
      <point x="1199" y="-403"/>
      <point x="1111.5" y="-418.0" type="qcurve" smooth="yes" name="inserted"/>
      <point x="1024" y="-433"/>
      <point x="854" y="-463"/>
      <point x="775" y="-487" type="qcurve" smooth="yes"/>
      <point x="632" y="-529"/>
      <point x="368" y="-677"/>
      <point x="258" y="-780" type="qcurve"/>
      <point x="137" y="-649" type="line"/>
      <point x="262" y="-532"/>
      <point x="559" y="-361"/>
      <point x="724" y="-312" type="qcurve" smooth="yes"/>
      <point x="811" y="-287"/>
      <point x="987" y="-253"/>
      <point x="1074.0" y="-238.0" type="qcurve" smooth="yes" name="inserted"/>
      <point x="1161" y="-223"/>
      <point x="1330" y="-192"/>
      <point x="1411" y="-168" type="qcurve" smooth="yes"/>
      <point x="1525" y="-129"/>
      <point x="1700" y="-24"/>
      <point x="1759.5" y="39.5" type="qcurve" smooth="yes" name="inserted"/>
      <point x="1819" y="103"/>
      <point x="1880" y="251"/>
      <point x="1880" y="332" type="qcurve" smooth="yes"/>
      <point x="1880" y="399"/>
      <point x="1834" y="511"/>
      <point x="1788.5" y="553.0" type="qcurve" smooth="yes" name="inserted"/>
      <point x="1743" y="595"/>
      <point x="1609" y="647"/>
      <point x="1521" y="655" type="qcurve"/>
      <point x="1297" y="656" type="line"/>
      <point x="1297" y="299" type="line" smooth="yes"/>
      <point x="1297" y="216"/>
      <point x="1246" y="94"/>
      <point x="1204.0" y="53.0" type="qcurve" smooth="yes" name="inserted"/>
      <point x="1162" y="12"/>
      <point x="1055" y="-30"/>
      <point x="999" y="-32" type="qcurve"/>
      <point x="999" y="-34" type="line"/>
      <point x="890" y="-34"/>
      <point x="672" y="-33"/>
      <point x="553" y="-33" type="qcurve" smooth="yes"/>
      <point x="455" y="-33"/>
      <point x="284" y="33"/>
      <point x="220.5" y="90.5" type="qcurve" smooth="yes" name="inserted"/>
      <point x="157" y="148"/>
      <point x="84" y="302"/>
      <point x="84" y="391" type="qcurve" smooth="yes"/>
      <point x="84" y="491"/>
      <point x="157" y="635"/>
      <point x="217.5" y="684.0" type="qcurve" smooth="yes" name="inserted"/>
      <point x="278" y="733"/>
      <point x="436" y="792"/>
      <point x="520.5" y="807.5" type="qcurve" smooth="yes" name="inserted"/>
      <point x="605" y="823"/>
      <point x="773" y="833"/>
      <point x="845" y="834" type="qcurve" smooth="yes"/>
      <point x="1116" y="835" type="line"/>
      <point x="1116" y="888" type="line" smooth="yes"/>
      <point x="1116" y="934"/>
      <point x="1134" y="1036"/>
      <point x="1147.5" y="1084.0" type="qcurve" smooth="yes" name="inserted"/>
      <point x="1161" y="1132"/>
      <point x="1191" y="1216"/>
      <point x="1204" y="1244" type="qcurve"/>
      <point x="861" y="1243" type="line" smooth="yes"/>
      <point x="758" y="1243"/>
      <point x="654" y="1181"/>
      <point x="654" y="1136" type="qcurve" smooth="yes"/>
      <point x="654" y="1104"/>
      <point x="701" y="1063"/>
      <point x="733" y="1063" type="qcurve" smooth="yes"/>
      <point x="748" y="1063"/>
      <point x="775" y="1077"/>
      <point x="785.0" y="1088.5" type="qcurve" smooth="yes" name="inserted"/>
      <point x="795" y="1100"/>
      <point x="807" y="1129"/>
      <point x="807" y="1144" type="qcurve"/>
      <point x="989" y="1149" type="line"/>
      <point x="989" y="1093"/>
      <point x="948" y="996"/>
      <point x="912.5" y="960.0" type="qcurve" smooth="yes" name="inserted"/>
      <point x="877" y="924"/>
      <point x="782" y="883"/>
      <point x="727" y="883" type="qcurve" smooth="yes"/>
      <point x="675" y="883"/>
      <point x="582" y="923"/>
      <point x="547.5" y="958.0" type="qcurve" smooth="yes" name="inserted"/>
      <point x="513" y="993"/>
      <point x="472" y="1085"/>
      <point x="472" y="1138" type="qcurve" smooth="yes"/>
      <point x="472" y="1210"/>
      <point x="538" y="1316"/>
      <point x="589.5" y="1351.5" type="qcurve" smooth="yes" name="inserted"/>
      <point x="641" y="1387"/>
      <point x="767" y="1421"/>
      <point x="827" y="1421" type="qcurve" smooth="yes"/>
      <point x="1477" y="1420" type="line"/>
      <point x="1436" y="1327"/>
      <point x="1370" y="1174"/>
      <point x="1347.0" y="1110.5" type="qcurve" smooth="yes" name="inserted"/>
      <point x="1324" y="1047"/>
      <point x="1298" y="939"/>
      <point x="1298" y="890" type="qcurve" smooth="yes"/>
      <point x="1298" y="888"/>
      <point x="1298" y="867"/>
      <point x="1297" y="838" type="qcurve"/>
      <point x="1534" y="834" type="line"/>
      <point x="1651" y="825"/>
      <point x="1841" y="748"/>
      <point x="1909.5" y="685.0" type="qcurve" smooth="yes" name="inserted"/>
      <point x="1978" y="622"/>
      <point x="2055" y="453"/>
    </contour>
  </outline>
</glyph>
<glyph name="uni0DAF" format="1">
  <advance width="1181"/>
  <unicode hex="0DAF"/>
  <outline>
    <contour>
      <point x="1273" y="-421" type="line"/>
      <point x="1206" y="-492"/>
      <point x="1026" y="-568"/>
      <point x="929" y="-568" type="qcurve" smooth="yes"/>
      <point x="848" y="-568"/>
      <point x="709" y="-515"/>
      <point x="657.5" y="-468.5" type="qcurve" smooth="yes" name="inserted"/>
      <point x="606" y="-422"/>
      <point x="547" y="-294"/>
      <point x="547" y="-219" type="qcurve" smooth="yes"/>
      <point x="547" y="-179"/>
      <point x="567" y="-100"/>
      <point x="587" y="-63" type="qcurve"/>
      <point x="563" y="-65"/>
      <point x="513" y="-69"/>
      <point x="486" y="-69" type="qcurve" smooth="yes"/>
      <point x="386" y="-69"/>
      <point x="221" y="-5"/>
      <point x="161.5" y="51.0" type="qcurve" smooth="yes" name="inserted"/>
      <point x="102" y="107"/>
      <point x="37" y="257"/>
      <point x="37" y="344" type="qcurve" smooth="yes"/>
      <point x="37.0" y="392.5" name="inserted"/>
      <point x="58.0" y="484.0"/>
      <point x="79" y="527" type="qcurve" smooth="yes"/>
      <point x="145" y="661"/>
      <point x="404" y="783"/>
      <point x="593" y="783" type="qcurve" smooth="yes"/>
      <point x="646" y="783"/>
      <point x="746" y="780"/>
      <point x="797" y="780" type="qcurve"/>
      <point x="797" y="844"/>
      <point x="750" y="952"/>
      <point x="710.5" y="991.5" type="qcurve" smooth="yes" name="inserted"/>
      <point x="671" y="1031"/>
      <point x="566" y="1075"/>
      <point x="509" y="1075" type="qcurve" smooth="yes"/>
      <point x="449" y="1075"/>
      <point x="338" y="1028"/>
      <point x="299" y="984" type="qcurve"/>
      <point x="172" y="1103" type="line"/>
      <point x="238" y="1174"/>
      <point x="415" y="1249"/>
      <point x="511" y="1249" type="qcurve" smooth="yes"/>
      <point x="612" y="1249"/>
      <point x="785" y="1170"/>
      <point x="848.0" y="1099.5" type="qcurve" smooth="yes" name="inserted"/>
      <point x="911" y="1029"/>
      <point x="983" y="831"/>
      <point x="983" y="713" type="qcurve" smooth="yes"/>
      <point x="983.0" y="684.0" name="inserted"/>
      <point x="977.0" y="631.0"/>
      <point x="971" y="607" type="qcurve"/>
      <point x="896" y="607" type="line" smooth="yes"/>
      <point x="862" y="607"/>
      <point x="776" y="608"/>
      <point x="731" y="608" type="qcurve" smooth="yes"/>
      <point x="692" y="608"/>
      <point x="615" y="608"/>
      <point x="583.0" y="607.5" type="qcurve" smooth="yes" name="inserted"/>
      <point x="551" y="607"/>
      <point x="504" y="605"/>
      <point x="494" y="604" type="qcurve" smooth="yes"/>
      <point x="425" y="597"/>
      <point x="319" y="552"/>
      <point x="283.0" y="517.5" type="qcurve" smooth="yes" name="inserted"/>
      <point x="247" y="483"/>
      <point x="211" y="394"/>
      <point x="211" y="343" type="qcurve" smooth="yes"/>
      <point x="211" y="287"/>
      <point x="253" y="198"/>
      <point x="290.0" y="167.5" type="qcurve" smooth="yes" name="inserted"/>
      <point x="327" y="137"/>
      <point x="428" y="105"/>
      <point x="488" y="105" type="qcurve" smooth="yes"/>
      <point x="522" y="105"/>
      <point x="597" y="113"/>
      <point x="646" y="119" type="qcurve" smooth="yes"/>
      <point x="684" y="124"/>
      <point x="758" y="131"/>
      <point x="796" y="131" type="qcurve" smooth="yes"/>
      <point x="884" y="131"/>
      <point x="1032" y="85"/>
      <point x="1088" y="38" type="qcurve"/>
      <point x="1128" y="-4" type="line"/>
      <point x="978" y="-99" type="line"/>
      <point x="956" y="-82"/>
      <point x="903" y="-64"/>
      <point x="874" y="-64" type="qcurve" smooth="yes"/>
      <point x="842" y="-64"/>
      <point x="787" y="-90"/>
      <point x="766.0" y="-112.0" type="qcurve" smooth="yes" name="inserted"/>
      <point x="745" y="-134"/>
      <point x="721" y="-192"/>
      <point x="721" y="-223" type="qcurve" smooth="yes"/>
      <point x="721" y="-260"/>
      <point x="753" y="-323"/>
      <point x="780.5" y="-345.5" type="qcurve" smooth="yes" name="inserted"/>
      <point x="808" y="-368"/>
      <point x="885" y="-394"/>
      <point x="930" y="-394" type="qcurve" smooth="yes"/>
      <point x="990" y="-394"/>
      <point x="1104" y="-346"/>
      <point x="1145" y="-301" type="qcurve"/>
    </contour>
  </outline>
</glyph>
<glyph name="uni0DB1" format="1">
  <advance width="2080"/>
  <unicode hex="0DB1"/>
  <outline>
    <contour>
      <point x="1494" y="797" type="qcurve" smooth="yes"/>
      <point x="1595" y="797"/>
      <point x="1761" y="724"/>
      <point x="1820.5" y="661.5" type="qcurve" smooth="yes" name="inserted"/>
      <point x="1880" y="599"/>
      <point x="1945" y="432"/>
      <point x="1945" y="337" type="qcurve" smooth="yes"/>
      <point x="1945" y="248"/>
      <point x="1887" y="78"/>
      <point x="1832.5" y="3.5" type="qcurve" smooth="yes" name="inserted"/>
      <point x="1778" y="-71"/>
      <point x="1622" y="-196"/>
      <point x="1524" y="-240" type="qcurve" smooth="yes"/>
      <point x="1441" y="-278"/>
      <point x="1268" y="-323"/>
      <point x="1181.0" y="-339.5" type="qcurve" smooth="yes" name="inserted"/>
      <point x="1094" y="-356"/>
      <point x="922" y="-385"/>
      <point x="842" y="-406" type="qcurve" smooth="yes"/>
      <point x="692" y="-446"/>
      <point x="416" y="-590"/>
      <point x="297" y="-690" type="qcurve"/>
      <point x="175" y="-548" type="line"/>
      <point x="311" y="-433"/>
      <point x="623" y="-267"/>
      <point x="794" y="-222" type="qcurve" smooth="yes"/>
      <point x="879" y="-200"/>
      <point x="1049" y="-171"/>
      <point x="1132.5" y="-155.5" type="qcurve" smooth="yes" name="inserted"/>
      <point x="1216" y="-140"/>
      <point x="1374" y="-100"/>
      <point x="1447" y="-67" type="qcurve" smooth="yes"/>
      <point x="1518" y="-34"/>
      <point x="1632" y="53"/>
      <point x="1672.5" y="104.5" type="qcurve" smooth="yes" name="inserted"/>
      <point x="1713" y="156"/>
      <point x="1757" y="273"/>
      <point x="1757" y="337" type="qcurve" smooth="yes"/>
      <point x="1757" y="394"/>
      <point x="1717" y="493"/>
      <point x="1681.5" y="529.5" type="qcurve" smooth="yes" name="inserted"/>
      <point x="1646" y="566"/>
      <point x="1551" y="608"/>
      <point x="1497" y="608" type="qcurve" smooth="yes"/>
      <point x="1463" y="608"/>
      <point x="1377" y="584"/>
      <point x="1338.5" y="555.5" type="qcurve" smooth="yes" name="inserted"/>
      <point x="1300" y="527"/>
      <point x="1248" y="431"/>
      <point x="1248" y="359" type="qcurve"/>
      <point x="1247" y="359" type="line"/>
      <point x="1247" y="4" type="line"/>
      <point x="1060" y="4" type="line"/>
      <point x="1060" y="632" type="line"/>
      <point x="292" y="632" type="line"/>
      <point x="282" y="612"/>
      <point x="271" y="567"/>
      <point x="271" y="543" type="qcurve" smooth="yes"/>
      <point x="271" y="502"/>
      <point x="300" y="436"/>
      <point x="323.0" y="408.0" type="qcurve" smooth="yes" name="inserted"/>
      <point x="346" y="380"/>
      <point x="404" y="330"/>
      <point x="433.5" y="304.5" type="qcurve" smooth="yes" name="inserted"/>
      <point x="463" y="279"/>
      <point x="517" y="225"/>
      <point x="536" y="192" type="qcurve" smooth="yes"/>
      <point x="554" y="163"/>
      <point x="593" y="68"/>
      <point x="593" y="6" type="qcurve"/>
      <point x="404" y="6" type="line"/>
      <point x="404" y="44"/>
      <point x="346" y="138"/>
      <point x="290" y="184" type="qcurve" smooth="yes"/>
      <point x="243" y="221"/>
      <point x="166" y="301"/>
      <point x="139.0" y="345.0" type="qcurve" smooth="yes" name="inserted"/>
      <point x="112" y="389"/>
      <point x="82" y="486"/>
      <point x="82" y="540" type="qcurve" smooth="yes"/>
      <point x="82" y="607"/>
      <point x="134" y="742"/>
      <point x="196" y="821" type="qcurve"/>
      <point x="1060" y="822" type="line"/>
      <point x="1060" y="880"/>
      <point x="1069" y="981"/>
      <point x="1078.5" y="1027.5" type="qcurve" smooth="yes" name="inserted"/>
      <point x="1088" y="1074"/>
      <point x="1116" y="1164"/>
      <point x="1135" y="1212" type="qcurve"/>
      <point x="838" y="1212" type="line" smooth="yes"/>
      <point x="820" y="1212"/>
      <point x="758" y="1205"/>
      <point x="728.5" y="1195.0" type="qcurve" smooth="yes" name="inserted"/>
      <point x="699" y="1185"/>
      <point x="655" y="1151"/>
      <point x="655" y="1124" type="qcurve" smooth="yes"/>
      <point x="655" y="1099"/>
      <point x="688" y="1064"/>
      <point x="714" y="1064" type="qcurve" smooth="yes"/>
      <point x="738" y="1064"/>
      <point x="772" y="1107"/>
      <point x="772" y="1147" type="qcurve"/>
      <point x="962" y="1147" type="line"/>
      <point x="962" y="1091"/>
      <point x="925" y="993"/>
      <point x="892.0" y="956.0" type="qcurve" smooth="yes" name="inserted"/>
      <point x="859" y="919"/>
      <point x="767" y="877"/>
      <point x="713" y="877" type="qcurve" smooth="yes"/>
      <point x="664" y="877"/>
      <point x="574" y="915"/>
      <point x="539.5" y="948.0" type="qcurve" smooth="yes" name="inserted"/>
      <point x="505" y="981"/>
      <point x="464" y="1071"/>
      <point x="464" y="1123" type="qcurve" smooth="yes"/>
      <point x="464" y="1202"/>
      <point x="537" y="1308"/>
      <point x="595.0" y="1340.0" type="qcurve" smooth="yes" name="inserted"/>
      <point x="653" y="1372"/>
      <point x="796" y="1399"/>
      <point x="867" y="1399" type="qcurve" smooth="yes"/>
      <point x="1417" y="1399" type="line"/>
      <point x="1394" y="1346"/>
      <point x="1337" y="1214"/>
      <point x="1311.0" y="1131.0" type="qcurve" smooth="yes" name="inserted"/>
      <point x="1285" y="1048"/>
      <point x="1249" y="845"/>
      <point x="1248" y="722" type="qcurve"/>
      <point x="1304" y="757"/>
      <point x="1425" y="797"/>
    </contour>
  </outline>
</glyph>
<glyph name="uni0DB4" format="1">
  <advance width="1921"/>
  <unicode hex="0DB4"/>
  <outline>
    <contour>
      <point x="1293" y="-3" type="qcurve" smooth="yes"/>
      <point x="424" y="-3" type="line"/>
      <point x="427" y="981" type="line" smooth="yes"/>
      <point x="427" y="1092"/>
      <point x="328" y="1199"/>
      <point x="248" y="1199" type="qcurve" smooth="yes"/>
      <point x="219" y="1199"/>
      <point x="163" y="1178"/>
      <point x="140.0" y="1159.5" type="qcurve" smooth="yes" name="inserted"/>
      <point x="117" y="1141"/>
      <point x="89" y="1088"/>
      <point x="89" y="1057" type="qcurve" smooth="yes"/>
      <point x="89" y="1014"/>
      <point x="140" y="961"/>
      <point x="174" y="961" type="qcurve" smooth="yes"/>
      <point x="191" y="961"/>
      <point x="222" y="978"/>
      <point x="232" y="992" type="qcurve"/>
      <point x="395" y="877" type="line"/>
      <point x="357" y="821"/>
      <point x="235" y="763"/>
      <point x="170" y="763" type="qcurve" smooth="yes"/>
      <point x="111" y="763"/>
      <point x="9" y="810"/>
      <point x="-29.0" y="850.0" type="qcurve" smooth="yes" name="inserted"/>
      <point x="-67" y="890"/>
      <point x="-110" y="997"/>
      <point x="-110" y="1057" type="qcurve" smooth="yes"/>
      <point x="-110" y="1123"/>
      <point x="-55" y="1246"/>
      <point x="-7.5" y="1293.5" type="qcurve" smooth="yes" name="inserted"/>
      <point x="40" y="1341"/>
      <point x="170" y="1398"/>
      <point x="245" y="1398" type="qcurve" smooth="yes"/>
      <point x="336" y="1398"/>
      <point x="478" y="1334"/>
      <point x="526.5" y="1277.5" type="qcurve" smooth="yes" name="inserted"/>
      <point x="575" y="1221"/>
      <point x="626" y="1068"/>
      <point x="626" y="980" type="qcurve"/>
      <point x="623" y="196" type="line"/>
      <point x="1293" y="196" type="line" smooth="yes"/>
      <point x="1319" y="196"/>
      <point x="1359" y="216"/>
      <point x="1373.0" y="230.5" type="qcurve" smooth="yes" name="inserted"/>
      <point x="1387" y="245"/>
      <point x="1401" y="277"/>
      <point x="1401" y="289" type="qcurve" smooth="yes"/>
      <point x="1401" y="1077" type="line" smooth="yes"/>
      <point x="1401" y="1149"/>
      <point x="1453" y="1270"/>
      <point x="1496.5" y="1313.0" type="qcurve" smooth="yes" name="inserted"/>
      <point x="1540" y="1356"/>
      <point x="1655" y="1404"/>
      <point x="1717" y="1404" type="qcurve" smooth="yes"/>
      <point x="1789" y="1404"/>
      <point x="1918" y="1338"/>
      <point x="1961" y="1280" type="qcurve"/>
      <point x="1799" y="1162" type="line"/>
      <point x="1784" y="1182"/>
      <point x="1738" y="1206"/>
      <point x="1712" y="1206" type="qcurve" smooth="yes"/>
      <point x="1667" y="1206"/>
      <point x="1606" y="1136"/>
      <point x="1600" y="1065" type="qcurve"/>
      <point x="1600" y="289" type="line" smooth="yes"/>
      <point x="1600" y="238"/>
      <point x="1555" y="134"/>
      <point x="1514.5" y="92.0" type="qcurve" smooth="yes" name="inserted"/>
      <point x="1474" y="50"/>
      <point x="1361" y="-3"/>
    </contour>
  </outline>
</glyph>
<glyph name="uni0DB6" format="1">
  <advance width="1906"/>
  <unicode hex="0DB6"/>
  <outline>
    <contour>
      <point x="578" y="533" type="qcurve"/>
      <point x="550" y="545"/>
      <point x="564" y="547"/>
      <point x="590.5" y="536.5" type="qcurve" smooth="yes" name="inserted"/>
      <point x="617" y="526"/>
      <point x="693" y="480"/>
      <point x="728.0" y="443.0" type="qcurve" smooth="yes" name="inserted"/>
      <point x="763" y="406"/>
      <point x="811" y="304"/>
      <point x="809" y="237" type="qcurve" smooth="yes"/>
      <point x="806" y="112"/>
      <point x="656" y="-22"/>
      <point x="512" y="-22" type="qcurve" smooth="yes"/>
      <point x="413" y="-22"/>
      <point x="251" y="58"/>
      <point x="193.5" y="129.5" type="qcurve" smooth="yes" name="inserted"/>
      <point x="136" y="201"/>
      <point x="74" y="398"/>
      <point x="74" y="516" type="qcurve" smooth="yes"/>
      <point x="74" y="654"/>
      <point x="160" y="901"/>
      <point x="239.0" y="994.0" type="qcurve" smooth="yes" name="inserted"/>
      <point x="318" y="1087"/>
      <point x="541" y="1196"/>
      <point x="679" y="1196" type="qcurve" smooth="yes"/>
      <point x="788" y="1196"/>
      <point x="982" y="1140"/>
      <point x="1054.5" y="1089.0" type="qcurve" smooth="yes" name="inserted"/>
      <point x="1127" y="1038"/>
      <point x="1212" y="893"/>
      <point x="1212" y="803" type="qcurve" smooth="yes"/>
      <point x="1212" y="762"/>
      <point x="1201" y="706"/>
      <point x="1191.0" y="680.0" type="qcurve" smooth="yes" name="inserted"/>
      <point x="1181" y="654"/>
      <point x="1152" y="595"/>
      <point x="1134" y="553" type="qcurve" smooth="yes"/>
      <point x="1122" y="525"/>
      <point x="1116" y="450"/>
      <point x="1120.0" y="409.0" type="qcurve" smooth="yes" name="inserted"/>
      <point x="1124" y="368"/>
      <point x="1143" y="287"/>
      <point x="1158.0" y="255.0" type="qcurve" smooth="yes" name="inserted"/>
      <point x="1173" y="223"/>
      <point x="1210" y="183"/>
      <point x="1232" y="182" type="qcurve" smooth="yes"/>
      <point x="1299" y="179"/>
      <point x="1411" y="250"/>
      <point x="1454.5" y="307.5" type="qcurve" smooth="yes" name="inserted"/>
      <point x="1498" y="365"/>
      <point x="1563" y="512"/>
      <point x="1584.5" y="586.5" type="qcurve" smooth="yes" name="inserted"/>
      <point x="1606" y="661"/>
      <point x="1626" y="796"/>
      <point x="1625" y="842" type="qcurve" smooth="yes"/>
      <point x="1623" y="941"/>
      <point x="1557" y="1125"/>
      <point x="1499.0" y="1205.0" type="qcurve" smooth="yes" name="inserted"/>
      <point x="1441" y="1285"/>
      <point x="1286" y="1418"/>
      <point x="1196.0" y="1465.0" type="qcurve" smooth="yes" name="inserted"/>
      <point x="1106" y="1512"/>
      <point x="908" y="1564"/>
      <point x="809" y="1564" type="qcurve" smooth="yes"/>
      <point x="717" y="1564"/>
      <point x="558" y="1528"/>
      <point x="486.0" y="1495.0" type="qcurve" smooth="yes" name="inserted"/>
      <point x="414" y="1462"/>
      <point x="283" y="1368"/>
      <point x="221" y="1310" type="qcurve"/>
      <point x="75" y="1502" type="line"/>
      <point x="138" y="1565"/>
      <point x="304" y="1660"/>
      <point x="398.0" y="1691.5" type="qcurve" smooth="yes" name="inserted"/>
      <point x="492" y="1723"/>
      <point x="691" y="1755"/>
      <point x="787" y="1755" type="qcurve" smooth="yes"/>
      <point x="922" y="1755"/>
      <point x="1182" y="1706"/>
      <point x="1297.5" y="1657.0" type="qcurve" smooth="yes" name="inserted"/>
      <point x="1413" y="1608"/>
      <point x="1607" y="1462"/>
      <point x="1677.5" y="1363.5" type="qcurve" smooth="yes" name="inserted"/>
      <point x="1748" y="1265"/>
      <point x="1827" y="1019"/>
      <point x="1827" y="871" type="qcurve" smooth="yes"/>
      <point x="1827" y="745"/>
      <point x="1784" y="515"/>
      <point x="1745.5" y="415.5" type="qcurve" smooth="yes" name="inserted"/>
      <point x="1707" y="316"/>
      <point x="1598" y="153"/>
      <point x="1532.5" y="95.0" type="qcurve" smooth="yes" name="inserted"/>
      <point x="1467" y="37"/>
      <point x="1318" y="-26"/>
      <point x="1238" y="-26" type="qcurve" smooth="yes"/>
      <point x="1163" y="-26"/>
      <point x="1062" y="2"/>
      <point x="1028.5" y="27.5" type="qcurve" smooth="yes" name="inserted"/>
      <point x="995" y="53"/>
      <point x="952" y="126"/>
      <point x="936" y="172" type="qcurve" smooth="yes"/>
      <point x="924" y="205"/>
      <point x="902" y="283"/>
      <point x="900.5" y="335.5" type="qcurve" smooth="yes" name="inserted"/>
      <point x="899" y="388"/>
      <point x="923" y="527"/>
      <point x="959" y="621" type="qcurve" smooth="yes"/>
      <point x="982" y="681"/>
      <point x="983" y="784"/>
      <point x="966.5" y="826.0" type="qcurve" smooth="yes" name="inserted"/>
      <point x="950" y="868"/>
      <point x="888" y="932"/>
      <point x="847.5" y="954.0" type="qcurve" smooth="yes" name="inserted"/>
      <point x="807" y="976"/>
      <point x="712" y="998"/>
      <point x="663" y="998" type="qcurve" smooth="yes"/>
      <point x="596" y="998"/>
      <point x="485" y="931"/>
      <point x="442.0" y="876.0" type="qcurve" smooth="yes" name="inserted"/>
      <point x="399" y="821"/>
      <point x="340" y="680"/>
      <point x="325.0" y="606.5" type="qcurve" smooth="yes" name="inserted"/>
      <point x="310" y="533"/>
      <point x="312" y="390"/>
      <point x="330.0" y="333.5" type="qcurve" smooth="yes" name="inserted"/>
      <point x="348" y="277"/>
      <point x="420" y="205"/>
      <point x="475" y="202" type="qcurve" smooth="yes"/>
      <point x="518" y="199"/>
      <point x="571" y="221"/>
      <point x="583.0" y="238.5" type="qcurve" smooth="yes" name="inserted"/>
      <point x="595" y="256"/>
      <point x="593" y="300"/>
      <point x="582.0" y="320.5" type="qcurve" smooth="yes" name="inserted"/>
      <point x="571" y="341"/>
      <point x="531" y="372"/>
      <point x="504" y="377" type="qcurve"/>
      <point x="502" y="375"/>
      <point x="511" y="398"/>
      <point x="518.5" y="415.5" type="qcurve" smooth="yes" name="inserted"/>
      <point x="526" y="433"/>
      <point x="545" y="475"/>
      <point x="554.0" y="492.5" type="qcurve" smooth="yes" name="inserted"/>
      <point x="563" y="510"/>
      <point x="576" y="534"/>
    </contour>
  </outline>
</glyph>
<glyph name="uni0DB8" format="1">
  <advance width="2436"/>
  <unicode hex="0DB8"/>
  <outline>
    <contour>
      <point x="941" y="923" type="qcurve"/>
      <point x="794" y="1066" type="line"/>
      <point x="857" y="1132"/>
      <point x="1009" y="1236"/>
      <point x="1094" y="1272" type="qcurve" smooth="yes" name="inserted"/>
      <point x="1178" y="1308"/>
      <point x="1360" y="1345"/>
      <point x="1453" y="1345" type="qcurve" smooth="yes"/>
      <point x="1576" y="1345"/>
      <point x="1808" y="1279"/>
      <point x="1909" y="1220" type="qcurve" smooth="yes" name="inserted"/>
      <point x="2010" y="1160"/>
      <point x="2173" y="993"/>
      <point x="2226" y="891" type="qcurve" smooth="yes"/>
      <point x="2274" y="803"/>
      <point x="2321" y="612"/>
      <point x="2321" y="512" type="qcurve" smooth="yes"/>
      <point x="2321" y="399"/>
      <point x="2262" y="192"/>
      <point x="2209" y="103" type="qcurve" smooth="yes" name="inserted"/>
      <point x="2155" y="13"/>
      <point x="2006" y="-134"/>
      <point x="1917" y="-186" type="qcurve" smooth="yes" name="inserted"/>
      <point x="1827" y="-238"/>
      <point x="1624" y="-295"/>
      <point x="1517" y="-295" type="qcurve" smooth="yes"/>
      <point x="1395" y="-295"/>
      <point x="1165" y="-221"/>
      <point x="1069" y="-157" type="qcurve" smooth="yes" name="inserted"/>
      <point x="972" y="-92"/>
      <point x="828" y="85"/>
      <point x="794" y="188" type="qcurve"/>
      <point x="106" y="196" type="line"/>
      <point x="106" y="1021" type="line"/>
      <point x="310" y="1021" type="line"/>
      <point x="310" y="398" type="line"/>
      <point x="768" y="393" type="line"/>
      <point x="768" y="473"/>
      <point x="825" y="617"/>
      <point x="874" y="672" type="qcurve" smooth="yes" name="inserted"/>
      <point x="923" y="727"/>
      <point x="1053" y="791"/>
      <point x="1127" y="791" type="qcurve" smooth="yes"/>
      <point x="1192" y="791"/>
      <point x="1306" y="746"/>
      <point x="1348" y="706" type="qcurve" smooth="yes" name="inserted"/>
      <point x="1390" y="666"/>
      <point x="1439" y="559"/>
      <point x="1439" y="498" type="qcurve" smooth="yes"/>
      <point x="1439" y="435"/>
      <point x="1400" y="340"/>
      <point x="1367" y="305" type="qcurve" smooth="yes" name="inserted"/>
      <point x="1334" y="270"/>
      <point x="1248" y="225"/>
      <point x="1202" y="211" type="qcurve" smooth="yes" name="inserted"/>
      <point x="1155" y="197"/>
      <point x="1060" y="186"/>
      <point x="1018" y="186" type="qcurve" smooth="yes"/>
      <point x="1016" y="186" type="line"/>
      <point x="1050" y="125"/>
      <point x="1157" y="23"/>
      <point x="1223" y="-14" type="qcurve" smooth="yes" name="inserted"/>
      <point x="1288" y="-50"/>
      <point x="1438" y="-91"/>
      <point x="1515" y="-91" type="qcurve" smooth="yes"/>
      <point x="1600" y="-91"/>
      <point x="1756" y="-46"/>
      <point x="1823" y="-6" type="qcurve" smooth="yes" name="inserted"/>
      <point x="1890" y="35"/>
      <point x="1998" y="147"/>
      <point x="2037" y="214" type="qcurve" smooth="yes" name="inserted"/>
      <point x="2075" y="281"/>
      <point x="2117" y="433"/>
      <point x="2117" y="513" type="qcurve" smooth="yes"/>
      <point x="2117" y="602"/>
      <point x="2068" y="764"/>
      <point x="2024" y="834" type="qcurve" smooth="yes" name="inserted"/>
      <point x="1980" y="904"/>
      <point x="1857" y="1017"/>
      <point x="1783" y="1057" type="qcurve" smooth="yes" name="inserted"/>
      <point x="1708" y="1097"/>
      <point x="1539" y="1141"/>
      <point x="1449" y="1141" type="qcurve" smooth="yes"/>
      <point x="1379" y="1141"/>
      <point x="1240" y="1112"/>
      <point x="1174" y="1085" type="qcurve" smooth="yes" name="inserted"/>
      <point x="1108" y="1057"/>
      <point x="990" y="975"/>
    </contour>
    <contour>
      <point x="1204" y="562" type="qcurve" smooth="yes" name="inserted"/>
      <point x="1189" y="573"/>
      <point x="1152" y="586"/>
      <point x="1132" y="586" type="qcurve" smooth="yes"/>
      <point x="1097" y="586"/>
      <point x="1041" y="556"/>
      <point x="1020" y="530" type="qcurve" smooth="yes" name="inserted"/>
      <point x="999" y="503"/>
      <point x="974" y="432"/>
      <point x="971" y="392" type="qcurve"/>
      <point x="993" y="390" type="line"/>
      <point x="1046" y="390"/>
      <point x="1135" y="401"/>
      <point x="1167" y="414" type="qcurve" smooth="yes" name="inserted"/>
      <point x="1199" y="427"/>
      <point x="1235" y="469"/>
      <point x="1235" y="499" type="qcurve" smooth="yes"/>
      <point x="1235" y="518"/>
      <point x="1218" y="550"/>
    </contour>
  </outline>
</glyph>
<glyph name="uni0DB9" format="1">
  <advance width="2249"/>
  <unicode hex="0DB9"/>
  <outline>
    <contour>
      <point x="923" y="923" type="qcurve"/>
      <point x="776" y="1066" type="line"/>
      <point x="839" y="1132"/>
      <point x="991" y="1236"/>
      <point x="1076" y="1272" type="qcurve" smooth="yes" name="inserted"/>
      <point x="1160" y="1308"/>
      <point x="1342" y="1345"/>
      <point x="1435" y="1345" type="qcurve" smooth="yes"/>
      <point x="1558" y="1345"/>
      <point x="1790" y="1279"/>
      <point x="1891" y="1220" type="qcurve" smooth="yes" name="inserted"/>
      <point x="1992" y="1160"/>
      <point x="2155" y="993"/>
      <point x="2208" y="891" type="qcurve" smooth="yes"/>
      <point x="2256" y="803"/>
      <point x="2303" y="612"/>
      <point x="2303" y="512" type="qcurve" smooth="yes"/>
      <point x="2303" y="399"/>
      <point x="2244" y="192"/>
      <point x="2191" y="103" type="qcurve" smooth="yes" name="inserted"/>
      <point x="2137" y="13"/>
      <point x="1985" y="-126"/>
      <point x="1899" y="-186" type="qcurve" smooth="yes" name="inserted"/>
      <point x="1724" y="-309"/>
      <point x="1617" y="-56"/>
      <point x="1510" y="-56" type="qcurve" smooth="yes"/>
      <point x="1388" y="-56"/>
      <point x="1245" y="-299"/>
      <point x="1051" y="-157" type="qcurve" smooth="yes" name="inserted"/>
      <point x="958" y="-89"/>
      <point x="810" y="85"/>
      <point x="776" y="188" type="qcurve"/>
      <point x="88" y="196" type="line"/>
      <point x="88" y="1021" type="line"/>
      <point x="292" y="1021" type="line"/>
      <point x="292" y="398" type="line"/>
      <point x="750" y="393" type="line"/>
      <point x="750" y="473"/>
      <point x="807" y="617"/>
      <point x="856" y="672" type="qcurve" smooth="yes" name="inserted"/>
      <point x="905" y="727"/>
      <point x="1035" y="791"/>
      <point x="1109" y="791" type="qcurve" smooth="yes"/>
      <point x="1174" y="791"/>
      <point x="1288" y="746"/>
      <point x="1330" y="706" type="qcurve" smooth="yes" name="inserted"/>
      <point x="1372" y="666"/>
      <point x="1421" y="559"/>
      <point x="1421" y="498" type="qcurve" smooth="yes"/>
      <point x="1421" y="435"/>
      <point x="1382" y="340"/>
      <point x="1349" y="305" type="qcurve" smooth="yes" name="inserted"/>
      <point x="1316" y="270"/>
      <point x="1230" y="225"/>
      <point x="1184" y="211" type="qcurve" smooth="yes" name="inserted"/>
      <point x="1137" y="197"/>
      <point x="1042" y="186"/>
      <point x="1000" y="186" type="qcurve" smooth="yes"/>
      <point x="998" y="186" type="line"/>
      <point x="1032" y="125"/>
      <point x="1154" y="-2"/>
      <point x="1205" y="-14" type="qcurve" smooth="yes" name="inserted"/>
      <point x="1264" y="-28"/>
      <point x="1373" y="172"/>
      <point x="1499" y="173" type="qcurve" smooth="yes"/>
      <point x="1637" y="174"/>
      <point x="1738" y="-46"/>
      <point x="1805" y="-6" type="qcurve" smooth="yes" name="inserted"/>
      <point x="1872" y="35"/>
      <point x="1980" y="147"/>
      <point x="2019" y="214" type="qcurve" smooth="yes" name="inserted"/>
      <point x="2057" y="281"/>
      <point x="2099" y="433"/>
      <point x="2099" y="513" type="qcurve" smooth="yes"/>
      <point x="2099" y="602"/>
      <point x="2050" y="764"/>
      <point x="2006" y="834" type="qcurve" smooth="yes" name="inserted"/>
      <point x="1962" y="904"/>
      <point x="1839" y="1017"/>
      <point x="1765" y="1057" type="qcurve" smooth="yes" name="inserted"/>
      <point x="1690" y="1097"/>
      <point x="1521" y="1141"/>
      <point x="1431" y="1141" type="qcurve" smooth="yes"/>
      <point x="1361" y="1141"/>
      <point x="1222" y="1112"/>
      <point x="1156" y="1085" type="qcurve" smooth="yes" name="inserted"/>
      <point x="1090" y="1057"/>
      <point x="972" y="975"/>
    </contour>
    <contour>
      <point x="1186" y="562" type="qcurve" smooth="yes" name="inserted"/>
      <point x="1171" y="573"/>
      <point x="1134" y="586"/>
      <point x="1114" y="586" type="qcurve" smooth="yes"/>
      <point x="1079" y="586"/>
      <point x="1023" y="556"/>
      <point x="1002" y="530" type="qcurve" smooth="yes" name="inserted"/>
      <point x="981" y="503"/>
      <point x="956" y="432"/>
      <point x="953" y="392" type="qcurve"/>
      <point x="975" y="390" type="line"/>
      <point x="1028" y="390"/>
      <point x="1117" y="401"/>
      <point x="1149" y="414" type="qcurve" smooth="yes" name="inserted"/>
      <point x="1181" y="427"/>
      <point x="1217" y="469"/>
      <point x="1217" y="499" type="qcurve" smooth="yes"/>
      <point x="1217" y="518"/>
      <point x="1200" y="550"/>
    </contour>
  </outline>
</glyph>
<glyph name="uni0DBA" format="1">
  <advance width="1882"/>
  <unicode hex="0DBA"/>
  <outline>
    <contour>
      <point x="564" y="-26" type="qcurve" smooth="yes"/>
      <point x="459" y="-26"/>
      <point x="277" y="53"/>
      <point x="209.0" y="120.5" type="qcurve" smooth="yes" name="inserted"/>
      <point x="141" y="188"/>
      <point x="63" y="365"/>
      <point x="63" y="464" type="qcurve" smooth="yes"/>
      <point x="63" y="573"/>
      <point x="160" y="773"/>
      <point x="248" y="843" type="qcurve" smooth="yes"/>
      <point x="288" y="877"/>
      <point x="368" y="924"/>
      <point x="411.0" y="938.5" type="qcurve" smooth="yes" name="inserted"/>
      <point x="454" y="953"/>
      <point x="551" y="966"/>
      <point x="609" y="966" type="qcurve"/>
      <point x="609" y="776" type="line"/>
      <point x="565" y="776"/>
      <point x="499" y="767"/>
      <point x="473.0" y="757.5" type="qcurve" smooth="yes" name="inserted"/>
      <point x="447" y="748"/>
      <point x="402" y="720"/>
      <point x="378" y="701" type="qcurve" smooth="yes"/>
      <point x="352" y="680"/>
      <point x="309" y="625"/>
      <point x="294.0" y="594.5" type="qcurve" smooth="yes" name="inserted"/>
      <point x="279" y="564"/>
      <point x="262" y="497"/>
      <point x="262" y="464" type="qcurve" smooth="yes"/>
      <point x="262" y="405"/>
      <point x="308" y="296"/>
      <point x="348.5" y="254.5" type="qcurve" smooth="yes" name="inserted"/>
      <point x="389" y="213"/>
      <point x="499" y="163"/>
      <point x="563" y="163" type="qcurve" smooth="yes"/>
      <point x="638" y="163"/>
      <point x="768" y="236"/>
      <point x="806" y="299" type="qcurve"/>
      <point x="821" y="319"/>
      <point x="843" y="358"/>
      <point x="851.0" y="387.0" type="qcurve" smooth="yes" name="inserted"/>
      <point x="859" y="416"/>
      <point x="867" y="504"/>
      <point x="867" y="575" type="qcurve"/>
      <point x="1067" y="577" type="line"/>
      <point x="1067" y="169" type="line"/>
      <point x="1325" y="169" type="line" smooth="yes"/>
      <point x="1353" y="169"/>
      <point x="1395" y="189"/>
      <point x="1409.0" y="204.5" type="qcurve" smooth="yes" name="inserted"/>
      <point x="1423" y="220"/>
      <point x="1437" y="256"/>
      <point x="1437" y="271" type="qcurve" smooth="yes"/>
      <point x="1437" y="335"/>
      <point x="1436" y="436"/>
      <point x="1436.0" y="477.0" type="qcurve" smooth="yes" name="inserted"/>
      <point x="1436" y="518"/>
      <point x="1435" y="583"/>
      <point x="1435" y="610" type="qcurve" smooth="yes"/>
      <point x="1435" y="634"/>
      <point x="1436" y="669"/>
      <point x="1436.0" y="685.5" type="qcurve" smooth="yes" name="inserted"/>
      <point x="1436" y="702"/>
      <point x="1437" y="738"/>
      <point x="1437" y="764" type="qcurve"/>
      <point x="1401" y="771"/>
      <point x="1330" y="811"/>
      <point x="1300.0" y="838.5" type="qcurve" smooth="yes" name="inserted"/>
      <point x="1270" y="866"/>
      <point x="1228" y="934"/>
      <point x="1222" y="970" type="qcurve"/>
      <point x="1217.0" y="988.0" name="inserted"/>
      <point x="1212.0" y="1026.0"/>
      <point x="1212" y="1046" type="qcurve" smooth="yes"/>
      <point x="1212" y="1108"/>
      <point x="1261" y="1220"/>
      <point x="1304.0" y="1262.0" type="qcurve" smooth="yes" name="inserted"/>
      <point x="1347" y="1304"/>
      <point x="1465" y="1354"/>
      <point x="1534" y="1354" type="qcurve" smooth="yes"/>
      <point x="1615" y="1354"/>
      <point x="1746" y="1289"/>
      <point x="1792" y="1231" type="qcurve"/>
      <point x="1632" y="1118" type="line"/>
      <point x="1615" y="1141"/>
      <point x="1563" y="1164"/>
      <point x="1535" y="1164" type="qcurve" smooth="yes"/>
      <point x="1511" y="1164"/>
      <point x="1467" y="1147"/>
      <point x="1449.5" y="1132.0" type="qcurve" smooth="yes" name="inserted"/>
      <point x="1432" y="1117"/>
      <point x="1411" y="1074"/>
      <point x="1411" y="1047" type="qcurve" smooth="yes"/>
      <point x="1411" y="1021"/>
      <point x="1429" y="982"/>
      <point x="1444.5" y="969.0" type="qcurve" smooth="yes" name="inserted"/>
      <point x="1460" y="956"/>
      <point x="1500" y="942"/>
      <point x="1522" y="942" type="qcurve" smooth="yes"/>
      <point x="1529" y="942" type="line"/>
      <point x="1635" y="950" type="line"/>
      <point x="1635" y="847" type="line"/>
      <point x="1635" y="271" type="line" smooth="yes"/>
      <point x="1635" y="218"/>
      <point x="1592" y="113"/>
      <point x="1552.0" y="71.0" type="qcurve" smooth="yes" name="inserted"/>
      <point x="1512" y="29"/>
      <point x="1397" y="-23"/>
      <point x="1325" y="-23" type="qcurve" smooth="yes"/>
      <point x="869" y="-23" type="line"/>
      <point x="869" y="81" type="line"/>
      <point x="805" y="27"/>
      <point x="647" y="-26"/>
    </contour>
  </outline>
</glyph>
<glyph name="uni0DBB" format="1">
  <advance width="2113"/>
  <unicode hex="0DBB"/>
  <outline>
    <contour>
      <point x="1759" y="-70" type="qcurve" smooth="yes"/>
      <point x="1774" y="-38"/>
      <point x="1789" y="32"/>
      <point x="1789" y="67" type="qcurve" smooth="yes"/>
      <point x="1789" y="81"/>
      <point x="1786" y="105"/>
      <point x="1784" y="118" type="qcurve" smooth="yes"/>
      <point x="1776" y="163"/>
      <point x="1732" y="247"/>
      <point x="1699" y="282" type="qcurve" smooth="yes"/>
      <point x="1666.0" y="316.5" name="inserted"/>
      <point x="1585.5" y="365.5"/>
      <point x="1538" y="380" type="qcurve" smooth="yes"/>
      <point x="1511.0" y="387.0" name="inserted"/>
      <point x="1458.5" y="394.0"/>
      <point x="1433" y="394" type="qcurve" smooth="yes"/>
      <point x="1384" y="394"/>
      <point x="1290" y="368"/>
      <point x="1249" y="343" type="qcurve" smooth="yes"/>
      <point x="1186" y="305"/>
      <point x="1101" y="181"/>
      <point x="1092" y="109" type="qcurve"/>
      <point x="1090.5" y="100.5" name="inserted"/>
      <point x="1089.0" y="82.0"/>
      <point x="1089" y="72" type="qcurve" smooth="yes"/>
      <point x="1089" y="34"/>
      <point x="1108" y="-44"/>
      <point x="1125" y="-80" type="qcurve" smooth="yes"/>
      <point x="1127" y="-84"/>
      <point x="1132" y="-93"/>
      <point x="1134" y="-97" type="qcurve" smooth="yes"/>
      <point x="1135.0" y="-99.0" name="inserted"/>
      <point x="1136.0" y="-101.5"/>
      <point x="1136" y="-102" type="qcurve"/>
      <point x="1159" y="-140"/>
      <point x="1219" y="-201"/>
      <point x="1256" y="-221" type="qcurve"/>
      <point x="1298.5" y="-247.5" name="inserted"/>
      <point x="1389.5" y="-274.0"/>
      <point x="1438" y="-274" type="qcurve" smooth="yes"/>
      <point x="1443" y="-274" type="line" smooth="yes"/>
      <point x="1494" y="-273"/>
      <point x="1589" y="-243"/>
      <point x="1631" y="-217" type="qcurve" smooth="yes"/>
      <point x="1673" y="-190"/>
      <point x="1740" y="-115"/>
    </contour>
    <contour>
      <point x="1977" y="155" type="qcurve" smooth="yes"/>
      <point x="1980.0" y="135.5" name="inserted"/>
      <point x="1983.0" y="96.0"/>
      <point x="1983" y="76" type="qcurve" smooth="yes"/>
      <point x="1983" y="16"/>
      <point x="1960" y="-102"/>
      <point x="1937" y="-152" type="qcurve" smooth="yes"/>
      <point x="1905" y="-223"/>
      <point x="1803" y="-341"/>
      <point x="1737" y="-384" type="qcurve" smooth="yes"/>
      <point x="1670.5" y="-426.5" name="inserted"/>
      <point x="1525.0" y="-470.0"/>
      <point x="1446" y="-471" type="qcurve" smooth="yes"/>
      <point x="1438" y="-471" type="line" smooth="yes"/>
      <point x="1362" y="-471"/>
      <point x="1218" y="-431"/>
      <point x="1154" y="-391" type="qcurve" smooth="yes"/>
      <point x="1094" y="-355"/>
      <point x="997" y="-256"/>
      <point x="962" y="-196" type="qcurve" smooth="yes"/>
      <point x="927" y="-137"/>
      <point x="891" y="-4"/>
      <point x="891" y="64" type="qcurve" smooth="yes"/>
      <point x="891" y="82"/>
      <point x="893" y="116"/>
      <point x="896" y="135" type="qcurve" smooth="yes"/>
      <point x="904" y="207"/>
      <point x="950" y="333"/>
      <point x="976" y="394" type="qcurve" smooth="yes"/>
      <point x="996" y="442" type="line" smooth="yes"/>
      <point x="1084" y="652"/>
      <point x="1184" y="1097"/>
      <point x="1195" y="1326" type="qcurve"/>
      <point x="456" y="1326" type="line" smooth="yes"/>
      <point x="409" y="1326"/>
      <point x="364" y="1300"/>
      <point x="353" y="1278" type="qcurve"/>
      <point x="341" y="1258"/>
      <point x="332" y="1201"/>
      <point x="332" y="1151" type="qcurve" smooth="yes"/>
      <point x="332" y="199" type="line"/>
      <point x="130" y="199" type="line"/>
      <point x="130" y="1211" type="line" smooth="yes"/>
      <point x="131" y="1241"/>
      <point x="133" y="1294"/>
      <point x="136.5" y="1318.5" type="qcurve" smooth="yes" name="inserted"/>
      <point x="140" y="1343"/>
      <point x="159" y="1392"/>
      <point x="178" y="1419" type="qcurve" smooth="yes"/>
      <point x="202" y="1452"/>
      <point x="256" y="1493"/>
      <point x="286.5" y="1503.5" type="qcurve" smooth="yes" name="inserted"/>
      <point x="317" y="1514"/>
      <point x="386" y="1521"/>
      <point x="425" y="1521" type="qcurve" smooth="yes"/>
      <point x="1571" y="1521" type="line"/>
      <point x="1571" y="1326" type="line"/>
      <point x="1392" y="1326" type="line"/>
      <point x="1384" y="1130"/>
      <point x="1314" y="746"/>
      <point x="1252" y="560" type="qcurve"/>
      <point x="1297" y="574"/>
      <point x="1389" y="590"/>
      <point x="1437" y="590" type="qcurve" smooth="yes"/>
      <point x="1475" y="590"/>
      <point x="1555" y="579"/>
      <point x="1593" y="568" type="qcurve" smooth="yes"/>
      <point x="1665" y="546"/>
      <point x="1791" y="472"/>
      <point x="1843" y="418" type="qcurve" smooth="yes"/>
      <point x="1895" y="362"/>
      <point x="1964" y="227"/>
    </contour>
  </outline>
</glyph>
<glyph name="uni0DC4" format="1">
  <advance width="2105"/>
  <unicode hex="0DC4"/>
  <outline>
    <contour>
      <point x="663" y="-7" type="qcurve" smooth="yes"/>
      <point x="512" y="-11"/>
      <point x="294" y="79"/>
      <point x="223.5" y="158.5" type="qcurve" smooth="yes" name="inserted"/>
      <point x="153" y="238"/>
      <point x="85" y="454"/>
      <point x="85" y="577" type="qcurve" smooth="yes"/>
      <point x="85" y="656"/>
      <point x="135" y="788"/>
      <point x="178.0" y="841.5" type="qcurve" smooth="yes" name="inserted"/>
      <point x="221" y="895"/>
      <point x="335" y="974"/>
      <point x="400.0" y="999.5" type="qcurve" smooth="yes" name="inserted"/>
      <point x="465" y="1025"/>
      <point x="602" y="1046"/>
      <point x="667" y="1042" type="qcurve"/>
      <point x="657" y="1085"/>
      <point x="631" y="1149"/>
      <point x="610.0" y="1169.5" type="qcurve" smooth="yes" name="inserted"/>
      <point x="589" y="1190"/>
      <point x="526" y="1210"/>
      <point x="479" y="1210" type="qcurve" smooth="yes"/>
      <point x="378.5" y="1210.0" name="inserted"/>
      <point x="278.0" y="1132.5"/>
      <point x="278" y="1055" type="qcurve" smooth="yes"/>
      <point x="278.0" y="1041.0" name="inserted"/>
      <point x="283.5" y="1002.0"/>
      <point x="289" y="977" type="qcurve"/>
      <point x="105" y="948" type="line"/>
      <point x="96.0" y="978.5" name="inserted"/>
      <point x="87.0" y="1043.5"/>
      <point x="87" y="1078" type="qcurve" smooth="yes"/>
      <point x="87" y="1151"/>
      <point x="140" y="1282"/>
      <point x="190.5" y="1331.0" type="qcurve" smooth="yes" name="inserted"/>
      <point x="241" y="1380"/>
      <point x="384" y="1438"/>
      <point x="474" y="1438" type="qcurve" smooth="yes"/>
      <point x="581" y="1438"/>
      <point x="733" y="1373"/>
      <point x="782.0" y="1316.5" type="qcurve" smooth="yes" name="inserted"/>
      <point x="831" y="1260"/>
      <point x="879" y="1109"/>
      <point x="884" y="1023" type="qcurve" smooth="yes"/>
      <point x="891" y="887" type="line"/>
      <point x="818" y="884"/>
      <point x="673" y="874"/>
      <point x="607.0" y="862.5" type="qcurve" smooth="yes" name="inserted"/>
      <point x="541" y="851"/>
      <point x="427" y="811"/>
      <point x="385.0" y="778.5" type="qcurve" smooth="yes" name="inserted"/>
      <point x="343" y="746"/>
      <point x="295" y="650"/>
      <point x="295" y="583" type="qcurve" smooth="yes"/>
      <point x="295" y="504"/>
      <point x="345" y="371"/>
      <point x="390.0" y="322.5" type="qcurve" smooth="yes" name="inserted"/>
      <point x="435" y="274"/>
      <point x="557" y="219"/>
      <point x="629" y="219" type="qcurve" smooth="yes"/>
      <point x="711" y="219"/>
      <point x="823" y="273"/>
      <point x="861.5" y="319.0" type="qcurve" smooth="yes" name="inserted"/>
      <point x="900" y="365"/>
      <point x="950" y="486"/>
      <point x="968.0" y="553.0" type="qcurve" smooth="yes" name="inserted"/>
      <point x="986" y="620"/>
      <point x="1017" y="758"/>
      <point x="1038" y="821" type="qcurve" smooth="yes"/>
      <point x="1064" y="900"/>
      <point x="1139" y="1057"/>
      <point x="1197.0" y="1119.0" type="qcurve" smooth="yes" name="inserted"/>
      <point x="1255" y="1181"/>
      <point x="1422" y="1259"/>
      <point x="1539" y="1259" type="qcurve" smooth="yes"/>
      <point x="1647" y="1259"/>
      <point x="1822" y="1189"/>
      <point x="1883.5" y="1117.0" type="qcurve" smooth="yes" name="inserted"/>
      <point x="1945" y="1045"/>
      <point x="2012" y="828"/>
      <point x="2012" y="681" type="qcurve" smooth="yes"/>
      <point x="2012" y="577"/>
      <point x="1992" y="415"/>
      <point x="1973.5" y="351.0" type="qcurve" smooth="yes" name="inserted"/>
      <point x="1955" y="287"/>
      <point x="1899" y="187"/>
      <point x="1863.5" y="146.5" type="qcurve" smooth="yes" name="inserted"/>
      <point x="1828" y="106"/>
      <point x="1741" y="37"/>
      <point x="1691" y="4" type="qcurve"/>
      <point x="1543" y="175" type="line"/>
      <point x="1601" y="214"/>
      <point x="1697" y="290"/>
      <point x="1731.0" y="343.5" type="qcurve" smooth="yes" name="inserted"/>
      <point x="1765" y="397"/>
      <point x="1802" y="551"/>
      <point x="1802" y="667" type="qcurve" smooth="yes"/>
      <point x="1802" y="742"/>
      <point x="1769" y="870"/>
      <point x="1735.0" y="917.0" type="qcurve" smooth="yes" name="inserted"/>
      <point x="1701" y="964"/>
      <point x="1596" y="1018"/>
      <point x="1524" y="1018" type="qcurve" smooth="yes"/>
      <point x="1480" y="1018"/>
      <point x="1399" y="954"/>
      <point x="1363.5" y="905.0" type="qcurve" smooth="yes" name="inserted"/>
      <point x="1328" y="856"/>
      <point x="1272" y="738"/>
      <point x="1253" y="683" type="qcurve" smooth="yes"/>
      <point x="1225" y="600"/>
      <point x="1178" y="436"/>
      <point x="1149.5" y="360.0" type="qcurve" smooth="yes" name="inserted"/>
      <point x="1121" y="284"/>
      <point x="1045" y="153"/>
      <point x="989.0" y="103.5" type="qcurve" smooth="yes" name="inserted"/>
      <point x="933" y="54"/>
      <point x="774" y="-4"/>
    </contour>
  </outline>
</glyph>
<glyph name="uni0DCA" format="1">
  <advance width="0"/>
  <unicode hex="0DCA"/>
  <outline>
    <contour>
      <point x="-194" y="1686" type="line" smooth="yes"/>
      <point x="-194" y="1718"/>
      <point x="-235" y="1763"/>
      <point x="-267" y="1763" type="qcurve" smooth="yes"/>
      <point x="-298" y="1763"/>
      <point x="-337" y="1725"/>
      <point x="-343" y="1696" type="qcurve"/>
      <point x="-341" y="1694" type="line"/>
      <point x="-341" y="1660"/>
      <point x="-301" y="1616"/>
      <point x="-267" y="1616" type="qcurve" smooth="yes"/>
      <point x="-234" y="1616"/>
      <point x="-202" y="1653"/>
      <point x="-194" y="1677" type="qcurve"/>
    </contour>
    <contour>
      <point x="-49" y="1767" type="qcurve"/>
      <point x="-41" y="1747"/>
      <point x="-35" y="1707"/>
      <point x="-35" y="1686" type="qcurve" smooth="yes"/>
      <point x="-35" y="1638"/>
      <point x="-73" y="1555"/>
      <point x="-105.0" y="1524.0" type="qcurve" smooth="yes" name="inserted"/>
      <point x="-137" y="1493"/>
      <point x="-221" y="1457"/>
      <point x="-267" y="1457" type="qcurve" smooth="yes"/>
      <point x="-280" y="1457" type="line"/>
      <point x="-264" y="1405"/>
      <point x="-251" y="1300"/>
      <point x="-251" y="1245" type="qcurve"/>
      <point x="-410" y="1249" type="line"/>
      <point x="-410" y="1263" type="line" smooth="yes"/>
      <point x="-410" y="1320"/>
      <point x="-439" y="1425"/>
      <point x="-457.0" y="1476.0" type="qcurve" smooth="yes" name="inserted"/>
      <point x="-475" y="1527"/>
      <point x="-504" y="1628"/>
      <point x="-504" y="1681" type="qcurve" smooth="yes"/>
      <point x="-502" y="1733"/>
      <point x="-465" y="1821"/>
      <point x="-433.5" y="1853.5" type="qcurve" smooth="yes" name="inserted"/>
      <point x="-402" y="1886"/>
      <point x="-318" y="1922"/>
      <point x="-269" y="1922" type="qcurve" smooth="yes"/>
      <point x="-233" y="1922"/>
      <point x="-164" y="1901"/>
      <point x="-135.0" y="1880.5" type="qcurve" smooth="yes" name="inserted"/>
      <point x="-106" y="1860"/>
      <point x="-61" y="1803"/>
    </contour>
  </outline>
</glyph>
<glyph name="uni0DCF" format="1">
  <advance width="858"/>
  <unicode hex="0DCF"/>
  <outline>
    <contour>
      <point x="614" y="985" type="line"/>
      <point x="665" y="919"/>
      <point x="710" y="760"/>
      <point x="710" y="675" type="qcurve" smooth="yes"/>
      <point x="710.0" y="652.0" name="inserted"/>
      <point x="708.5" y="608.0"/>
      <point x="707" y="587" type="qcurve" smooth="yes"/>
      <point x="704" y="542"/>
      <point x="703" y="433"/>
      <point x="692" y="376" type="qcurve" smooth="yes"/>
      <point x="676" y="295"/>
      <point x="608" y="157"/>
      <point x="553.0" y="107.0" type="qcurve" smooth="yes" name="inserted"/>
      <point x="498" y="57"/>
      <point x="341" y="0"/>
      <point x="237" y="0" type="qcurve" smooth="yes"/>
      <point x="229" y="0"/>
      <point x="213" y="0"/>
      <point x="202" y="2" type="qcurve"/>
      <point x="202" y="182" type="line"/>
      <point x="210" y="181"/>
      <point x="230" y="183"/>
      <point x="239" y="183" type="qcurve" smooth="yes"/>
      <point x="292" y="183"/>
      <point x="383" y="213"/>
      <point x="419.0" y="242.0" type="qcurve" smooth="yes" name="inserted"/>
      <point x="455" y="271"/>
      <point x="503" y="354"/>
      <point x="513" y="407" type="qcurve" smooth="yes"/>
      <point x="515" y="420"/>
      <point x="519" y="477"/>
      <point x="520.5" y="508.0" type="qcurve" smooth="yes" name="inserted"/>
      <point x="522" y="539"/>
      <point x="525" y="590"/>
      <point x="525" y="596" type="qcurve"/>
      <point x="527" y="616"/>
      <point x="527" y="653"/>
      <point x="527" y="672" type="qcurve" smooth="yes"/>
      <point x="527" y="780"/>
      <point x="433" y="945"/>
      <point x="339" y="985" type="qcurve"/>
      <point x="237" y="985" type="line" smooth="yes"/>
      <point x="208" y="985"/>
      <point x="189" y="935"/>
      <point x="189" y="894" type="qcurve" smooth="yes"/>
      <point x="189" y="598" type="line"/>
      <point x="9" y="598" type="line"/>
      <point x="12" y="924" type="line" smooth="yes"/>
      <point x="13" y="988"/>
      <point x="33" y="1078"/>
      <point x="57.0" y="1106.0" type="qcurve" smooth="yes" name="inserted"/>
      <point x="81" y="1134"/>
      <point x="162" y="1160"/>
      <point x="222" y="1160" type="qcurve" smooth="yes"/>
      <point x="856" y="1160" type="line"/>
      <point x="856" y="985" type="line"/>
      <point x="614" y="985" type="line"/>
    </contour>
  </outline>
</glyph>
<glyph name="uni0DD0" format="1">
  <advance width="633"/>
  <unicode hex="0DD0"/>
  <outline>
    <contour>
      <point x="32" y="848" type="line"/>
      <point x="603" y="848" type="line"/>
      <point x="603" y="687" type="line"/>
      <point x="516" y="595"/>
      <point x="392" y="448"/>
      <point x="352" y="391" type="qcurve" smooth="yes"/>
      <point x="313.0" y="335.0" name="inserted"/>
      <point x="260.5" y="236.5"/>
      <point x="247" y="194" type="qcurve" smooth="yes"/>
      <point x="233.5" y="152.5" name="inserted"/>
      <point x="220.0" y="65.5"/>
      <point x="220" y="20" type="qcurve" smooth="yes"/>
      <point x="220" y="-91"/>
      <point x="317" y="-197"/>
      <point x="425" y="-197" type="qcurve" smooth="yes"/>
      <point x="451" y="-197"/>
      <point x="494" y="-193"/>
      <point x="513" y="-189" type="qcurve" smooth="yes"/>
      <point x="532" y="-185"/>
      <point x="581" y="-168"/>
      <point x="610" y="-155" type="qcurve"/>
      <point x="664" y="-304" type="line"/>
      <point x="603" y="-330"/>
      <point x="474" y="-363"/>
      <point x="411" y="-363" type="qcurve" smooth="yes"/>
      <point x="327" y="-363"/>
      <point x="191" y="-309"/>
      <point x="143.0" y="-258.5" type="qcurve" smooth="yes" name="inserted"/>
      <point x="95" y="-208"/>
      <point x="43" y="-64"/>
      <point x="43" y="26" type="qcurve" smooth="yes"/>
      <point x="43" y="105"/>
      <point x="83" y="264"/>
      <point x="125.5" y="346.0" type="qcurve" smooth="yes" name="inserted"/>
      <point x="168" y="428"/>
      <point x="299" y="597"/>
      <point x="389" y="686" type="qcurve"/>
      <point x="377" y="685"/>
      <point x="363" y="685"/>
      <point x="356.0" y="685.0" type="qcurve" smooth="yes" name="inserted"/>
      <point x="349" y="685"/>
      <point x="331" y="685"/>
      <point x="313" y="685" type="qcurve" smooth="yes"/>
      <point x="32" y="685" type="line"/>
    </contour>
  </outline>
</glyph>
<glyph name="uni0DD1" format="1">
  <advance width="644"/>
  <unicode hex="0DD1"/>
  <outline>
    <contour>
      <point x="388" y="386" type="qcurve"/>
      <point x="367.5" y="383.5" name="inserted"/>
      <point x="274.5" y="377.5"/>
      <point x="202" y="374" type="qcurve" smooth="yes"/>
      <point x="133" y="371" type="line"/>
      <point x="83" y="493" type="line"/>
      <point x="153" y="542"/>
      <point x="305" y="638"/>
      <point x="387" y="687" type="qcurve"/>
      <point x="372" y="686"/>
      <point x="342" y="685"/>
      <point x="327" y="685" type="qcurve" smooth="yes"/>
      <point x="32" y="685" type="line"/>
      <point x="32" y="823" type="line"/>
      <point x="548" y="823" type="line"/>
      <point x="594" y="695" type="line"/>
      <point x="547.5" y="659.5" name="inserted"/>
      <point x="378.5" y="552.0"/>
      <point x="256" y="480" type="qcurve"/>
      <point x="293.5" y="483.5" name="inserted"/>
      <point x="392.0" y="489.5"/>
      <point x="453" y="492" type="qcurve" smooth="yes"/>
      <point x="548" y="496" type="line"/>
      <point x="593" y="371" type="line"/>
      <point x="494.0" y="318.0" name="inserted"/>
      <point x="351.5" y="223.0"/>
      <point x="308" y="181" type="qcurve" smooth="yes"/>
      <point x="264.0" y="138.5" name="inserted"/>
      <point x="220.0" y="40.5"/>
      <point x="220" y="-15" type="qcurve" smooth="yes"/>
      <point x="220" y="-103"/>
      <point x="331" y="-197"/>
      <point x="425" y="-197" type="qcurve" smooth="yes"/>
      <point x="451" y="-197"/>
      <point x="494" y="-193"/>
      <point x="513" y="-189" type="qcurve" smooth="yes"/>
      <point x="532" y="-185"/>
      <point x="581" y="-168"/>
      <point x="610" y="-155" type="qcurve"/>
      <point x="657" y="-286" type="line"/>
      <point x="596.0" y="-311.5" name="inserted"/>
      <point x="472.5" y="-337.0"/>
      <point x="410" y="-337" type="qcurve" smooth="yes"/>
      <point x="330.0" y="-337.0" name="inserted"/>
      <point x="204.0" y="-294.0"/>
      <point x="158" y="-251" type="qcurve" smooth="yes"/>
      <point x="112.5" y="-208.5" name="inserted"/>
      <point x="67.0" y="-90.5"/>
      <point x="67" y="-15" type="qcurve" smooth="yes"/>
      <point x="67.0" y="101.0" name="inserted"/>
      <point x="227.5" y="301.5"/>
    </contour>
  </outline>
</glyph>
<glyph name="uni0DD2" format="1">
  <advance width="0"/>
  <unicode hex="0DD2"/>
  <outline>
    <contour>
      <point x="-1205" y="1459" type="line"/>
      <point x="-1194" y="1480" type="line"/>
      <point x="-1145" y="1553"/>
      <point x="-1013" y="1673"/>
      <point x="-935.5" y="1715.5" type="qcurve" smooth="yes" name="inserted"/>
      <point x="-858" y="1758"/>
      <point x="-688" y="1804"/>
      <point x="-600" y="1804" type="qcurve" smooth="yes"/>
      <point x="-500" y="1804"/>
      <point x="-330" y="1747"/>
      <point x="-262.5" y="1695.5" type="qcurve" smooth="yes" name="inserted"/>
      <point x="-195" y="1644"/>
      <point x="-99" y="1498"/>
      <point x="-74" y="1409" type="qcurve" smooth="yes"/>
      <point x="-55" y="1340"/>
      <point x="-48" y="1206"/>
      <point x="-47" y="1137" type="qcurve" smooth="yes"/>
      <point x="-44" y="674" type="line"/>
      <point x="-225" y="674" type="line"/>
      <point x="-227" y="1137" type="line" smooth="yes"/>
      <point x="-226" y="1196"/>
      <point x="-234" y="1310"/>
      <point x="-248" y="1361" type="qcurve" smooth="yes"/>
      <point x="-264" y="1421"/>
      <point x="-326" y="1518"/>
      <point x="-370.5" y="1552.0" type="qcurve" smooth="yes" name="inserted"/>
      <point x="-415" y="1586"/>
      <point x="-528" y="1623"/>
      <point x="-596" y="1623" type="qcurve" smooth="yes"/>
      <point x="-702" y="1623"/>
      <point x="-900" y="1540"/>
      <point x="-979" y="1459" type="qcurve"/>
    </contour>
  </outline>
</glyph>
<glyph name="uni0DD4" format="1">
  <advance width="0"/>
  <unicode hex="0DD4"/>
  <outline>
    <contour>
      <point x="-85" y="-512" type="line"/>
      <point x="-914" y="-512" type="line" smooth="yes"/>
      <point x="-969" y="-512"/>
      <point x="-1074" y="-484"/>
      <point x="-1115.5" y="-453.5" type="qcurve" smooth="yes" name="inserted"/>
      <point x="-1157" y="-423"/>
      <point x="-1207" y="-328"/>
      <point x="-1207" y="-261" type="qcurve" smooth="yes"/>
      <point x="-1207" y="-217"/>
      <point x="-1178" y="-134"/>
      <point x="-1151" y="-100" type="qcurve"/>
      <point x="-1019" y="-206" type="line"/>
      <point x="-1028.5" y="-218.0" name="inserted"/>
      <point x="-1038.0" y="-246.5"/>
      <point x="-1038" y="-263" type="qcurve" smooth="yes"/>
      <point x="-1038" y="-287"/>
      <point x="-1018" y="-318"/>
      <point x="-1001.0" y="-327.0" type="qcurve" smooth="yes" name="inserted"/>
      <point x="-984" y="-336"/>
      <point x="-939" y="-343"/>
      <point x="-914" y="-343" type="qcurve" smooth="yes"/>
      <point x="-215" y="-343" type="line"/>
      <point x="-207" y="-301"/>
      <point x="-198" y="-217"/>
      <point x="-198" y="-174" type="qcurve" smooth="yes"/>
      <point x="-198" y="-98"/>
      <point x="-223" y="52"/>
      <point x="-249" y="124" type="qcurve"/>
      <point x="-89" y="181" type="line"/>
      <point x="-59" y="96"/>
      <point x="-29" y="-83"/>
      <point x="-29" y="-173" type="qcurve" smooth="yes"/>
      <point x="-29" y="-243"/>
      <point x="-47" y="-382"/>
      <point x="-67" y="-450" type="qcurve" smooth="yes"/>
    </contour>
  </outline>
</glyph>
<glyph name="uni0DD6" format="1">
  <advance width="0"/>
  <unicode hex="0DD6"/>
  <outline>
    <contour>
      <point x="-78" y="-596" type="line"/>
      <point x="-175" y="-561" type="line" smooth="yes"/>
      <point x="-243" y="-536"/>
      <point x="-381" y="-510"/>
      <point x="-453" y="-510" type="qcurve" smooth="yes"/>
      <point x="-510" y="-510"/>
      <point x="-616" y="-526"/>
      <point x="-675" y="-539" type="qcurve" smooth="yes"/>
      <point x="-729" y="-550"/>
      <point x="-839" y="-568"/>
      <point x="-900" y="-568" type="qcurve" smooth="yes"/>
      <point x="-967" y="-568"/>
      <point x="-1081" y="-528"/>
      <point x="-1123.0" y="-493.5" type="qcurve" smooth="yes" name="inserted"/>
      <point x="-1165" y="-459"/>
      <point x="-1212" y="-364"/>
      <point x="-1212" y="-308" type="qcurve" smooth="yes"/>
      <point x="-1212" y="-263"/>
      <point x="-1180" y="-179"/>
      <point x="-1148" y="-147" type="qcurve"/>
      <point x="-1025" y="-263" type="line"/>
      <point x="-1032" y="-273"/>
      <point x="-1042" y="-293"/>
      <point x="-1042" y="-308" type="qcurve" smooth="yes"/>
      <point x="-1042" y="-346"/>
      <point x="-961" y="-398"/>
      <point x="-891" y="-398" type="qcurve" smooth="yes"/>
      <point x="-856" y="-398"/>
      <point x="-785" y="-387"/>
      <point x="-749.0" y="-379.5" type="qcurve" smooth="yes" name="inserted"/>
      <point x="-713" y="-372"/>
      <point x="-637" y="-356"/>
      <point x="-598" y="-350" type="qcurve" smooth="yes"/>
      <point x="-561" y="-345"/>
      <point x="-489" y="-339"/>
      <point x="-453" y="-339" type="qcurve" smooth="yes"/>
      <point x="-392.5" y="-339.0" name="inserted"/>
      <point x="-274.0" y="-354.0"/>
      <point x="-216" y="-369" type="qcurve"/>
      <point x="-215" y="-357"/>
      <point x="-215" y="-333"/>
      <point x="-215" y="-321" type="qcurve" smooth="yes"/>
      <point x="-215" y="-217"/>
      <point x="-259" y="-21"/>
      <point x="-304" y="72" type="qcurve"/>
      <point x="-150" y="146" type="line"/>
      <point x="-99" y="38"/>
      <point x="-45" y="-194"/>
      <point x="-45" y="-314" type="qcurve" smooth="yes"/>
      <point x="-45" y="-360"/>
      <point x="-52" y="-450"/>
      <point x="-60" y="-495" type="qcurve" smooth="yes"/>
    </contour>
  </outline>
</glyph>
<glyph name="uni0DDB" format="1">
  <advance width="2452"/>
  <unicode hex="0DDB"/>
  <outline>
    <contour>
      <point x="1336" y="277" type="qcurve"/>
      <point x="1331.0" y="265.5" name="inserted"/>
      <point x="1326.0" y="242.0"/>
      <point x="1326" y="230" type="qcurve" smooth="yes"/>
      <point x="1326" y="204"/>
      <point x="1346" y="160"/>
      <point x="1363.0" y="143.5" type="qcurve" smooth="yes" name="inserted"/>
      <point x="1380" y="127"/>
      <point x="1425" y="109"/>
      <point x="1449" y="109" type="qcurve" smooth="yes"/>
      <point x="1475" y="109"/>
      <point x="1520" y="129"/>
      <point x="1536.5" y="145.5" type="qcurve" smooth="yes" name="inserted"/>
      <point x="1553" y="162"/>
      <point x="1572" y="206"/>
      <point x="1572" y="231" type="qcurve" smooth="yes"/>
      <point x="1572" y="257"/>
      <point x="1552" y="302"/>
      <point x="1535.5" y="318.5" type="qcurve" smooth="yes" name="inserted"/>
      <point x="1519" y="335"/>
      <point x="1476" y="354"/>
      <point x="1452" y="354" type="qcurve" smooth="yes"/>
      <point x="1434" y="354"/>
      <point x="1398" y="345"/>
      <point x="1382.5" y="335.0" type="qcurve" smooth="yes" name="inserted"/>
      <point x="1367" y="325"/>
      <point x="1342" y="296"/>
    </contour>
    <contour>
      <point x="405" y="240" type="qcurve"/>
      <point x="404.5" y="237.5" name="inserted"/>
      <point x="404.0" y="230.0"/>
      <point x="404" y="225" type="qcurve" smooth="yes"/>
      <point x="404" y="197"/>
      <point x="426" y="153"/>
      <point x="443.5" y="137.5" type="qcurve" smooth="yes" name="inserted"/>
      <point x="461" y="122"/>
      <point x="506" y="105"/>
      <point x="529" y="105" type="qcurve" smooth="yes"/>
      <point x="559" y="105"/>
      <point x="605" y="128"/>
      <point x="620.5" y="146.0" type="qcurve" smooth="yes" name="inserted"/>
      <point x="636" y="164"/>
      <point x="651" y="207"/>
      <point x="651" y="228" type="qcurve" smooth="yes"/>
      <point x="651" y="253"/>
      <point x="632" y="298"/>
      <point x="615.5" y="315.0" type="qcurve" smooth="yes" name="inserted"/>
      <point x="599" y="332"/>
      <point x="555" y="353"/>
      <point x="529" y="353" type="qcurve" smooth="yes"/>
      <point x="506" y="353"/>
      <point x="463" y="337"/>
      <point x="446.0" y="322.5" type="qcurve" smooth="yes" name="inserted"/>
      <point x="429" y="308"/>
      <point x="407" y="266"/>
    </contour>
    <contour>
      <point x="2338" y="647" type="qcurve" smooth="yes"/>
      <point x="2353.5" y="597.0" name="inserted"/>
      <point x="2369.0" y="492.5"/>
      <point x="2369" y="438" type="qcurve" smooth="yes"/>
      <point x="2369" y="372"/>
      <point x="2346" y="244"/>
      <point x="2323" y="183" type="qcurve"/>
      <point x="2186" y="237" type="line"/>
      <point x="2204.0" y="285.5" name="inserted"/>
      <point x="2222.0" y="386.5"/>
      <point x="2222" y="439" type="qcurve" smooth="yes"/>
      <point x="2222" y="512"/>
      <point x="2184" y="651"/>
      <point x="2149.0" y="713.0" type="qcurve" smooth="yes" name="inserted"/>
      <point x="2114" y="775"/>
      <point x="2018" y="880"/>
      <point x="1960.5" y="917.5" type="qcurve" smooth="yes" name="inserted"/>
      <point x="1903" y="955"/>
      <point x="1771" y="997"/>
      <point x="1702" y="997" type="qcurve" smooth="yes"/>
      <point x="1598" y="997"/>
      <point x="1419" y="913"/>
      <point x="1353.0" y="841.5" type="qcurve" smooth="yes" name="inserted"/>
      <point x="1287" y="770"/>
      <point x="1212" y="583"/>
      <point x="1212" y="481" type="qcurve" smooth="yes"/>
      <point x="1212.0" y="455.0" name="inserted"/>
      <point x="1216.5" y="403.5"/>
      <point x="1221" y="378" type="qcurve"/>
      <point x="1260" y="433"/>
      <point x="1376" y="504"/>
      <point x="1447" y="504" type="qcurve" smooth="yes"/>
      <point x="1509" y="504"/>
      <point x="1610" y="457"/>
      <point x="1645.5" y="418.0" type="qcurve" smooth="yes" name="inserted"/>
      <point x="1681" y="379"/>
      <point x="1720" y="281"/>
      <point x="1720" y="230" type="qcurve" smooth="yes"/>
      <point x="1720" y="174"/>
      <point x="1677" y="76"/>
      <point x="1640.0" y="39.5" type="qcurve" smooth="yes" name="inserted"/>
      <point x="1603" y="3"/>
      <point x="1504" y="-39"/>
      <point x="1449" y="-39" type="qcurve" smooth="yes"/>
      <point x="1367" y="-39"/>
      <point x="1226" y="41"/>
      <point x="1174.5" y="110.5" type="qcurve" smooth="yes" name="inserted"/>
      <point x="1123" y="180"/>
      <point x="1064" y="369"/>
      <point x="1064" y="478" type="qcurve" smooth="yes"/>
      <point x="1064" y="561"/>
      <point x="1103" y="725"/>
      <point x="1142" y="798" type="qcurve"/>
      <point x="1100" y="847"/>
      <point x="996" y="925"/>
      <point x="938.0" y="952.0" type="qcurve" smooth="yes" name="inserted"/>
      <point x="880" y="979"/>
      <point x="756" y="1007"/>
      <point x="694" y="1007" type="qcurve" smooth="yes"/>
      <point x="590" y="1007"/>
      <point x="416" y="932"/>
      <point x="352.0" y="867.5" type="qcurve" smooth="yes" name="inserted"/>
      <point x="288" y="803"/>
      <point x="217" y="630"/>
      <point x="217" y="531" type="qcurve" smooth="yes"/>
      <point x="217.0" y="472.0" name="inserted"/>
      <point x="242.0" y="359.0"/>
      <point x="267" y="305" type="qcurve"/>
      <point x="279" y="345"/>
      <point x="327" y="417"/>
      <point x="361.0" y="443.0" type="qcurve" smooth="yes" name="inserted"/>
      <point x="395" y="469"/>
      <point x="480" y="500"/>
      <point x="527" y="500" type="qcurve" smooth="yes"/>
      <point x="586" y="500"/>
      <point x="686" y="455"/>
      <point x="722.0" y="417.5" type="qcurve" smooth="yes" name="inserted"/>
      <point x="758" y="380"/>
      <point x="799" y="281"/>
      <point x="799" y="227" type="qcurve" smooth="yes"/>
      <point x="799" y="172"/>
      <point x="756" y="72"/>
      <point x="717.5" y="34.5" type="qcurve" smooth="yes" name="inserted"/>
      <point x="679" y="-3"/>
      <point x="575" y="-47"/>
      <point x="515" y="-47" type="qcurve" smooth="yes"/>
      <point x="423" y="-47"/>
      <point x="261" y="53"/>
      <point x="200.0" y="134.5" type="qcurve" smooth="yes" name="inserted"/>
      <point x="139" y="216"/>
      <point x="69" y="423"/>
      <point x="69" y="531" type="qcurve" smooth="yes"/>
      <point x="69" y="618"/>
      <point x="113" y="778"/>
      <point x="153.0" y="847.5" type="qcurve" smooth="yes" name="inserted"/>
      <point x="193" y="917"/>
      <point x="306" y="1030"/>
      <point x="375.0" y="1070.5" type="qcurve" smooth="yes" name="inserted"/>
      <point x="444" y="1111"/>
      <point x="605" y="1155"/>
      <point x="692" y="1155" type="qcurve" smooth="yes"/>
      <point x="766" y="1155"/>
      <point x="913" y="1123"/>
      <point x="982.0" y="1093.0" type="qcurve" smooth="yes" name="inserted"/>
      <point x="1051" y="1063"/>
      <point x="1175" y="978"/>
      <point x="1228" y="924" type="qcurve"/>
      <point x="1228.0" y="925.0" name="inserted"/>
      <point x="1229.0" y="926.5"/>
      <point x="1230" y="927" type="qcurve"/>
      <point x="1274" y="978"/>
      <point x="1381" y="1058"/>
      <point x="1441.0" y="1086.0" type="qcurve" smooth="yes" name="inserted"/>
      <point x="1501" y="1114"/>
      <point x="1632" y="1144"/>
      <point x="1700" y="1144" type="qcurve" smooth="yes"/>
      <point x="1805" y="1144"/>
      <point x="2006" y="1071"/>
      <point x="2091.0" y="1005.0" type="qcurve" smooth="yes" name="inserted"/>
      <point x="2176" y="939"/>
      <point x="2305" y="756"/>
    </contour>
  </outline>
</glyph>
<glyph name="uni0DDF" format="1">
  <advance width="1481"/>
  <unicode hex="0DDF"/>
  <outline>
    <contour>
      <point x="327" y="616" type="qcurve" smooth="yes"/>
      <point x="327" y="600"/>
      <point x="339" y="571"/>
      <point x="349.5" y="559.5" type="qcurve" smooth="yes" name="inserted"/>
      <point x="360" y="548"/>
      <point x="389" y="535"/>
      <point x="406" y="535" type="qcurve" smooth="yes"/>
      <point x="422" y="535"/>
      <point x="451" y="548"/>
      <point x="462.0" y="558.5" type="qcurve" smooth="yes" name="inserted"/>
      <point x="473" y="569"/>
      <point x="486" y="598"/>
      <point x="486" y="614" type="qcurve" smooth="yes"/>
      <point x="486" y="648"/>
      <point x="440" y="695"/>
      <point x="408" y="695" type="qcurve" smooth="yes"/>
      <point x="374" y="696"/>
      <point x="327" y="649"/>
    </contour>
    <contour>
      <point x="1421" y="131" type="line"/>
      <point x="1323" y="115"/>
      <point x="1136" y="167"/>
      <point x="1065" y="227" type="qcurve" smooth="yes"/>
      <point x="1019.5" y="267.0" name="inserted"/>
      <point x="949.5" y="375.0"/>
      <point x="925" y="443" type="qcurve" smooth="yes"/>
      <point x="906" y="496"/>
      <point x="884" y="602"/>
      <point x="873" y="653" type="qcurve"/>
      <point x="872" y="660" type="line"/>
      <point x="861" y="714"/>
      <point x="841" y="804"/>
      <point x="824" y="845" type="qcurve" smooth="yes"/>
      <point x="808.0" y="888.0" name="inserted"/>
      <point x="765.0" y="952.0"/>
      <point x="738" y="973" type="qcurve" smooth="yes"/>
      <point x="709" y="996"/>
      <point x="634" y="1019"/>
      <point x="595" y="1018" type="qcurve" smooth="yes"/>
      <point x="555.5" y="1016.5" name="inserted"/>
      <point x="480.5" y="989.5"/>
      <point x="445" y="964" type="qcurve" smooth="yes"/>
      <point x="420.5" y="946.0" name="inserted"/>
      <point x="378.5" y="900.0"/>
      <point x="361" y="872" type="qcurve"/>
      <point x="369.0" y="874.0" name="inserted"/>
      <point x="388.0" y="876.0"/>
      <point x="399" y="876" type="qcurve" smooth="yes"/>
      <point x="445" y="876"/>
      <point x="531" y="847"/>
      <point x="567" y="818" type="qcurve" smooth="yes"/>
      <point x="602" y="790"/>
      <point x="650" y="712"/>
      <point x="661" y="666" type="qcurve"/>
      <point x="663" y="654"/>
      <point x="665" y="627"/>
      <point x="665" y="613" type="qcurve" smooth="yes"/>
      <point x="665.0" y="566.0" name="inserted"/>
      <point x="635.0" y="483.5"/>
      <point x="605" y="448" type="qcurve" smooth="yes"/>
      <point x="567" y="403"/>
      <point x="460" y="353"/>
      <point x="400" y="355" type="qcurve" smooth="yes"/>
      <point x="361" y="355"/>
      <point x="285" y="381"/>
      <point x="251" y="405" type="qcurve" smooth="yes"/>
      <point x="234" y="416"/>
      <point x="203" y="446"/>
      <point x="189" y="463" type="qcurve"/>
      <point x="181" y="471" type="line"/>
      <point x="174" y="482"/>
      <point x="160" y="504"/>
      <point x="155" y="515" type="qcurve"/>
      <point x="133.0" y="555.5" name="inserted"/>
      <point x="111.0" y="648.5"/>
      <point x="111" y="701" type="qcurve" smooth="yes"/>
      <point x="111" y="718"/>
      <point x="115" y="756"/>
      <point x="117" y="774" type="qcurve" smooth="yes"/>
      <point x="134" y="880"/>
      <point x="245" y="1063"/>
      <point x="330" y="1125" type="qcurve" smooth="yes"/>
      <point x="387" y="1167"/>
      <point x="520" y="1212"/>
      <point x="589" y="1214" type="qcurve" smooth="yes"/>
      <point x="664" y="1217"/>
      <point x="803" y="1173"/>
      <point x="860" y="1128" type="qcurve" smooth="yes"/>
      <point x="908" y="1091"/>
      <point x="982" y="985"/>
      <point x="1009" y="918" type="qcurve" smooth="yes"/>
      <point x="1032" y="861"/>
      <point x="1056" y="746"/>
      <point x="1065" y="698" type="qcurve"/>
      <point x="1067" y="690" type="line"/>
      <point x="1076" y="642"/>
      <point x="1096" y="552"/>
      <point x="1111" y="510" type="qcurve" smooth="yes"/>
      <point x="1127.0" y="466.5" name="inserted"/>
      <point x="1169.0" y="400.5"/>
      <point x="1195" y="378" type="qcurve" smooth="yes"/>
      <point x="1233" y="344"/>
      <point x="1336" y="317"/>
      <point x="1391" y="326" type="qcurve"/>
    </contour>
  </outline>
</glyph>
<glyph name="uni0DF3" format="1">
  <advance width="1082"/>
  <unicode hex="0DF3"/>
  <outline>
    <contour>
      <point x="334" y="945" type="line"/>
      <point x="390" y="1046"/>
      <point x="534" y="1137"/>
      <point x="629" y="1137" type="qcurve" smooth="yes"/>
      <point x="715" y="1137"/>
      <point x="852" y="1063"/>
      <point x="899.5" y="991.5" type="qcurve" smooth="yes" name="inserted"/>
      <point x="947" y="920"/>
      <point x="998" y="709"/>
      <point x="998" y="572" type="qcurve" smooth="yes"/>
      <point x="998" y="275"/>
      <point x="763" y="-22"/>
      <point x="522" y="-22" type="qcurve" smooth="yes"/>
      <point x="444" y="-22"/>
      <point x="320" y="11"/>
      <point x="277.0" y="42.5" type="qcurve" smooth="yes" name="inserted"/>
      <point x="234" y="74"/>
      <point x="189" y="165"/>
      <point x="189" y="222" type="qcurve" smooth="yes"/>
      <point x="189" y="327"/>
      <point x="325" y="450"/>
      <point x="452" y="450" type="qcurve" smooth="yes"/>
      <point x="495" y="450"/>
      <point x="578" y="431"/>
      <point x="620.0" y="411.0" type="qcurve" smooth="yes" name="inserted"/>
      <point x="662" y="391"/>
      <point x="750" y="325"/>
      <point x="798" y="279" type="qcurve"/>
      <point x="820.5" y="333.5" name="inserted"/>
      <point x="843.0" y="480.0"/>
      <point x="843" y="572" type="qcurve" smooth="yes"/>
      <point x="843" y="783"/>
      <point x="722" y="1004"/>
      <point x="613" y="1004" type="qcurve" smooth="yes"/>
      <point x="580.0" y="1004.0" name="inserted"/>
      <point x="525.5" y="983.5"/>
      <point x="504" y="963" type="qcurve"/>
      <point x="585" y="959"/>
      <point x="674" y="862"/>
      <point x="674" y="778" type="qcurve" smooth="yes"/>
      <point x="674.0" y="722.0" name="inserted"/>
      <point x="635.0" y="631.5"/>
      <point x="596" y="597" type="qcurve" smooth="yes"/>
      <point x="557.5" y="562.5" name="inserted"/>
      <point x="448.5" y="528.0"/>
      <point x="378" y="528" type="qcurve" smooth="yes"/>
      <point x="301" y="526"/>
      <point x="180" y="573"/>
      <point x="138.0" y="616.5" type="qcurve" smooth="yes" name="inserted"/>
      <point x="96" y="660"/>
      <point x="53" y="783"/>
      <point x="54" y="858" type="qcurve" smooth="yes"/>
      <point x="54.0" y="930.5" name="inserted"/>
      <point x="90.5" y="1070.0"/>
      <point x="127" y="1137" type="qcurve"/>
      <point x="264" y="1096" type="line"/>
      <point x="231.5" y="1034.0" name="inserted"/>
      <point x="199.0" y="914.5"/>
      <point x="199" y="857" type="qcurve" smooth="yes"/>
      <point x="199" y="760"/>
      <point x="291" y="660"/>
      <point x="379" y="660" type="qcurve" smooth="yes"/>
      <point x="451" y="660"/>
      <point x="534" y="725"/>
      <point x="534" y="783" type="qcurve" smooth="yes"/>
      <point x="534" y="821"/>
      <point x="496" y="865"/>
      <point x="466" y="865" type="qcurve" smooth="yes"/>
      <point x="458.0" y="865.0" name="inserted"/>
      <point x="438.0" y="861.0"/>
      <point x="426" y="857" type="qcurve"/>
    </contour>
    <contour>
      <point x="720" y="171" type="qcurve"/>
      <point x="648.5" y="243.0" name="inserted"/>
      <point x="515.0" y="315.0"/>
      <point x="453" y="315" type="qcurve" smooth="yes"/>
      <point x="395" y="315"/>
      <point x="335" y="266"/>
      <point x="335" y="223" type="qcurve" smooth="yes"/>
      <point x="335" y="169"/>
      <point x="432" y="115"/>
      <point x="520" y="115" type="qcurve" smooth="yes"/>
      <point x="585.0" y="115.0" name="inserted"/>
      <point x="685.0" y="143.0"/>
    </contour>
  </outline>
</glyph>
<glyph name="uni0DF4" format="1">
  <advance width="2586"/>
  <unicode hex="0DF4"/>
  <outline>
    <contour>
      <point x="647" y="137" type="line"/>
      <point x="646" y="144"/>
      <point x="634" y="203"/>
      <point x="622" y="257" type="qcurve" smooth="yes"/>
      <point x="611" y="310" type="line"/>
      <point x="545" y="153"/>
      <point x="387" y="0"/>
      <point x="287" y="0" type="qcurve" smooth="yes"/>
      <point x="193" y="0"/>
      <point x="73" y="99"/>
      <point x="44" y="205" type="qcurve"/>
      <point x="184" y="246" type="line"/>
      <point x="193" y="197"/>
      <point x="247" y="140"/>
      <point x="287" y="140" type="qcurve" smooth="yes"/>
      <point x="310.5" y="140.0" name="inserted"/>
      <point x="354.5" y="154.5"/>
      <point x="375" y="169" type="qcurve" smooth="yes"/>
      <point x="396" y="184"/>
      <point x="441" y="240"/>
      <point x="465.5" y="285.5" type="qcurve" smooth="yes" name="inserted"/>
      <point x="490" y="331"/>
      <point x="543" y="459"/>
      <point x="571" y="546" type="qcurve"/>
      <point x="662" y="536" type="line"/>
      <point x="673.0" y="471.5" name="inserted"/>
      <point x="694.0" y="375.0"/>
      <point x="704" y="343" type="qcurve"/>
      <point x="728" y="408"/>
      <point x="823" y="639"/>
      <point x="895" y="809" type="qcurve"/>
      <point x="990" y="787" type="line"/>
      <point x="995" y="736"/>
      <point x="1022" y="581"/>
      <point x="1045" y="474" type="qcurve"/>
      <point x="1069" y="529"/>
      <point x="1128" y="651"/>
      <point x="1163" y="719" type="qcurve" smooth="yes"/>
      <point x="1198" y="787"/>
      <point x="1256" y="890"/>
      <point x="1279" y="926" type="qcurve"/>
      <point x="1377" y="903" type="line"/>
      <point x="1378" y="855"/>
      <point x="1389" y="667"/>
      <point x="1399" y="525" type="qcurve"/>
      <point x="1478.5" y="643.5" name="inserted"/>
      <point x="1608.0" y="815.0"/>
      <point x="1658" y="868" type="qcurve"/>
      <point x="1751" y="842" type="line"/>
      <point x="1733.5" y="716.5" name="inserted"/>
      <point x="1709.5" y="508.0"/>
      <point x="1703" y="425" type="qcurve"/>
      <point x="1773" y="497"/>
      <point x="1885" y="609"/>
      <point x="1930" y="650" type="qcurve"/>
      <point x="2013" y="620" type="line"/>
      <point x="1993" y="545"/>
      <point x="1958" y="377"/>
      <point x="1943" y="280" type="qcurve"/>
      <point x="1976.0" y="318.0" name="inserted"/>
      <point x="2049.5" y="392.0"/>
      <point x="2090" y="428" type="qcurve"/>
      <point x="2172" y="398" type="line"/>
      <point x="2173.5" y="322.0" name="inserted"/>
      <point x="2190.0" y="215.0"/>
      <point x="2205" y="184" type="qcurve" smooth="yes"/>
      <point x="2220.5" y="154.0" name="inserted"/>
      <point x="2269.0" y="124.0"/>
      <point x="2302" y="124" type="qcurve" smooth="yes"/>
      <point x="2346.5" y="124.0" name="inserted"/>
      <point x="2391.0" y="170.0"/>
      <point x="2391" y="216" type="qcurve" smooth="yes"/>
      <point x="2391.0" y="230.0" name="inserted"/>
      <point x="2388.0" y="256.0"/>
      <point x="2385" y="268" type="qcurve"/>
      <point x="2524" y="291" type="line"/>
      <point x="2529.0" y="270.5" name="inserted"/>
      <point x="2534.0" y="225.5"/>
      <point x="2534" y="201" type="qcurve" smooth="yes"/>
      <point x="2534.0" y="151.0" name="inserted"/>
      <point x="2503.5" y="73.5"/>
      <point x="2473" y="46" type="qcurve" smooth="yes"/>
      <point x="2442.0" y="18.0" name="inserted"/>
      <point x="2363.0" y="-10.0"/>
      <point x="2315" y="-10" type="qcurve" smooth="yes"/>
      <point x="2260.0" y="-10.0" name="inserted"/>
      <point x="2170.0" y="26.0"/>
      <point x="2135" y="62" type="qcurve" smooth="yes"/>
      <point x="2099.5" y="98.0" name="inserted"/>
      <point x="2057.5" y="195.5"/>
      <point x="2051" y="257" type="qcurve"/>
      <point x="1996" y="203"/>
      <point x="1915" y="117"/>
      <point x="1888" y="84" type="qcurve"/>
      <point x="1792" y="116" type="line"/>
      <point x="1809" y="227"/>
      <point x="1833" y="372"/>
      <point x="1841" y="408" type="qcurve"/>
      <point x="1777" y="345"/>
      <point x="1683" y="247"/>
      <point x="1652" y="211" type="qcurve"/>
      <point x="1560" y="246" type="line"/>
      <point x="1593" y="627" type="line"/>
      <point x="1532" y="543"/>
      <point x="1423" y="376"/>
      <point x="1373" y="291" type="qcurve"/>
      <point x="1296" y="312" type="line"/>
      <point x="1268" y="671" type="line"/>
      <point x="1202" y="533"/>
      <point x="1106" y="308"/>
      <point x="1075" y="220" type="qcurve"/>
      <point x="978" y="248" type="line"/>
      <point x="944" y="404" type="line" smooth="yes"/>
      <point x="936" y="439"/>
      <point x="920" y="507"/>
      <point x="912" y="541" type="qcurve"/>
      <point x="877" y="468"/>
      <point x="788" y="256"/>
      <point x="734" y="116" type="qcurve"/>
    </contour>
  </outline>
</glyph>
<glyph name="quotedblleft" format="1">
  <advance width="866"/>
  <unicode hex="201C"/>
  <outline>
    <contour>
      <point x="478" y="1136" type="line"/>
      <point x="464" y="1158" type="line"/>
      <point x="491.5" y="1262.5" name="inserted"/>
      <point x="581.0" y="1502.0"/>
      <point x="643" y="1637" type="qcurve"/>
      <point x="776" y="1637" type="line"/>
      <point x="738.5" y="1497.5" name="inserted"/>
      <point x="683.0" y="1247.0"/>
      <point x="665" y="1136" type="qcurve"/>
    </contour>
    <contour>
      <point x="102" y="1136" type="line"/>
      <point x="90" y="1158" type="line"/>
      <point x="118" y="1267"/>
      <point x="206" y="1505"/>
      <point x="266" y="1637" type="qcurve"/>
      <point x="397" y="1637" type="line"/>
      <point x="359.5" y="1497.5" name="inserted"/>
      <point x="304.0" y="1247.0"/>
      <point x="286" y="1136" type="qcurve"/>
    </contour>
  </outline>
</glyph>
<glyph name="quotedblright" format="1">
  <advance width="866"/>
  <unicode hex="201D"/>
  <outline>
    <contour>
      <point x="383" y="1637" type="line"/>
      <point x="397" y="1615" type="line"/>
      <point x="371.5" y="1516.5" name="inserted"/>
      <point x="283.5" y="1277.0"/>
      <point x="221" y="1136" type="qcurve"/>
      <point x="90" y="1136" type="line"/>
      <point x="123.5" y="1263.5" name="inserted"/>
      <point x="177.5" y="1514.0"/>
      <point x="198" y="1637" type="qcurve"/>
    </contour>
    <contour>
      <point x="762" y="1637" type="line"/>
      <point x="776" y="1615" type="line"/>
      <point x="750.5" y="1516.5" name="inserted"/>
      <point x="662.5" y="1277.0"/>
      <point x="600" y="1136" type="qcurve"/>
      <point x="464" y="1136" type="line"/>
      <point x="504" y="1285"/>
      <point x="560" y="1534"/>
      <point x="577" y="1637" type="qcurve"/>
    </contour>
  </outline>
</glyph>
<glyph name="ellipsis" format="1">
  <advance width="1620"/>
  <unicode hex="2026"/>
  <outline>
    <contour>
      <point x="272" y="244" type="qcurve" smooth="yes"/>
      <point x="327" y="244"/>
      <point x="395" y="182"/>
      <point x="395" y="113" type="qcurve" smooth="yes"/>
      <point x="395" y="49"/>
      <point x="329" y="-21"/>
      <point x="272" y="-21" type="qcurve" smooth="yes"/>
      <point x="218" y="-21"/>
      <point x="153" y="46"/>
      <point x="153" y="113" type="qcurve" smooth="yes"/>
      <point x="153" y="179"/>
      <point x="215" y="244"/>
    </contour>
    <contour>
      <point x="809" y="244" type="qcurve" smooth="yes"/>
      <point x="864" y="244"/>
      <point x="930" y="180"/>
      <point x="930" y="113" type="qcurve" smooth="yes"/>
      <point x="930" y="49"/>
      <point x="866" y="-21"/>
      <point x="809" y="-21" type="qcurve" smooth="yes"/>
      <point x="751" y="-21"/>
      <point x="690" y="49"/>
      <point x="690" y="113" type="qcurve" smooth="yes"/>
      <point x="690.0" y="178.5" name="inserted"/>
      <point x="749.5" y="244.0"/>
    </contour>
    <contour>
      <point x="1343" y="244" type="qcurve" smooth="yes"/>
      <point x="1403" y="244"/>
      <point x="1467" y="177"/>
      <point x="1467" y="113" type="qcurve" smooth="yes"/>
      <point x="1467" y="49"/>
      <point x="1403" y="-21"/>
      <point x="1343" y="-21" type="qcurve" smooth="yes"/>
      <point x="1286" y="-21"/>
      <point x="1225" y="50"/>
      <point x="1225" y="113" type="qcurve" smooth="yes"/>
      <point x="1225" y="177"/>
      <point x="1286" y="244"/>
    </contour>
  </outline>
</glyph>
<glyph name="uni25CC" format="1">
  <advance width="1274"/>
  <unicode hex="25CC"/>
  <outline>
    <contour>
      <point x="638" y="969" type="qcurve" smooth="yes"/>
      <point x="600.5" y="969.0" name="inserted"/>
      <point x="563.0" y="1006.5"/>
      <point x="563" y="1044" type="qcurve" smooth="yes"/>
      <point x="563.0" y="1081.0" name="inserted"/>
      <point x="600.5" y="1118.0"/>
      <point x="638" y="1118" type="qcurve" smooth="yes"/>
      <point x="674.5" y="1118.0" name="inserted"/>
      <point x="711.0" y="1081.0"/>
      <point x="711" y="1044" type="qcurve" smooth="yes"/>
      <point x="711.0" y="1006.5" name="inserted"/>
      <point x="674.5" y="969.0"/>
    </contour>
    <contour>
      <point x="306" y="841" type="qcurve" smooth="yes"/>
      <point x="268.5" y="841.0" name="inserted"/>
      <point x="231.0" y="878.0"/>
      <point x="231" y="915" type="qcurve" smooth="yes"/>
      <point x="231.0" y="953.0" name="inserted"/>
      <point x="268.5" y="991.0"/>
      <point x="306" y="991" type="qcurve" smooth="yes"/>
      <point x="343.0" y="991.0" name="inserted"/>
      <point x="380.0" y="953.0"/>
      <point x="380" y="915" type="qcurve" smooth="yes"/>
      <point x="380.0" y="878.0" name="inserted"/>
      <point x="343.0" y="841.0"/>
    </contour>
    <contour>
      <point x="968" y="841" type="qcurve" smooth="yes"/>
      <point x="931.0" y="841.0" name="inserted"/>
      <point x="894.0" y="878.0"/>
      <point x="894" y="915" type="qcurve" smooth="yes"/>
      <point x="894.0" y="953.0" name="inserted"/>
      <point x="931.0" y="991.0"/>
      <point x="968" y="991" type="qcurve" smooth="yes"/>
      <point x="1005.5" y="991.0" name="inserted"/>
      <point x="1043.0" y="953.0"/>
      <point x="1043" y="915" type="qcurve" smooth="yes"/>
      <point x="1043.0" y="878.0" name="inserted"/>
      <point x="1005.5" y="841.0"/>
    </contour>
    <contour>
      <point x="1083" y="520" type="qcurve" smooth="yes"/>
      <point x="1045.5" y="520.0" name="inserted"/>
      <point x="1008.0" y="556.5"/>
      <point x="1008" y="593" type="qcurve" smooth="yes"/>
      <point x="1008.0" y="631.0" name="inserted"/>
      <point x="1045.5" y="669.0"/>
      <point x="1083" y="669" type="qcurve" smooth="yes"/>
      <point x="1119.5" y="669.0" name="inserted"/>
      <point x="1156.0" y="631.0"/>
      <point x="1156" y="593" type="qcurve" smooth="yes"/>
      <point x="1156.0" y="556.5" name="inserted"/>
      <point x="1119.5" y="520.0"/>
    </contour>
    <contour>
      <point x="192" y="520" type="qcurve" smooth="yes"/>
      <point x="154.5" y="520.0" name="inserted"/>
      <point x="117.0" y="556.5"/>
      <point x="117" y="593" type="qcurve" smooth="yes"/>
      <point x="117.0" y="631.0" name="inserted"/>
      <point x="154.5" y="669.0"/>
      <point x="192" y="669" type="qcurve" smooth="yes"/>
      <point x="228.5" y="669.0" name="inserted"/>
      <point x="265.0" y="631.0"/>
      <point x="265" y="593" type="qcurve" smooth="yes"/>
      <point x="265.0" y="556.5" name="inserted"/>
      <point x="228.5" y="520.0"/>
    </contour>
    <contour>
      <point x="306" y="197" type="qcurve" smooth="yes"/>
      <point x="268.5" y="197.0" name="inserted"/>
      <point x="231.0" y="234.5"/>
      <point x="231" y="272" type="qcurve" smooth="yes"/>
      <point x="231.0" y="309.5" name="inserted"/>
      <point x="268.5" y="347.0"/>
      <point x="306" y="347" type="qcurve" smooth="yes"/>
      <point x="343.0" y="347.0" name="inserted"/>
      <point x="380.0" y="309.5"/>
      <point x="380" y="272" type="qcurve" smooth="yes"/>
      <point x="380.0" y="234.5" name="inserted"/>
      <point x="343.0" y="197.0"/>
    </contour>
    <contour>
      <point x="968" y="197" type="qcurve" smooth="yes"/>
      <point x="931.0" y="197.0" name="inserted"/>
      <point x="894.0" y="234.5"/>
      <point x="894" y="272" type="qcurve" smooth="yes"/>
      <point x="894.0" y="309.5" name="inserted"/>
      <point x="931.0" y="347.0"/>
      <point x="968" y="347" type="qcurve" smooth="yes"/>
      <point x="1005.5" y="347.0" name="inserted"/>
      <point x="1043.0" y="309.5"/>
      <point x="1043" y="272" type="qcurve" smooth="yes"/>
      <point x="1043.0" y="234.5" name="inserted"/>
      <point x="1005.5" y="197.0"/>
    </contour>
    <contour>
      <point x="638" y="70" type="qcurve" smooth="yes"/>
      <point x="600.5" y="70.0" name="inserted"/>
      <point x="563.0" y="106.5"/>
      <point x="563" y="143" type="qcurve" smooth="yes"/>
      <point x="563.0" y="181.0" name="inserted"/>
      <point x="600.5" y="219.0"/>
      <point x="638" y="219" type="qcurve" smooth="yes"/>
      <point x="674.5" y="219.0" name="inserted"/>
      <point x="711.0" y="181.0"/>
      <point x="711" y="143" type="qcurve" smooth="yes"/>
      <point x="711.0" y="106.5" name="inserted"/>
      <point x="674.5" y="70.0"/>
    </contour>
  </outline>
</glyph>
<glyph name="_102" format="1">
  <advance width="633"/>
  <outline>
    <contour>
      <point x="32" y="425" type="line"/>
      <point x="553" y="425" type="line"/>
      <point x="603" y="289" type="line"/>
      <point x="508.5" y="218.0" name="inserted"/>
      <point x="366.0" y="87.0"/>
      <point x="318" y="27" type="qcurve" smooth="yes"/>
      <point x="269.0" y="-33.5" name="inserted"/>
      <point x="220.0" y="-160.5"/>
      <point x="220" y="-227" type="qcurve" smooth="yes"/>
      <point x="220" y="-321"/>
      <point x="315" y="-415"/>
      <point x="425" y="-415" type="qcurve" smooth="yes"/>
      <point x="471.5" y="-415.0" name="inserted"/>
      <point x="564.0" y="-394.0"/>
      <point x="610" y="-373" type="qcurve"/>
      <point x="657" y="-504" type="line"/>
      <point x="596.0" y="-529.5" name="inserted"/>
      <point x="472.5" y="-555.0"/>
      <point x="410" y="-555" type="qcurve" smooth="yes"/>
      <point x="236" y="-555"/>
      <point x="67" y="-393"/>
      <point x="67" y="-235" type="qcurve" smooth="yes"/>
      <point x="67.0" y="-98.5" name="inserted"/>
      <point x="240.5" y="163.5"/>
      <point x="414" y="289" type="qcurve"/>
      <point x="392" y="288"/>
      <point x="342" y="287"/>
      <point x="313" y="287" type="qcurve" smooth="yes"/>
      <point x="32" y="287" type="line"/>
    </contour>
  </outline>
</glyph>
<glyph name="_105" format="1">
  <advance width="0"/>
  <outline>
    <contour>
      <point x="-1514" y="-69" type="line"/>
      <point x="-1514" y="-79" type="line" smooth="yes"/>
      <point x="-1514" y="-161"/>
      <point x="-1449" y="-262"/>
      <point x="-1379" y="-295" type="qcurve" smooth="yes"/>
      <point x="-1310" y="-328"/>
      <point x="-1077" y="-362"/>
      <point x="-900" y="-362" type="qcurve" smooth="yes"/>
      <point x="-721" y="-362"/>
      <point x="-482" y="-319"/>
      <point x="-416" y="-280" type="qcurve" smooth="yes"/>
      <point x="-350" y="-241"/>
      <point x="-290" y="-126"/>
      <point x="-290" y="-36" type="qcurve" smooth="yes"/>
      <point x="-290" y="-21" type="line"/>
      <point x="-141" y="-11" type="line"/>
      <point x="-140" y="-21"/>
      <point x="-140" y="-47"/>
      <point x="-140" y="-63" type="qcurve" smooth="yes"/>
      <point x="-140" y="-153"/>
      <point x="-183" y="-282"/>
      <point x="-232" y="-335" type="qcurve" smooth="yes"/>
      <point x="-267" y="-376"/>
      <point x="-390" y="-440"/>
      <point x="-475.0" y="-462.5" type="qcurve" smooth="yes" name="inserted"/>
      <point x="-560" y="-485"/>
      <point x="-774" y="-508"/>
      <point x="-900" y="-507" type="qcurve" smooth="yes"/>
      <point x="-1133" y="-507"/>
      <point x="-1441" y="-444"/>
      <point x="-1519" y="-390" type="qcurve" smooth="yes"/>
      <point x="-1598" y="-337"/>
      <point x="-1664" y="-201"/>
      <point x="-1664" y="-103" type="qcurve" smooth="yes"/>
      <point x="-1664" y="-81" type="line" smooth="yes"/>
      <point x="-1664" y="-76"/>
      <point x="-1664" y="-68"/>
      <point x="-1663" y="-63" type="qcurve"/>
    </contour>
  </outline>
</glyph>
<glyph name="_106" format="1">
  <advance width="0"/>
  <outline>
    <contour>
      <point x="-1567" y="-20" type="line"/>
      <point x="-1567" y="-30" type="line" smooth="yes"/>
      <point x="-1567" y="-110"/>
      <point x="-1530" y="-206"/>
      <point x="-1492" y="-242" type="qcurve" smooth="yes"/>
      <point x="-1464" y="-269"/>
      <point x="-1372" y="-313"/>
      <point x="-1303.5" y="-329.0" type="qcurve" smooth="yes" name="inserted"/>
      <point x="-1235" y="-345"/>
      <point x="-1050" y="-362"/>
      <point x="-928" y="-362" type="qcurve" smooth="yes"/>
      <point x="-750" y="-362"/>
      <point x="-510" y="-319"/>
      <point x="-437" y="-277" type="qcurve" smooth="yes"/>
      <point x="-401" y="-256"/>
      <point x="-347" y="-204"/>
      <point x="-328.5" y="-168.5" type="qcurve" smooth="yes" name="inserted"/>
      <point x="-310" y="-133"/>
      <point x="-292" y="-43"/>
      <point x="-292" y="16" type="qcurve" smooth="yes"/>
      <point x="-292" y="33" type="line"/>
      <point x="-143" y="44" type="line"/>
      <point x="-142" y="21" type="line" smooth="yes"/>
      <point x="-142" y="-17"/>
      <point x="-146" y="-85"/>
      <point x="-150" y="-115" type="qcurve" smooth="yes"/>
      <point x="-158" y="-176"/>
      <point x="-220" y="-298"/>
      <point x="-274" y="-346" type="qcurve" smooth="yes"/>
      <point x="-313" y="-383"/>
      <point x="-437" y="-443"/>
      <point x="-519.5" y="-464.0" type="qcurve" smooth="yes" name="inserted"/>
      <point x="-602" y="-485"/>
      <point x="-808" y="-508"/>
      <point x="-928" y="-507" type="qcurve" smooth="yes"/>
      <point x="-1122" y="-506"/>
      <point x="-1416" y="-457"/>
      <point x="-1515.5" y="-404.0" type="qcurve" smooth="yes" name="inserted"/>
      <point x="-1615" y="-351"/>
      <point x="-1717" y="-181"/>
      <point x="-1717" y="-57" type="qcurve" smooth="yes"/>
      <point x="-1717" y="-32" type="line" smooth="yes"/>
      <point x="-1717" y="-27"/>
      <point x="-1717" y="-17"/>
      <point x="-1716" y="-12" type="qcurve"/>
    </contour>
  </outline>
</glyph>
<glyph name="_107" format="1">
  <advance width="0"/>
  <outline>
    <contour>
      <point x="-1407" y="-55" type="line"/>
      <point x="-1407" y="-66" type="line" smooth="yes"/>
      <point x="-1407" y="-108"/>
      <point x="-1395" y="-174"/>
      <point x="-1382.0" y="-200.5" type="qcurve" smooth="yes" name="inserted"/>
      <point x="-1369" y="-227"/>
      <point x="-1326" y="-270"/>
      <point x="-1295" y="-288" type="qcurve" smooth="yes"/>
      <point x="-1232" y="-326"/>
      <point x="-995" y="-362"/>
      <point x="-830" y="-362" type="qcurve" smooth="yes"/>
      <point x="-658" y="-362"/>
      <point x="-434" y="-319"/>
      <point x="-371" y="-279" type="qcurve" smooth="yes"/>
      <point x="-310" y="-239"/>
      <point x="-255" y="-124"/>
      <point x="-255" y="-34" type="qcurve" smooth="yes"/>
      <point x="-255" y="-25" type="line"/>
      <point x="-106" y="-16" type="line"/>
      <point x="-105" y="-36" type="line" smooth="yes"/>
      <point x="-105" y="-70"/>
      <point x="-109" y="-130"/>
      <point x="-113" y="-156" type="qcurve" smooth="yes"/>
      <point x="-121" y="-210"/>
      <point x="-178" y="-315"/>
      <point x="-229" y="-360" type="qcurve" smooth="yes"/>
      <point x="-302" y="-428"/>
      <point x="-610" y="-508"/>
      <point x="-830" y="-507" type="qcurve" smooth="yes"/>
      <point x="-1001" y="-505"/>
      <point x="-1271" y="-464"/>
      <point x="-1364.5" y="-416.0" type="qcurve" smooth="yes" name="inserted"/>
      <point x="-1458" y="-368"/>
      <point x="-1557" y="-209"/>
      <point x="-1557" y="-90" type="qcurve" smooth="yes"/>
      <point x="-1557" y="-68" type="line" smooth="yes"/>
      <point x="-1557" y="-63"/>
      <point x="-1557" y="-54"/>
      <point x="-1556" y="-49" type="qcurve"/>
    </contour>
  </outline>
</glyph>
<glyph name="_108" format="1">
  <advance width="0"/>
  <outline>
    <contour>
      <point x="-1489" y="-63" type="line"/>
      <point x="-1489" y="-69" type="line" smooth="yes"/>
      <point x="-1489" y="-110"/>
      <point x="-1477" y="-175"/>
      <point x="-1463.0" y="-201.5" type="qcurve" smooth="yes" name="inserted"/>
      <point x="-1449" y="-228"/>
      <point x="-1404" y="-271"/>
      <point x="-1371" y="-289" type="qcurve" smooth="yes"/>
      <point x="-1305" y="-326"/>
      <point x="-1060" y="-362"/>
      <point x="-894" y="-362" type="qcurve" smooth="yes"/>
      <point x="-722" y="-362"/>
      <point x="-494" y="-321"/>
      <point x="-428" y="-282" type="qcurve" smooth="yes"/>
      <point x="-362" y="-243"/>
      <point x="-302" y="-124"/>
      <point x="-302" y="-28" type="qcurve" smooth="yes"/>
      <point x="-302" y="-18" type="line"/>
      <point x="-153" y="-9" type="line"/>
      <point x="-152" y="-29" type="line" smooth="yes"/>
      <point x="-152.0" y="-74.5" name="inserted"/>
      <point x="-158.5" y="-149.0"/>
      <point x="-165" y="-178" type="qcurve" smooth="yes"/>
      <point x="-172.0" y="-209.0" name="inserted"/>
      <point x="-198.5" y="-269.0"/>
      <point x="-218" y="-298" type="qcurve" smooth="yes"/>
      <point x="-248" y="-343"/>
      <point x="-361" y="-421"/>
      <point x="-445.0" y="-449.5" type="qcurve" smooth="yes" name="inserted"/>
      <point x="-529" y="-478"/>
      <point x="-753" y="-509"/>
      <point x="-894" y="-507" type="qcurve" smooth="yes"/>
      <point x="-1071" y="-505"/>
      <point x="-1348" y="-464"/>
      <point x="-1443.5" y="-416.5" type="qcurve" smooth="yes" name="inserted"/>
      <point x="-1539" y="-369"/>
      <point x="-1639" y="-213"/>
      <point x="-1639" y="-97" type="qcurve" smooth="yes"/>
      <point x="-1639" y="-75" type="line" smooth="yes"/>
      <point x="-1639" y="-70"/>
      <point x="-1639" y="-62"/>
      <point x="-1638" y="-57" type="qcurve"/>
    </contour>
  </outline>
</glyph>
<glyph name="_119" format="1">
  <advance width="0"/>
  <outline>
    <contour>
      <point x="-1489" y="-63" type="line"/>
      <point x="-1489" y="-69" type="line" smooth="yes"/>
      <point x="-1489" y="-110"/>
      <point x="-1477" y="-175"/>
      <point x="-1463.0" y="-201.5" type="qcurve" smooth="yes" name="inserted"/>
      <point x="-1449" y="-228"/>
      <point x="-1404" y="-271"/>
      <point x="-1371" y="-289" type="qcurve" smooth="yes"/>
      <point x="-1305" y="-326"/>
      <point x="-1060" y="-362"/>
      <point x="-894" y="-362" type="qcurve" smooth="yes"/>
      <point x="-721" y="-362"/>
      <point x="-491" y="-320"/>
      <point x="-425" y="-278" type="qcurve" smooth="yes"/>
      <point x="-361" y="-237"/>
      <point x="-302" y="-113"/>
      <point x="-302" y="-11" type="qcurve" smooth="yes"/>
      <point x="-302" y="-1" type="line"/>
      <point x="-153" y="8" type="line"/>
      <point x="-152" y="-13" type="line" smooth="yes"/>
      <point x="-152.0" y="-60.0" name="inserted"/>
      <point x="-158.5" y="-137.5"/>
      <point x="-165" y="-168" type="qcurve" smooth="yes"/>
      <point x="-172.0" y="-201.0" name="inserted"/>
      <point x="-199.5" y="-264.0"/>
      <point x="-220" y="-294" type="qcurve" smooth="yes"/>
      <point x="-252" y="-341"/>
      <point x="-363" y="-420"/>
      <point x="-446.0" y="-448.0" type="qcurve" smooth="yes" name="inserted"/>
      <point x="-529" y="-476"/>
      <point x="-751" y="-507"/>
      <point x="-894" y="-507" type="qcurve" smooth="yes"/>
      <point x="-1071" y="-505"/>
      <point x="-1348" y="-464"/>
      <point x="-1443.5" y="-416.5" type="qcurve" smooth="yes" name="inserted"/>
      <point x="-1539" y="-369"/>
      <point x="-1639" y="-213"/>
      <point x="-1639" y="-97" type="qcurve" smooth="yes"/>
      <point x="-1639" y="-75" type="line" smooth="yes"/>
      <point x="-1639" y="-70"/>
      <point x="-1639" y="-62"/>
      <point x="-1638" y="-57" type="qcurve"/>
    </contour>
  </outline>
</glyph>
<glyph name="_121" format="1">
  <advance width="0"/>
  <outline>
    <contour>
      <point x="-1819" y="-97" type="line"/>
      <point x="-1818" y="-148"/>
      <point x="-1788" y="-230"/>
      <point x="-1743" y="-266" type="qcurve"/>
      <point x="-1681" y="-323"/>
      <point x="-1348" y="-384"/>
      <point x="-1091" y="-382" type="qcurve" smooth="yes"/>
      <point x="-877" y="-382"/>
      <point x="-590" y="-338"/>
      <point x="-511" y="-299" type="qcurve" smooth="yes"/>
      <point x="-433" y="-260"/>
      <point x="-365" y="-154"/>
      <point x="-365" y="-78" type="qcurve" smooth="yes"/>
      <point x="-365" y="-74" type="line"/>
      <point x="-216" y="-66" type="line"/>
      <point x="-215" y="-78" type="line"/>
      <point x="-215" y="-121"/>
      <point x="-223" y="-193"/>
      <point x="-232.0" y="-224.0" type="qcurve" smooth="yes" name="inserted"/>
      <point x="-241" y="-255"/>
      <point x="-271" y="-310"/>
      <point x="-293" y="-337" type="qcurve" smooth="yes"/>
      <point x="-315.5" y="-364.0" name="inserted"/>
      <point x="-388.0" y="-413.5"/>
      <point x="-438" y="-436" type="qcurve" smooth="yes"/>
      <point x="-538" y="-481"/>
      <point x="-868" y="-527"/>
      <point x="-1091" y="-527" type="qcurve" smooth="yes"/>
      <point x="-1300" y="-527"/>
      <point x="-1628" y="-488"/>
      <point x="-1743" y="-440" type="qcurve" smooth="yes"/>
      <point x="-1857" y="-393"/>
      <point x="-1969" y="-236"/>
      <point x="-1969" y="-109" type="qcurve" smooth="yes"/>
      <point x="-1969" y="-100" type="line" smooth="yes"/>
      <point x="-1969.0" y="-97.0" name="inserted"/>
      <point x="-1968.5" y="-92.0"/>
      <point x="-1968" y="-90" type="qcurve"/>
    </contour>
  </outline>
</glyph>
<glyph name="_123" format="1">
  <advance width="0"/>
  <outline>
    <contour>
      <point x="-1582" y="-9" type="line"/>
      <point x="-1582" y="-20" type="line" smooth="yes"/>
      <point x="-1582" y="-119"/>
      <point x="-1515" y="-239"/>
      <point x="-1443" y="-279" type="qcurve" smooth="yes"/>
      <point x="-1371" y="-319"/>
      <point x="-1124" y="-362"/>
      <point x="-936" y="-362" type="qcurve" smooth="yes"/>
      <point x="-753" y="-362"/>
      <point x="-509" y="-318"/>
      <point x="-436" y="-276" type="qcurve" smooth="yes"/>
      <point x="-363" y="-234"/>
      <point x="-294" y="-104"/>
      <point x="-294" y="2" type="qcurve" smooth="yes"/>
      <point x="-294" y="19" type="line"/>
      <point x="-145" y="29" type="line"/>
      <point x="-144" y="6" type="line" smooth="yes"/>
      <point x="-144" y="-42"/>
      <point x="-149" y="-114"/>
      <point x="-154" y="-139" type="qcurve" smooth="yes"/>
      <point x="-168" y="-215"/>
      <point x="-257" y="-346"/>
      <point x="-348" y="-398" type="qcurve" smooth="yes"/>
      <point x="-439" y="-452"/>
      <point x="-736" y="-507"/>
      <point x="-936" y="-507" type="qcurve" smooth="yes"/>
      <point x="-1134" y="-505"/>
      <point x="-1432" y="-456"/>
      <point x="-1531.5" y="-401.5" type="qcurve" smooth="yes" name="inserted"/>
      <point x="-1631" y="-347"/>
      <point x="-1732" y="-173"/>
      <point x="-1732" y="-47" type="qcurve" smooth="yes"/>
      <point x="-1732" y="-22" type="line" smooth="yes"/>
      <point x="-1732" y="-17"/>
      <point x="-1732" y="-6"/>
      <point x="-1731" y="-1" type="qcurve"/>
    </contour>
  </outline>
</glyph>
<glyph name="_124" format="1">
  <advance width="0"/>
  <outline>
    <contour>
      <point x="-1383" y="-6" type="line"/>
      <point x="-1383" y="-16" type="line" smooth="yes"/>
      <point x="-1383" y="-108"/>
      <point x="-1332" y="-224"/>
      <point x="-1274" y="-265" type="qcurve" smooth="yes"/>
      <point x="-1217" y="-307"/>
      <point x="-1003" y="-352"/>
      <point x="-841" y="-352" type="qcurve" smooth="yes"/>
      <point x="-684" y="-352"/>
      <point x="-474" y="-296"/>
      <point x="-414" y="-242" type="qcurve" smooth="yes"/>
      <point x="-355" y="-189"/>
      <point x="-301" y="-30"/>
      <point x="-301" y="95" type="qcurve" smooth="yes"/>
      <point x="-301" y="122" type="line"/>
      <point x="-154" y="133" type="line"/>
      <point x="-152.5" y="115.0" name="inserted"/>
      <point x="-151.0" y="83.0"/>
      <point x="-151" y="69" type="qcurve" smooth="yes"/>
      <point x="-151" y="-85"/>
      <point x="-238" y="-299"/>
      <point x="-324.5" y="-366.0" type="qcurve" smooth="yes" name="inserted"/>
      <point x="-411" y="-433"/>
      <point x="-669" y="-495"/>
      <point x="-841" y="-497" type="qcurve" smooth="yes"/>
      <point x="-1186" y="-497"/>
      <point x="-1533" y="-276"/>
      <point x="-1533" y="-39" type="qcurve" smooth="yes"/>
      <point x="-1533" y="-18" type="line" smooth="yes"/>
      <point x="-1533" y="-13"/>
      <point x="-1533" y="-3"/>
      <point x="-1532" y="2" type="qcurve"/>
    </contour>
  </outline>
</glyph>
